<svg width="340" height="326" viewBox="0 0 340 326" fill="none" xmlns="http://www.w3.org/2000/svg">
<path d="M37.6189 229.796C38.2506 219.901 37.1674 210.084 38.93 200.113C41.6622 184.695 46.2492 169.561 45.7532 153.704C45.3853 142.119 48.2711 130.087 48.15 118.439C47.9916 105.151 58.935 94.7637 72.6813 83.893C93.0547 67.7817 112.008 64.4947 135.421 62.8039C155.804 61.332 176.167 58.6581 193.661 63.4107C208.454 67.446 220.019 75.639 229.269 87.6965C242.995 105.58 259.64 120.847 276.054 136.359C288.508 148.109 299.642 161.32 303.679 178.914C306.304 190.326 304.147 201.107 297.721 211.337C281.507 237.18 258.563 255.927 231.066 268.47C217.998 274.424 203.26 275.66 188.76 275.646C167.854 275.62 146.86 275.073 125.962 277.802C114.02 279.377 102.021 281.509 90.0506 283.362C66.7552 286.948 54.9023 278.619 45.3628 258.8C41.1052 249.952 39.87 240.132 37.7835 230.59" fill="#FFF2BC"/>
<path d="M56.255 206.233C61.7563 187.316 72.3783 170.256 79.4623 151.972C83.5338 141.497 87.2931 130.787 92.9327 121.142C101.345 106.73 115.057 97.5861 131.264 95.003C161.048 90.2022 190.179 88.6842 214.029 110.25C232.079 126.553 251.17 141.736 266.153 161.001C272.586 169.281 277.881 178.251 279.402 189.11C281.697 205.643 274.708 219.554 262.91 230.887C244.024 249.035 220.831 258.472 195.437 259.305C175.829 259.938 156.632 256.04 137.63 252.512C120.393 249.279 103.444 244.887 86.3314 241.174C78.8234 239.532 71.8264 236.682 65.5732 232.769C56.4521 227.066 56.2975 217.011 56.3311 207.205" fill="#FDE278"/>
<path d="M62.2042 177.333C70.0183 160.075 82.5895 145.323 91.8662 128.896C97.1937 119.486 102.247 109.808 108.997 101.416C119.07 88.8725 133.634 82.1157 149.784 81.9754C179.47 81.6663 208.096 84.3955 228.584 108.389C244.092 126.531 260.76 143.753 272.892 164.281C278.1 173.103 282.108 182.419 282.188 192.997C282.291 209.098 273.672 221.368 260.693 230.488C239.916 245.093 216.063 250.769 191.172 247.923C171.955 245.715 153.725 239.243 135.637 233.153C119.232 227.597 103.26 220.976 87.0394 214.98C79.9245 212.337 73.4646 208.615 67.8678 203.985C59.7036 197.237 60.8525 187.622 62.1529 178.271" stroke="black" stroke-width="1.47737" stroke-miterlimit="10" stroke-linecap="round" stroke-linejoin="round" stroke-dasharray="3.94 9.85"/>
<path d="M44.0569 223.183C44.6886 213.288 43.6054 203.471 45.368 193.5C48.1002 178.082 52.6872 162.947 52.1912 147.091C51.8233 135.506 54.7091 123.474 54.588 111.826C54.4296 98.5378 65.373 88.1504 79.1193 77.2797C99.4927 61.1684 118.446 57.8814 141.859 56.1906C162.242 54.7187 182.605 52.0448 200.099 56.7974C214.892 60.8327 226.457 69.0258 235.707 81.0832C249.433 98.9671 266.078 114.233 282.492 129.746C294.946 141.496 306.08 154.707 310.117 172.301C312.742 183.713 310.585 194.494 304.159 204.724C287.945 230.567 265.001 249.314 237.504 261.857C224.436 267.811 209.698 269.047 195.198 269.033C174.292 269.007 153.298 268.459 132.4 271.189C120.458 272.763 108.459 274.896 96.4886 276.749C73.1932 280.335 61.3403 272.005 51.8008 252.187C47.5432 243.339 46.3079 233.519 44.2215 223.977" stroke="black" stroke-width="1.47737" stroke-miterlimit="10" stroke-linecap="round" stroke-linejoin="round" stroke-dasharray="3.94 9.85"/>
<path d="M173.699 119.62L231.01 218.887C232.811 222.006 230.56 225.904 226.959 225.904H112.335C108.734 225.904 106.483 222.006 108.284 218.887L165.596 119.62C167.396 116.501 171.898 116.501 173.699 119.62Z" fill="white" stroke="black" stroke-width="1.47737"/>
<path d="M177.815 208.72C176.606 213.231 171.97 215.908 167.459 214.699C162.949 213.491 160.272 208.854 161.48 204.344C162.689 199.833 167.325 197.156 171.836 198.365C176.347 199.573 179.024 204.21 177.815 208.72Z" fill="black" stroke="black" stroke-width="1.47737"/>
<path d="M162.606 151.646L163.478 185.265C163.565 188.599 166.275 191.267 169.611 191.301C172.947 191.334 175.711 188.721 175.864 185.388L177.407 151.794C177.6 147.604 174.277 144.091 170.083 144.049C165.889 144.007 162.497 147.453 162.606 151.646Z" fill="black" stroke="black" stroke-width="1.47737"/>
<circle cx="131.371" cy="130.404" r="42.3513" transform="rotate(-15 131.371 130.404)" fill="black"/>
<ellipse cx="115.292" cy="125.5" rx="6.641" ry="6.641" transform="rotate(-15 115.292 125.5)" fill="white"/>
<ellipse cx="142.846" cy="118.118" rx="6.641" ry="6.641" transform="rotate(-15 142.846 118.118)" fill="white"/>
<path d="M143.411 135.999L150.615 143.202L140.775 145.839L143.411 135.999Z" fill="white"/>
<path d="M123.615 141.304L130.818 148.507L120.978 151.144L123.615 141.304Z" fill="white"/>
<rect x="117.889" y="151.713" width="37.0784" height="4.5933" rx="2.29665" transform="rotate(-15 117.889 151.713)" fill="white"/>
<path d="M180.198 110.175C181.999 107.056 186.501 107.056 188.302 110.175L245.613 209.441C247.414 212.56 245.163 216.459 241.562 216.459H126.938C123.337 216.459 121.086 212.56 122.887 209.441L180.198 110.175Z" fill="#FDD32A" stroke="black" stroke-width="1.47737"/>
<path d="M192.418 199.275C191.209 203.786 186.573 206.463 182.062 205.254C177.551 204.045 174.875 199.409 176.083 194.898C177.292 190.388 181.928 187.711 186.439 188.919C190.95 190.128 193.627 194.764 192.418 199.275Z" fill="white" stroke="black" stroke-width="1.47737"/>
<path d="M192.01 142.348C192.202 138.158 188.88 134.644 184.686 134.603C180.492 134.561 177.1 138.007 177.209 142.2L178.081 175.818C178.167 179.153 180.878 181.821 184.214 181.854C187.55 181.888 190.313 179.274 190.466 175.942L192.01 142.348Z" fill="white" stroke="black" stroke-width="1.47737"/>
<path d="M196.081 123.487L215.483 92.041H237.563L225.52 110.775H237.563L220.836 136.199H237.563L196.081 176.343L211.469 148.911H196.081L211.469 123.487H196.081Z" fill="white" stroke="black" stroke-width="1.23114"/>
</svg>
