<svg width="328" height="273" viewBox="0 0 328 273" fill="none" xmlns="http://www.w3.org/2000/svg">
<path d="M39.801 118.541C42.6324 127.35 43.8941 136.481 47.7663 145.101C53.7598 158.429 61.3668 171.076 64.5392 185.538C66.8521 196.105 72.2113 206.334 74.7617 216.902C77.6531 228.962 89.928 235.863 104.85 242.56C126.965 252.487 144.866 251.133 166.439 247.315C185.219 243.992 204.257 241.762 219.002 233.466C231.466 226.436 240.06 216.381 245.677 203.358C254.013 184.04 265.588 166.424 276.899 148.638C285.485 135.162 292.543 120.664 292.178 103.822C291.947 92.8954 287.533 83.6321 279.382 75.8425C258.808 56.1607 233.765 44.4363 206.019 39.3654C192.834 36.9624 179.215 39.2095 166.097 42.5342C147.185 47.3322 128.313 52.6219 108.779 54.9246C97.6135 56.227 86.2684 57.0379 75.013 58.0945C53.1142 60.17 44.2907 70.4139 40.1845 90.5262C38.3525 99.5049 39.4774 108.673 39.7686 117.785" fill="#585858"/>
<path d="M259.285 78.7597C242.728 70.7655 224.262 67.4833 207.156 60.9822C197.347 57.2667 187.571 53.1879 177.36 51.0788C162.11 47.9163 147.206 51.7199 135.296 61.3497C113.371 79.0133 94.1303 98.2742 94.2002 128.283C94.2404 150.982 92.8538 173.705 96.8644 196.126C98.5918 205.758 101.508 215.031 108.092 222.866C118.128 234.779 132.142 238.616 147.369 237.507C171.749 235.737 192.775 225.539 209.207 208.444C221.888 195.237 231.168 179.487 240.585 164.103C249.104 150.127 256.638 135.627 264.747 121.438C268.295 115.205 270.686 108.572 271.876 101.791C273.614 91.9031 266.736 85.5183 259.912 79.4192" fill="#292929"/>
<path d="M250.968 72.2549C235.939 65.5568 219.266 63.2305 203.767 57.9157C194.879 54.8793 186.015 51.51 176.791 49.9551C163.015 47.6213 149.661 51.6355 139.094 60.8609C119.64 77.7856 102.627 96.0713 103.166 123.469C103.562 144.195 102.674 164.992 106.639 185.32C108.347 194.052 111.119 202.413 117.169 209.328C126.39 219.841 139.065 222.836 152.752 221.27C174.668 218.768 193.431 208.693 207.95 192.487C219.154 179.967 227.258 165.249 235.489 150.86C242.935 137.789 249.487 124.276 256.56 111.026C259.655 105.205 261.702 99.0618 262.665 92.827C264.074 83.7357 257.781 78.1555 251.543 72.8343" stroke="black" stroke-width="1.37879" stroke-miterlimit="10" stroke-linecap="round" stroke-linejoin="round" stroke-dasharray="3.68 9.19"/>
<path d="M43.4766 109.776C43.3588 109.41 42.9695 109.195 42.607 109.297C42.2446 109.399 42.0463 109.779 42.1641 110.145L43.4766 109.776ZM50.7856 136.521L50.1579 136.78L50.158 136.78L50.7856 136.521ZM67.5585 176.958L68.2323 176.839L68.2323 176.838L67.5585 176.958ZM77.781 208.322L78.4517 208.189L78.4515 208.188L77.781 208.322ZM107.869 233.98L107.609 234.606L107.869 233.98ZM169.458 238.735L169.31 238.057L169.458 238.735ZM222.021 224.886L222.379 225.489L222.38 225.489L222.021 224.886ZM248.696 194.778L248.06 194.482L248.06 194.483L248.696 194.778ZM279.918 140.058L279.331 139.671L279.331 139.672L279.918 140.058ZM295.197 95.2415L294.507 95.2264L294.507 95.2268L295.197 95.2415ZM282.402 67.2625L281.935 67.7499L281.936 67.7501L282.402 67.2625ZM209.038 30.7854L209.134 30.108L209.133 30.108L209.038 30.7854ZM169.117 33.9541L168.92 33.286L168.92 33.2861L169.117 33.9541ZM111.798 46.3446L111.907 47.0287L111.908 47.0286L111.798 46.3446ZM78.0323 49.5144L77.9386 48.8286L77.938 48.8287L78.0323 49.5144ZM43.2038 81.9462L42.5274 81.7811L42.5274 81.7811L43.2038 81.9462ZM42.0983 109.197C42.1104 109.577 42.429 109.889 42.8099 109.893C43.1908 109.897 43.4898 109.592 43.4776 109.212L42.0983 109.197ZM42.7445 112.025C42.854 112.394 43.2386 112.617 43.6036 112.524C43.9687 112.43 44.1758 112.055 44.0663 111.687L42.7445 112.025ZM46.6012 121.288C46.5073 120.916 46.1317 120.677 45.7624 120.755C45.393 120.833 45.1698 121.198 45.2638 121.57L46.6012 121.288ZM46.2616 125.415C46.3618 125.786 46.7411 126.018 47.1087 125.934C47.4764 125.85 47.6933 125.481 47.5931 125.11L46.2616 125.415ZM50.6419 134.455C50.4968 134.098 50.0936 133.913 49.7412 134.043C49.3888 134.172 49.2207 134.567 49.3658 134.925L50.6419 134.455ZM51.0294 138.691C51.1916 139.041 51.6027 139.207 51.9475 139.06C52.2924 138.913 52.4405 138.509 52.2783 138.158L51.0294 138.691ZM56.8053 147.578C56.6355 147.231 56.2213 147.074 55.8801 147.229C55.539 147.384 55.4 147.791 55.5698 148.138L56.8053 147.578ZM57.3982 151.901C57.566 152.249 57.9794 152.408 58.3216 152.255C58.6637 152.103 58.8051 151.696 58.6373 151.348L57.3982 151.901ZM62.995 160.896C62.8451 160.54 62.4395 160.361 62.0891 160.495C61.7388 160.63 61.5764 161.027 61.7264 161.383L62.995 160.896ZM63.2765 165.236C63.4141 165.597 63.8137 165.79 64.1691 165.668C64.5245 165.546 64.7011 165.155 64.5636 164.795L63.2765 165.236ZM67.7526 174.795C67.6594 174.423 67.2844 174.183 66.9148 174.26C66.5453 174.338 66.3212 174.702 66.4144 175.074L67.7526 174.795ZM67.2438 178.621C67.3356 178.994 67.7098 179.235 68.0797 179.159C68.4495 179.083 68.675 178.72 68.5833 178.347L67.2438 178.621ZM70.8212 185.806C70.6961 185.442 70.3029 185.235 69.9429 185.344C69.5829 185.454 69.3925 185.837 69.5176 186.202L70.8212 185.806ZM70.5734 189.18C70.7052 189.543 71.1019 189.742 71.4595 189.626C71.817 189.51 72.0001 189.122 71.8683 188.76L70.5734 189.18ZM74.6112 196.135C74.4777 195.774 74.0802 195.576 73.7232 195.694C73.3663 195.812 73.1851 196.2 73.3186 196.562L74.6112 196.135ZM74.386 199.512C74.5142 199.876 74.909 200.079 75.2679 199.967C75.6268 199.854 75.8138 199.469 75.6856 199.105L74.386 199.512ZM78.0613 206.652C77.9624 206.281 77.5839 206.047 77.2158 206.13C76.8478 206.213 76.6296 206.581 76.7285 206.952L78.0613 206.652ZM77.6606 210.376C77.7829 210.741 78.1746 210.951 78.5355 210.844C78.8965 210.738 79.09 210.355 78.9678 209.99L77.6606 210.376ZM83.7556 218.066C83.4974 217.775 83.0609 217.739 82.7806 217.984C82.5002 218.23 82.4823 218.664 82.7405 218.955L83.7556 218.066ZM85.5731 221.775C85.8636 222.033 86.2991 222.017 86.5456 221.737C86.7922 221.458 86.7565 221.022 86.4659 220.764L85.5731 221.775ZM94.2883 226.369C93.9553 226.17 93.5351 226.272 93.3499 226.596C93.1646 226.92 93.2844 227.344 93.6174 227.543L94.2883 226.369ZM97.0431 229.483C97.3844 229.667 97.7986 229.546 97.9682 229.213C98.1378 228.88 97.9986 228.461 97.6573 228.277L97.0431 229.483ZM106.358 232.552C106.007 232.391 105.603 232.54 105.456 232.885C105.31 233.23 105.477 233.639 105.829 233.8L106.358 232.552ZM109.291 235.343C109.646 235.495 110.046 235.336 110.183 234.987C110.32 234.638 110.143 234.232 109.787 234.08L109.291 235.343ZM118.228 237.213C117.861 237.097 117.481 237.298 117.381 237.66C117.281 238.022 117.499 238.41 117.866 238.525L118.228 237.213ZM121.377 239.545C121.749 239.644 122.118 239.426 122.202 239.059C122.285 238.692 122.051 238.314 121.679 238.215L121.377 239.545ZM130.441 240.028C130.062 239.972 129.722 240.231 129.682 240.608C129.642 240.984 129.917 241.334 130.296 241.391L130.441 240.028ZM133.9 241.841C134.28 241.88 134.607 241.605 134.63 241.227C134.652 240.848 134.362 240.51 133.982 240.471L133.9 241.841ZM142.869 240.904C142.488 240.904 142.193 241.213 142.21 241.594C142.228 241.974 142.55 242.282 142.931 242.281L142.869 240.904ZM146.534 242.208C146.914 242.193 147.197 241.874 147.166 241.493C147.135 241.113 146.802 240.817 146.422 240.831L146.534 242.208ZM155.27 240.152C154.893 240.194 154.635 240.534 154.694 240.912C154.752 241.29 155.104 241.563 155.481 241.521L155.27 240.152ZM159.032 241.085C159.407 241.034 159.658 240.688 159.591 240.311C159.525 239.934 159.167 239.669 158.792 239.719L159.032 241.085ZM167.56 238.362C167.187 238.426 166.95 238.782 167.03 239.157C167.111 239.532 167.478 239.784 167.85 239.72L167.56 238.362ZM171.532 239.077C171.904 239.012 172.141 238.656 172.06 238.281C171.979 237.906 171.612 237.655 171.24 237.719L171.532 239.077ZM180.892 236.083C180.519 236.146 180.282 236.501 180.361 236.877C180.441 237.252 180.807 237.504 181.18 237.441L180.892 236.083ZM185.041 236.775C185.414 236.71 185.649 236.353 185.568 235.978C185.486 235.604 185.118 235.353 184.746 235.418L185.041 236.775ZM194.333 233.597C193.963 233.674 193.739 234.039 193.833 234.411C193.926 234.784 194.301 235.023 194.671 234.946L194.333 233.597ZM198.501 234.104C198.868 234.019 199.084 233.649 198.983 233.279C198.882 232.908 198.502 232.676 198.135 232.761L198.501 234.104ZM207.501 230.244C207.142 230.356 206.955 230.742 207.083 231.106C207.212 231.469 207.606 231.672 207.965 231.56L207.501 230.244ZM211.68 230.312C212.034 230.184 212.204 229.791 212.062 229.432C211.919 229.074 211.517 228.886 211.163 229.013L211.68 230.312ZM219.979 225.193C219.647 225.366 219.531 225.781 219.718 226.12C219.905 226.459 220.326 226.593 220.658 226.421L219.979 225.193ZM224.085 224.494C224.405 224.301 224.497 223.879 224.289 223.551C224.082 223.223 223.655 223.114 223.335 223.307L224.085 224.494ZM231.183 217.702C230.898 217.942 230.872 218.376 231.125 218.671C231.378 218.966 231.814 219.01 232.099 218.77L231.183 217.702ZM235.027 216.133C235.295 215.875 235.293 215.439 235.023 215.16C234.752 214.881 234.315 214.864 234.047 215.122L235.027 216.133ZM240.405 207.894C240.183 208.193 240.253 208.626 240.563 208.861C240.872 209.096 241.303 209.045 241.526 208.745L240.405 207.894ZM243.776 205.51C243.98 205.198 243.883 204.768 243.561 204.552C243.239 204.335 242.813 204.413 242.609 204.726L243.776 205.51ZM247.269 196.255C247.112 196.595 247.266 197.009 247.613 197.181C247.96 197.352 248.369 197.216 248.526 196.876L247.269 196.255ZM250.053 193.423C250.205 193.081 250.044 192.669 249.695 192.503C249.345 192.337 248.939 192.479 248.787 192.822L250.053 193.423ZM252.643 184.63C252.477 184.965 252.62 185.383 252.963 185.563C253.305 185.744 253.718 185.619 253.885 185.285L252.643 184.63ZM255.512 182.077C255.684 181.745 255.547 181.325 255.207 181.139C254.867 180.953 254.452 181.072 254.28 181.404L255.512 182.077ZM258.57 173.452C258.388 173.777 258.511 174.201 258.845 174.397C259.18 174.593 259.599 174.489 259.781 174.163L258.57 173.452ZM261.558 171.036C261.744 170.712 261.626 170.288 261.293 170.088C260.961 169.888 260.54 169.988 260.354 170.312L261.558 171.036ZM264.947 162.547C264.753 162.866 264.863 163.292 265.191 163.499C265.519 163.706 265.942 163.615 266.136 163.296L264.947 162.547ZM268.011 160.226C268.206 159.908 268.1 159.481 267.773 159.272C267.446 159.063 267.022 159.151 266.826 159.469L268.011 160.226ZM271.599 151.826C271.4 152.141 271.502 152.569 271.827 152.782C272.151 152.995 272.576 152.911 272.775 152.596L271.599 151.826ZM274.702 149.556C274.902 149.241 274.801 148.813 274.477 148.599C274.153 148.386 273.728 148.468 273.528 148.783L274.702 149.556ZM278.365 141.19C278.164 141.505 278.264 141.933 278.589 142.147C278.913 142.361 279.338 142.279 279.538 141.964L278.365 141.19ZM281.419 138.998C281.616 138.682 281.513 138.254 281.187 138.043C280.861 137.832 280.437 137.917 280.239 138.233L281.419 138.998ZM284.55 130.911C284.37 131.239 284.497 131.661 284.833 131.855C285.169 132.048 285.587 131.939 285.767 131.612L284.55 130.911ZM287.375 128.576C287.545 128.243 287.407 127.824 287.065 127.64C286.724 127.455 286.31 127.576 286.14 127.909L287.375 128.576ZM289.669 120.185C289.53 120.533 289.705 120.94 290.059 121.094C290.414 121.248 290.815 121.091 290.954 120.743L289.669 120.185ZM292.17 117.507C292.294 117.153 292.102 116.753 291.742 116.614C291.382 116.475 290.989 116.649 290.865 117.003L292.17 117.507ZM293.186 108.82C293.106 109.188 293.344 109.564 293.717 109.659C294.09 109.754 294.456 109.532 294.536 109.164L293.186 108.82ZM295.174 105.737C295.233 105.364 294.975 105.001 294.599 104.926C294.222 104.852 293.869 105.093 293.811 105.466L295.174 105.737ZM294.519 96.9449C294.515 97.3248 294.822 97.6486 295.203 97.6681C295.584 97.6876 295.895 97.3955 295.899 97.0156L294.519 96.9449ZM295.779 92.9918C295.75 92.6116 295.419 92.3132 295.039 92.3254C294.659 92.3376 294.374 92.6557 294.403 93.0359L295.779 92.9918ZM291.992 82.3269C292.132 82.6861 292.533 82.8759 292.888 82.7509C293.242 82.6258 293.415 82.2332 293.274 81.8739L291.992 82.3269ZM291.334 77.6911C291.15 77.3503 290.73 77.2111 290.397 77.3802C290.063 77.5493 289.941 77.9626 290.125 78.3033L291.334 77.6911ZM283.523 69.3362C283.792 69.6172 284.229 69.6372 284.499 69.3808C284.769 69.1244 284.77 68.6887 284.502 68.4077L283.523 69.3362ZM281.412 65.4023C281.127 65.1376 280.691 65.1445 280.438 65.4178C280.184 65.691 280.21 66.127 280.495 66.3917L281.412 65.4023ZM273.009 59.9299C273.313 60.1729 273.746 60.1326 273.976 59.8399C274.207 59.5473 274.148 59.113 273.845 58.87L273.009 59.9299ZM270.688 56.4176C270.378 56.1838 269.947 56.2374 269.726 56.5375C269.504 56.8375 269.577 57.2703 269.887 57.5041L270.688 56.4176ZM261.782 51.8561C262.108 52.0661 262.532 51.9792 262.729 51.662C262.925 51.3448 262.82 50.9174 262.494 50.7075L261.782 51.8561ZM259.104 48.5977C258.772 48.3976 258.351 48.4976 258.165 48.8211C257.978 49.1445 258.096 49.569 258.429 49.7692L259.104 48.5977ZM249.8 44.9945C250.146 45.1696 250.556 45.0378 250.717 44.7001C250.878 44.3624 250.728 43.9467 250.382 43.7716L249.8 44.9945ZM246.804 42.0223C246.454 41.8572 246.049 42.0013 245.898 42.344C245.748 42.6867 245.91 43.0984 246.26 43.2634L246.804 42.0223ZM237.218 39.3837C237.578 39.5236 237.971 39.3503 238.096 38.9965C238.221 38.6428 238.03 38.2426 237.67 38.1027L237.218 39.3837ZM233.95 36.7151C233.587 36.5851 233.199 36.7695 233.084 37.127C232.97 37.4845 233.171 37.8797 233.535 38.0097L233.95 36.7151ZM224.19 35.0112C224.561 35.1169 224.934 34.9064 225.024 34.541C225.114 34.1755 224.887 33.7936 224.517 33.6879L224.19 35.0112ZM220.7 32.6505C220.328 32.5543 219.96 32.7746 219.88 33.1426C219.799 33.5106 220.036 33.887 220.408 33.9832L220.7 32.6505ZM210.864 31.8255C211.241 31.8989 211.593 31.6558 211.65 31.2826C211.707 30.9094 211.449 30.5473 211.072 30.4739L210.864 31.8255ZM207.195 29.7878C206.816 29.7316 206.476 29.991 206.436 30.3672C206.396 30.7434 206.671 31.094 207.05 31.1502L207.195 29.7878ZM197.514 30.4696C197.895 30.4698 198.19 30.1616 198.174 29.7812C198.158 29.4008 197.836 29.0923 197.455 29.0921L197.514 30.4696ZM193.57 29.1876C193.191 29.2062 192.912 29.5292 192.946 29.9091C192.981 30.2891 193.317 30.5821 193.697 30.5635L193.57 29.1876ZM184.218 31.5304C184.592 31.4742 184.837 31.1236 184.765 30.7474C184.692 30.3712 184.33 30.1118 183.956 30.168L184.218 31.5304ZM180.157 30.8015C179.786 30.8694 179.553 31.2278 179.637 31.6021C179.721 31.9764 180.09 32.2248 180.462 32.1569L180.157 30.8015ZM171.16 34.1624C171.526 34.0729 171.738 33.7007 171.632 33.331C171.527 32.9612 171.144 32.734 170.778 32.8235L171.16 34.1624ZM167.296 33.6991C166.931 33.7923 166.724 34.1668 166.833 34.5356C166.942 34.9044 167.326 35.1279 167.691 35.0347L167.296 33.6991ZM159.584 37.1163C159.949 37.0224 160.156 36.6475 160.046 36.2789C159.936 35.9103 159.551 35.6875 159.187 35.7813L159.584 37.1163ZM155.944 36.6132C155.579 36.7065 155.371 37.0811 155.481 37.4499C155.59 37.8187 155.974 38.0419 156.34 37.9486L155.944 36.6132ZM148.215 39.9951C148.581 39.9048 148.791 39.5321 148.685 39.1626C148.579 38.793 148.196 38.5667 147.83 38.657L148.215 39.9951ZM144.579 39.4502C144.212 39.5386 143.999 39.9101 144.104 40.2801C144.208 40.6501 144.59 40.8784 144.956 40.7901L144.579 39.4502ZM136.781 42.6845C137.15 42.603 137.369 42.2357 137.272 41.8642C137.174 41.4926 136.796 41.2575 136.428 41.3389L136.781 42.6845ZM133.157 42.0465C132.787 42.1245 132.564 42.4896 132.658 42.8619C132.752 43.2342 133.128 43.4728 133.497 43.3948L133.157 42.0465ZM125.246 45.0174C125.618 44.9501 125.851 44.5921 125.768 44.2177C125.684 43.8433 125.315 43.5943 124.944 43.6616L125.246 45.0174ZM121.643 44.2357C121.27 44.2979 121.032 44.6526 121.11 45.0279C121.188 45.4031 121.554 45.6569 121.927 45.5947L121.643 44.2357ZM113.585 46.8236C113.96 46.776 114.213 46.4314 114.149 46.054C114.085 45.6766 113.729 45.4093 113.353 45.4569L113.585 46.8236ZM110.089 45.8436C109.713 45.886 109.455 46.2268 109.514 46.6048C109.572 46.9828 109.925 47.255 110.301 47.2126L110.089 45.8436ZM102.262 48.0456C102.639 48.0093 102.902 47.673 102.85 47.2943C102.797 46.9156 102.449 46.6381 102.071 46.6744L102.262 48.0456ZM98.8582 46.9761C98.4805 47.0108 98.2157 47.346 98.2667 47.7248C98.3177 48.1036 98.6653 48.3825 99.0429 48.3478L98.8582 46.9761ZM90.9938 49.0606C91.3717 49.0279 91.6384 48.6941 91.5893 48.3152C91.5403 47.9362 91.1942 47.6554 90.8163 47.6881L90.9938 49.0606ZM87.5972 47.9663C87.2193 47.999 86.9526 48.3328 87.0017 48.7118C87.0507 49.0907 87.3968 49.3715 87.7747 49.3388L87.5972 47.9663ZM79.7328 50.051C80.1105 50.0163 80.3753 49.6811 80.3243 49.3023C80.2733 48.9234 79.9257 48.6445 79.5481 48.6792L79.7328 50.051ZM76.0473 49.0319C75.6712 49.0773 75.4163 49.4202 75.478 49.7979C75.5396 50.1756 75.8945 50.445 76.2705 50.3996L76.0473 49.0319ZM67.2084 52.2313C67.5686 52.1224 67.7596 51.7387 67.635 51.3742C67.5104 51.0097 67.1174 50.8025 66.7573 50.9113L67.2084 52.2313ZM63.1786 52.1777C62.8317 52.3202 62.6784 52.7216 62.8361 53.0743C62.9939 53.427 63.403 53.5975 63.7499 53.455L63.1786 52.1777ZM55.9803 58.0745C56.2662 57.8354 56.2936 57.4017 56.0415 57.1059C55.7895 56.81 55.3534 56.764 55.0676 57.0032L55.9803 58.0745ZM52.3359 59.6194C52.0847 59.8944 52.1134 60.3304 52.3999 60.5932C52.6865 60.8561 53.1224 60.8462 53.3737 60.5712L52.3359 59.6194ZM48.3542 68.092C48.518 67.7559 48.372 67.339 48.0279 67.1608C47.6838 66.9827 47.2721 67.1107 47.1082 67.4468L48.3542 68.092ZM45.6054 70.9063C45.4703 71.2558 45.6496 71.6608 46.006 71.8108C46.3623 71.9608 46.7607 71.7991 46.8958 71.4495L45.6054 70.9063ZM44.2702 80.2953C44.3532 79.9279 44.1189 79.5502 43.7469 79.4515C43.375 79.3528 43.0062 79.5707 42.9232 79.938L44.2702 80.2953ZM42.1764 83.7183C42.1171 84.0912 42.3742 84.4545 42.7506 84.5297C43.1271 84.605 43.4803 84.3638 43.5397 83.9909L42.1764 83.7183ZM42.8693 93.5901C42.8691 93.2101 42.56 92.8889 42.1789 92.8728C41.7978 92.8567 41.489 93.1517 41.4893 93.5317L42.8693 93.5901ZM41.5626 97.4646C41.5755 97.845 41.8947 98.1562 42.2756 98.1596C42.6565 98.1631 42.9548 97.8575 42.9419 97.4771L41.5626 97.4646ZM43.4034 107.249C43.3871 106.869 43.0652 106.56 42.6845 106.56C42.3038 106.56 42.0083 106.868 42.0246 107.249L43.4034 107.249ZM42.1641 110.145C42.3648 110.77 42.5578 111.397 42.7445 112.025L44.0663 111.687C43.877 111.049 43.6809 110.412 43.4766 109.776L42.1641 110.145ZM45.2638 121.57C45.587 122.851 45.9156 124.134 46.2616 125.415L47.5931 125.11C47.2502 123.84 46.9238 122.566 46.6012 121.288L45.2638 121.57ZM49.3658 134.925C49.6175 135.545 49.881 136.164 50.1579 136.78L51.4132 136.262C51.144 135.663 50.8874 135.06 50.6419 134.455L49.3658 134.925ZM50.158 136.78C50.4451 137.419 50.7358 138.055 51.0294 138.691L52.2783 138.158C51.9865 137.527 51.6979 136.895 51.4131 136.262L50.158 136.78ZM55.5698 148.138C56.1826 149.393 56.7937 150.646 57.3982 151.901L58.6373 151.348C58.0309 150.089 57.4183 148.833 56.8053 147.578L55.5698 148.138ZM61.7264 161.383C62.2646 162.66 62.783 163.944 63.2765 165.236L64.5636 164.795C64.0635 163.485 63.5389 162.186 62.995 160.896L61.7264 161.383ZM66.4144 175.074C66.5804 175.739 66.7374 176.406 66.8847 177.077L68.2323 176.838C68.082 176.153 67.9219 175.472 67.7526 174.795L66.4144 175.074ZM66.8846 177.077C66.9975 177.593 67.1174 178.107 67.2438 178.621L68.5833 178.347C68.4597 177.845 68.3425 177.342 68.2323 176.839L66.8846 177.077ZM69.5176 186.202C69.8592 187.197 70.2129 188.19 70.5734 189.18L71.8683 188.76C71.5099 187.775 71.1593 186.791 70.8212 185.806L69.5176 186.202ZM73.3186 196.562C73.6816 197.546 74.039 198.529 74.386 199.512L75.6856 199.105C75.3357 198.113 74.9758 197.123 74.6112 196.135L73.3186 196.562ZM76.7285 206.952C76.8619 207.453 76.9894 207.954 77.1105 208.456L78.4515 208.188C78.3277 207.675 78.1974 207.163 78.0613 206.652L76.7285 206.952ZM77.1103 208.454C77.2672 209.109 77.451 209.749 77.6606 210.376L78.9678 209.99C78.7713 209.403 78.599 208.803 78.4517 208.189L77.1103 208.454ZM82.7405 218.955C83.6108 219.934 84.5579 220.873 85.5731 221.775L86.4659 220.764C85.4894 219.896 84.5839 218.998 83.7556 218.066L82.7405 218.955ZM93.6174 227.543C94.7234 228.204 95.867 228.85 97.0431 229.483L97.6573 228.277C96.4977 227.652 95.3733 227.018 94.2883 226.369L93.6174 227.543ZM105.829 233.8C106.418 234.07 107.011 234.338 107.609 234.606L108.129 233.354C107.534 233.087 106.944 232.82 106.358 232.552L105.829 233.8ZM107.609 234.606C108.172 234.859 108.733 235.105 109.291 235.343L109.787 234.08C109.237 233.845 108.684 233.603 108.129 233.354L107.609 234.606ZM117.866 238.525C119.045 238.895 120.215 239.235 121.377 239.545L121.679 238.215C120.538 237.91 119.388 237.577 118.228 237.213L117.866 238.525ZM130.296 241.391C131.502 241.569 132.703 241.719 133.9 241.841L133.982 240.471C132.805 240.351 131.625 240.204 130.441 240.028L130.296 241.391ZM142.931 242.281C144.131 242.279 145.331 242.254 146.534 242.208L146.422 240.831C145.235 240.877 144.051 240.901 142.869 240.904L142.931 242.281ZM155.481 241.521C156.658 241.39 157.841 241.244 159.032 241.085L158.792 239.719C157.61 239.877 156.437 240.022 155.27 240.152L155.481 241.521ZM167.85 239.72C168.433 239.62 169.019 239.518 169.607 239.414L169.31 238.057C168.723 238.161 168.14 238.263 167.56 238.362L167.85 239.72ZM169.607 239.414C170.248 239.3 170.89 239.188 171.532 239.077L171.24 237.719C170.596 237.831 169.953 237.943 169.31 238.057L169.607 239.414ZM181.18 237.441C182.47 237.222 183.758 237.001 185.041 236.775L184.746 235.418C183.466 235.643 182.181 235.864 180.892 236.083L181.18 237.441ZM194.671 234.946C195.956 234.677 197.234 234.397 198.501 234.104L198.135 232.761C196.878 233.052 195.61 233.33 194.333 233.597L194.671 234.946ZM207.965 231.56C209.22 231.166 210.458 230.751 211.68 230.312L211.163 229.013C209.96 229.446 208.739 229.856 207.501 230.244L207.965 231.56ZM220.658 226.421C221.238 226.119 221.812 225.809 222.379 225.489L221.663 224.282C221.108 224.594 220.547 224.898 219.979 225.193L220.658 226.421ZM222.38 225.489C222.956 225.164 223.525 224.832 224.085 224.494L223.335 223.307C222.786 223.638 222.228 223.963 221.662 224.282L222.38 225.489ZM232.099 218.77C233.109 217.919 234.084 217.04 235.027 216.133L234.047 215.122C233.125 216.009 232.171 216.869 231.183 217.702L232.099 218.77ZM241.526 208.745C242.307 207.695 243.057 206.617 243.776 205.51L242.609 204.726C241.905 205.81 241.17 206.866 240.405 207.894L241.526 208.745ZM248.526 196.876C248.801 196.281 249.07 195.68 249.332 195.072L248.06 194.483C247.803 195.08 247.539 195.671 247.269 196.255L248.526 196.876ZM249.332 195.073C249.57 194.522 249.81 193.972 250.053 193.423L248.787 192.822C248.542 193.374 248.3 193.927 248.06 194.482L249.332 195.073ZM253.885 185.285C254.419 184.211 254.962 183.142 255.512 182.077L254.28 181.404C253.726 182.475 253.181 183.55 252.643 184.63L253.885 185.285ZM259.781 174.163C260.367 173.117 260.96 172.075 261.558 171.036L260.354 170.312C259.753 171.355 259.159 172.402 258.57 173.452L259.781 174.163ZM266.136 163.296C266.757 162.271 267.382 161.248 268.011 160.226L266.826 159.469C266.196 160.493 265.569 161.519 264.947 162.547L266.136 163.296ZM272.775 152.596C273.416 151.582 274.059 150.569 274.702 149.556L273.528 148.783C272.884 149.797 272.241 150.811 271.599 151.826L272.775 152.596ZM279.538 141.964C279.861 141.458 280.183 140.951 280.505 140.445L279.331 139.672C279.009 140.178 278.687 140.684 278.365 141.19L279.538 141.964ZM280.505 140.445C280.812 139.964 281.116 139.482 281.419 138.998L280.239 138.233C279.939 138.714 279.636 139.193 279.331 139.671L280.505 140.445ZM285.767 131.612C286.318 130.607 286.855 129.595 287.375 128.576L286.14 127.909C285.626 128.916 285.095 129.917 284.55 130.911L285.767 131.612ZM290.954 120.743C291.382 119.673 291.788 118.595 292.17 117.507L290.865 117.003C290.49 118.072 290.091 119.132 289.669 120.185L290.954 120.743ZM294.536 109.164C294.779 108.032 294.993 106.89 295.174 105.737L293.811 105.466C293.633 106.594 293.424 107.712 293.186 108.82L294.536 109.164ZM295.899 97.0156C295.904 96.4319 295.9 95.8455 295.887 95.2561L294.507 95.2268C294.52 95.8022 294.524 96.3749 294.519 96.9449L295.899 97.0156ZM295.887 95.2565C295.871 94.494 295.835 93.7391 295.779 92.9918L294.403 93.0359C294.457 93.758 294.492 94.4882 294.507 95.2264L295.887 95.2565ZM293.274 81.8739C292.715 80.4447 292.067 79.0506 291.334 77.6911L290.125 78.3033C290.831 79.6117 291.454 80.9527 291.992 82.3269L293.274 81.8739ZM284.502 68.4077C283.974 67.8562 283.429 67.3119 282.867 66.7748L281.936 67.7501C282.482 68.2723 283.011 68.801 283.523 69.3362L284.502 68.4077ZM282.868 66.7751C282.385 66.3132 281.899 65.8556 281.412 65.4023L280.495 66.3917C280.977 66.8401 281.458 67.2928 281.935 67.7499L282.868 66.7751ZM273.845 58.87C272.802 58.0349 271.75 57.2175 270.688 56.4176L269.887 57.5041C270.937 58.2953 271.978 59.1038 273.009 59.9299L273.845 58.87ZM262.494 50.7075C261.373 49.9867 260.243 49.2835 259.104 48.5977L258.429 49.7692C259.555 50.4475 260.673 51.1431 261.782 51.8561L262.494 50.7075ZM250.382 43.7716C249.198 43.1714 248.005 42.5883 246.804 42.0223L246.26 43.2634C247.448 43.8236 248.628 44.4006 249.8 44.9945L250.382 43.7716ZM237.67 38.1027C236.438 37.6238 235.198 37.1613 233.95 36.7151L233.535 38.0097C234.77 38.4515 235.998 38.9095 237.218 39.3837L237.67 38.1027ZM224.517 33.6879C223.251 33.3267 221.979 32.9809 220.7 32.6505L220.408 33.9832C221.676 34.3107 222.937 34.6533 224.19 35.0112L224.517 33.6879ZM211.072 30.4739C210.427 30.3483 209.781 30.2264 209.134 30.108L208.942 31.4627C209.584 31.5801 210.225 31.701 210.864 31.8255L211.072 30.4739ZM209.133 30.108C208.488 29.9903 207.842 29.8838 207.195 29.7878L207.05 31.1502C207.681 31.2439 208.312 31.348 208.942 31.4628L209.133 30.108ZM197.455 29.0921C196.161 29.0914 194.866 29.1243 193.57 29.1876L193.697 30.5635C194.971 30.5012 196.243 30.4689 197.514 30.4696L197.455 29.0921ZM183.956 30.168C182.688 30.3586 181.421 30.5707 180.157 30.8015L180.462 32.1569C181.713 31.9285 182.965 31.7187 184.218 31.5304L183.956 30.168ZM170.778 32.8235C170.158 32.9751 169.538 33.1294 168.92 33.286L169.313 34.6221C169.928 34.4664 170.543 34.313 171.16 34.1624L170.778 32.8235ZM168.92 33.2861C168.379 33.4234 167.838 33.5611 167.296 33.6991L167.691 35.0347C168.232 34.8968 168.773 34.7593 169.313 34.6221L168.92 33.2861ZM159.187 35.7813C158.106 36.0592 157.025 36.3367 155.944 36.6132L156.34 37.9486C157.422 37.6719 158.503 37.3942 159.584 37.1163L159.187 35.7813ZM147.83 38.657C146.747 38.9243 145.663 39.1889 144.579 39.4502L144.956 40.7901C146.043 40.5281 147.129 40.2629 148.215 39.9951L147.83 38.657ZM136.428 41.3389C135.339 41.5799 134.248 41.816 133.157 42.0465L133.497 43.3948C134.593 43.1633 135.688 42.9263 136.781 42.6845L136.428 41.3389ZM124.944 43.6616C123.845 43.8604 122.745 44.0519 121.643 44.2357L121.927 45.5947C123.035 45.4099 124.141 45.2172 125.246 45.0174L124.944 43.6616ZM113.353 45.4569C112.799 45.5271 112.244 45.595 111.689 45.6605L111.908 47.0286C112.468 46.9627 113.026 46.8943 113.585 46.8236L113.353 45.4569ZM111.689 45.6604C111.156 45.7226 110.623 45.7836 110.089 45.8436L110.301 47.2126C110.837 47.1524 111.372 47.0911 111.907 47.0287L111.689 45.6604ZM102.071 46.6744C101.001 46.7773 99.9301 46.8776 98.8582 46.9761L99.0429 48.3478C100.116 48.2492 101.19 48.1487 102.262 48.0456L102.071 46.6744ZM90.8163 47.6881C89.748 47.7806 88.6658 47.8739 87.5972 47.9663L87.7747 49.3388C88.8521 49.2455 89.9161 49.1538 90.9938 49.0606L90.8163 47.6881ZM79.5481 48.6792C79.0114 48.7285 78.4749 48.7783 77.9386 48.8286L78.126 50.2002C78.6614 50.1499 79.197 50.1002 79.7328 50.051L79.5481 48.6792ZM77.938 48.8287C77.297 48.8894 76.6668 48.9572 76.0473 49.0319L76.2705 50.3996C76.8782 50.3263 77.4968 50.2598 78.1266 50.2001L77.938 48.8287ZM66.7573 50.9113C65.5078 51.2888 64.3158 51.7107 63.1786 52.1777L63.7499 53.455C64.8457 53.005 65.9974 52.5972 67.2084 52.2313L66.7573 50.9113ZM55.0676 57.0032C54.0965 57.8156 53.1874 58.6874 52.3359 59.6194L53.3737 60.5712C54.1866 59.6812 55.0541 58.8494 55.9803 58.0745L55.0676 57.0032ZM47.1082 67.4468C46.57 68.5507 46.0702 69.7037 45.6054 70.9063L46.8958 71.4495C47.3483 70.2789 47.8334 69.1601 48.3542 68.092L47.1082 67.4468ZM42.9232 79.938C42.7866 80.5432 42.6547 81.1576 42.5274 81.7811L43.8802 82.1113C44.0057 81.4965 44.1357 80.8912 44.2702 80.2953L42.9232 79.938ZM42.5274 81.7811C42.3958 82.4263 42.2793 83.072 42.1764 83.7183L43.5397 83.9909C43.6395 83.3631 43.7526 82.7366 43.8802 82.1112L42.5274 81.7811ZM41.4893 93.5317C41.49 94.8431 41.5182 96.1545 41.5626 97.4646L42.9419 97.4771C42.8978 96.1781 42.87 94.8825 42.8693 93.5901L41.4893 93.5317ZM42.0246 107.249C42.0525 107.899 42.0775 108.548 42.0983 109.197L43.4776 109.212C43.4567 108.558 43.4315 107.903 43.4034 107.249L42.0246 107.249Z" fill="black"/>
<path d="M69.6804 102.534L83.7161 132.587" stroke="black" stroke-width="1.89463"/>
<path d="M100.107 112.435L54.1121 126.734L38.0591 93.0075L83.915 78.7516L100.107 112.435Z" fill="black" stroke="black" stroke-width="1.89463"/>
<path d="M49.3926 96.5107L88.6529 108.532M78.7282 87.847L59.0606 117.731" stroke="white" stroke-width="1.89463"/>
<path d="M64.2339 152.745L66.2602 139.142C66.4696 137.736 67.1051 136.428 68.0809 135.395L76.6204 126.354L79.983 128.799L84.5445 122.944L94.686 141.147L88.4679 145.211L78.7618 156.49L57.465 220.741L41.7485 187.802L64.2339 152.745Z" fill="white"/>
<path d="M66.2602 139.142L67.1971 139.281L67.1971 139.281L66.2602 139.142ZM68.0809 135.395L68.7696 136.045L68.0809 135.395ZM76.6204 126.354L77.1776 125.587L76.5038 125.097L75.9317 125.703L76.6204 126.354ZM88.0791 135.638L88.8453 136.195L89.3633 135.482L88.6904 134.914L88.0791 135.638ZM84.5363 140.51L84.0663 141.332L84.8033 141.753L85.3024 141.067L84.5363 140.51ZM84.5445 122.944L85.3721 122.483L84.6761 121.234L83.7973 122.362L84.5445 122.944ZM94.686 141.147L95.2043 141.94L95.9432 141.457L95.5136 140.686L94.686 141.147ZM80.2622 138.068L80.7321 137.245L80.7321 137.245L80.2622 138.068ZM84.1456 147.601L83.2683 147.958L83.6707 148.946L84.604 148.43L84.1456 147.601ZM41.7485 187.802L40.9511 187.29L40.6665 187.734L40.8935 188.21L41.7485 187.802ZM57.465 220.741L56.61 221.149L57.6237 223.273L58.3642 221.039L57.465 220.741ZM65.1709 152.884L67.1971 139.281L65.3232 139.002L63.297 152.605L65.1709 152.884ZM68.7696 136.045L77.3091 127.004L75.9317 125.703L67.3923 134.744L68.7696 136.045ZM87.3129 135.08L83.7701 139.953L85.3024 141.067L88.8453 136.195L87.3129 135.08ZM76.0633 127.12L79.4258 129.565L80.5401 128.033L77.1776 125.587L76.0633 127.12ZM79.3717 129.523L87.4678 136.361L88.6904 134.914L80.5943 128.075L79.3717 129.523ZM80.7302 129.381L85.2918 123.526L83.7973 122.362L79.2357 128.217L80.7302 129.381ZM83.717 123.405L93.8585 141.608L95.5136 140.686L85.3721 122.483L83.717 123.405ZM85.0062 139.687L80.7321 137.245L79.7922 138.89L84.0663 141.332L85.0062 139.687ZM80.7321 137.245L77.2281 135.243L76.2882 136.888L79.7923 138.89L80.7321 137.245ZM85.0229 147.243L81.1395 137.71L79.3849 138.425L83.2683 147.958L85.0229 147.243ZM63.9974 153.662L78.5253 157.408L78.9983 155.573L64.4705 151.827L63.9974 153.662ZM94.1678 140.354L87.9496 144.418L88.9861 146.004L95.2043 141.94L94.1678 140.354ZM88.0094 144.382L83.6872 146.772L84.604 148.43L88.9263 146.04L88.0094 144.382ZM79.4799 157.108L89.1859 145.829L87.7498 144.593L78.0438 155.872L79.4799 157.108ZM63.4366 152.233L40.9511 187.29L42.5459 188.313L65.0313 153.256L63.4366 152.233ZM40.8935 188.21L56.61 221.149L58.32 220.333L42.6035 187.394L40.8935 188.21ZM58.3642 221.039L79.661 156.788L77.8626 156.192L56.5658 220.443L58.3642 221.039ZM67.1971 139.281C67.378 138.067 67.9268 136.938 68.7696 136.045L67.3923 134.744C66.2833 135.919 65.5611 137.405 65.3232 139.002L67.1971 139.281Z" fill="black"/>
<circle cx="165.139" cy="107.408" r="70.1296" transform="rotate(12.0727 165.139 107.408)" fill="white"/>
<circle cx="165.139" cy="106.953" r="69.7006" transform="rotate(12.0727 165.139 106.953)" stroke="black" stroke-width="1.7467"/>
<circle cx="165.139" cy="106.953" r="69.7006" transform="rotate(12.0727 165.139 106.953)" stroke="black" stroke-width="1.7467"/>
<circle cx="165.139" cy="106.953" r="69.7006" transform="rotate(12.0727 165.139 106.953)" stroke="black" stroke-width="1.7467"/>
<path d="M201.057 114.636C197.005 133.582 189.251 149.816 180.035 160.752C170.791 171.72 160.244 177.184 150.559 175.113C140.874 173.041 133.485 163.741 129.536 149.951C125.599 136.202 125.165 118.217 129.217 99.2709C133.269 80.3252 141.023 64.091 150.239 53.1552C159.483 42.1867 170.03 36.723 179.715 38.7946C189.401 40.8661 196.789 50.1658 200.738 63.956C204.675 77.7051 205.109 95.6905 201.057 114.636Z" stroke="black" stroke-width="1.7467"/>
<path d="M97.0625 92.3936L233.351 121.543" stroke="black" stroke-width="1.7467" stroke-linejoin="bevel"/>
<path d="M179.781 38.8242L150.631 175.113" stroke="black" stroke-width="1.7467" stroke-linejoin="bevel"/>
<path d="M224.127 69.9263L224.594 70.6647L224.127 69.9263ZM126.644 49.0762L127.371 48.5933L126.644 49.0762ZM223.661 69.188C191.302 89.6338 148.536 80.487 127.371 48.5933L125.916 49.5591C147.606 82.2439 191.432 91.6176 224.594 70.6647L223.661 69.188Z" fill="black"/>
<circle cx="165.139" cy="106.954" r="69.7006" transform="rotate(-167.927 165.139 106.954)" stroke="black" stroke-width="1.7467"/>
<circle cx="165.139" cy="106.953" r="69.7006" transform="rotate(12.0727 165.139 106.953)" stroke="black" stroke-width="1.7467"/>
<circle cx="165.139" cy="106.953" r="69.7006" transform="rotate(12.0727 165.139 106.953)" stroke="black" stroke-width="1.7467"/>
<circle cx="165.139" cy="106.953" r="69.7006" transform="rotate(12.0727 165.139 106.953)" stroke="black" stroke-width="1.7467"/>
<path d="M201.057 114.636C197.005 133.582 189.251 149.816 180.035 160.752C170.791 171.72 160.244 177.184 150.559 175.113C140.874 173.041 133.485 163.741 129.536 149.951C125.599 136.202 125.165 118.217 129.217 99.2709C133.269 80.3252 141.023 64.091 150.239 53.1552C159.483 42.1867 170.03 36.723 179.715 38.7946C189.401 40.8661 196.789 50.1658 200.738 63.956C204.675 77.7051 205.109 95.6905 201.057 114.636Z" stroke="black" stroke-width="1.7467"/>
<path d="M97.0625 92.3936L233.351 121.543" stroke="black" stroke-width="1.7467" stroke-linejoin="bevel"/>
<path d="M179.782 38.8252L150.632 175.114" stroke="black" stroke-width="1.7467" stroke-linejoin="bevel"/>
<path d="M224.128 69.9273L224.595 70.6656L224.128 69.9273ZM126.645 49.0771L127.372 48.5942L126.645 49.0771ZM223.662 69.189C191.302 89.6348 148.537 80.488 127.372 48.5942L125.917 49.5601C147.607 82.2449 191.433 91.6185 224.595 70.6656L223.662 69.189Z" fill="black"/>
<circle cx="165.139" cy="106.954" r="69.7006" transform="rotate(-167.927 165.139 106.954)" stroke="black" stroke-width="1.7467"/>
<path d="M106.149 143.981L105.682 143.243L106.149 143.981ZM203.633 164.831L202.905 165.314L203.633 164.831ZM106.615 144.719C138.975 124.273 181.74 133.42 202.905 165.314L204.36 164.348C182.67 131.663 138.845 122.29 105.682 143.243L106.615 144.719Z" fill="black"/>
<path d="M129.165 99.2598L165.206 106.968L159.303 134.568C148.619 132.283 137.47 132.445 126.848 135.002L126.8 134.384C125.902 122.623 126.698 110.794 129.165 99.2598Z" fill="#FDD32A"/>
<path d="M165.206 106.968L166.06 107.151L166.243 106.297L165.389 106.114L165.206 106.968ZM128.982 100.114L165.024 107.823L165.389 106.114L129.347 98.4057L128.982 100.114ZM164.352 106.786L158.449 134.385L160.157 134.751L166.06 107.151L164.352 106.786ZM127.718 134.935L127.671 134.317L125.93 134.45L125.977 135.068L127.718 134.935ZM127.671 134.317C126.779 122.64 127.569 110.895 130.019 99.4424L128.311 99.0771C125.826 110.693 125.024 122.606 125.93 134.45L127.671 134.317ZM159.486 133.714C148.673 131.401 137.391 131.566 126.643 134.153L127.052 135.851C137.548 133.325 148.566 133.164 159.121 135.422L159.486 133.714Z" fill="black"/>
<path d="M208.411 142.283C210.751 138.229 216.603 138.229 218.944 142.283L254.64 204.111C256.98 208.165 254.055 213.233 249.373 213.233H177.981C173.299 213.233 170.374 208.165 172.714 204.111L208.411 142.283Z" fill="#FDD32A" stroke="#FDD32A" stroke-width="1.92039"/>
<circle cx="213.678" cy="199.752" r="5.64202" transform="rotate(15 213.678 199.752)" fill="white" stroke="#FDD32A" stroke-width="1.92039"/>
<path d="M218.82 160.425C218.947 157.659 216.754 155.34 213.986 155.313C211.218 155.285 208.979 157.56 209.051 160.327L209.677 184.468C209.733 186.632 211.492 188.363 213.656 188.384C215.82 188.406 217.613 186.71 217.712 184.549L218.82 160.425Z" fill="white" stroke="#FDD32A" stroke-width="1.92039"/>
</svg>
