<svg width="328" height="273" viewBox="0 0 328 273" fill="none" xmlns="http://www.w3.org/2000/svg">
<path d="M39.801 118.541C42.6323 127.351 43.894 136.481 47.7662 145.102C53.7597 158.429 61.3668 171.077 64.5391 185.538C66.852 196.106 72.2113 206.335 74.7617 216.902C77.6531 228.963 89.928 235.863 104.85 242.561C126.965 252.487 144.866 251.133 166.439 247.316C185.219 243.993 204.256 241.762 219.002 233.466C231.466 226.436 240.06 216.381 245.677 203.358C254.013 184.04 265.588 166.425 276.899 148.639C285.485 135.162 292.543 120.665 292.178 103.822C291.947 92.8959 287.533 83.6326 279.382 75.843C258.808 56.1612 233.765 44.4368 206.018 39.3659C192.834 36.9629 179.215 39.21 166.097 42.5346C147.185 47.3327 128.313 52.6223 108.779 54.9251C97.6134 56.2275 86.2683 57.0383 75.013 58.0949C53.1141 60.1705 44.2907 70.4144 40.1845 90.5267C38.3524 99.5054 39.4773 108.674 39.7686 117.785" fill="#FFF2BC"/>
<path d="M259.285 78.7601C242.728 70.766 224.262 67.4838 207.156 60.9827C197.347 57.2672 187.571 53.1884 177.36 51.0793C162.11 47.9168 147.206 51.7204 135.296 61.3502C113.371 79.0138 94.1302 98.2747 94.2002 128.283C94.2403 150.983 92.8538 173.705 96.8643 196.127C98.5918 205.758 101.508 215.032 108.092 222.867C118.128 234.78 132.142 238.617 147.369 237.508C171.749 235.737 192.775 225.54 209.207 208.444C221.888 195.237 231.168 179.487 240.585 164.103C249.104 150.127 256.638 135.628 264.747 121.439C268.295 115.205 270.686 108.572 271.876 101.791C273.614 91.9036 266.736 85.5188 259.912 79.4197" fill="#FDE278"/>
<path d="M250.968 72.2549C235.939 65.5568 219.266 63.2305 203.766 57.9157C194.879 54.8793 186.015 51.51 176.791 49.9551C163.015 47.6213 149.661 51.6355 139.094 60.8609C119.64 77.7856 102.627 96.0713 103.166 123.469C103.562 144.195 102.674 164.992 106.639 185.32C108.347 194.052 111.119 202.413 117.168 209.328C126.39 219.841 139.065 222.836 152.752 221.27C174.668 218.768 193.431 208.693 207.95 192.487C219.154 179.967 227.258 165.249 235.489 150.86C242.935 137.789 249.487 124.276 256.56 111.026C259.655 105.205 261.702 99.0618 262.665 92.827C264.073 83.7357 257.781 78.1555 251.542 72.8343" stroke="black" stroke-width="1.37879" stroke-miterlimit="10" stroke-linecap="round" stroke-linejoin="round" stroke-dasharray="3.68 9.19"/>
<path d="M43.4764 109.777C43.3586 109.41 42.9693 109.196 42.6069 109.298C42.2445 109.399 42.0461 109.779 42.1639 110.146L43.4764 109.777ZM50.7854 136.522L50.1578 136.781L50.1579 136.781L50.7854 136.522ZM67.5583 176.958L68.2322 176.839L68.2321 176.839L67.5583 176.958ZM77.7809 208.322L78.4516 208.189L78.4513 208.188L77.7809 208.322ZM107.869 233.981L107.609 234.607L107.869 233.981ZM169.458 238.736L169.309 238.058L169.458 238.736ZM222.021 224.886L222.379 225.49L222.38 225.489L222.021 224.886ZM248.696 194.778L248.06 194.483L248.06 194.483L248.696 194.778ZM279.918 140.059L279.331 139.672L279.331 139.672L279.918 140.059ZM295.197 95.2419L294.507 95.2269L294.507 95.2273L295.197 95.2419ZM282.401 67.263L281.935 67.7503L281.936 67.7506L282.401 67.263ZM209.038 30.7859L209.134 30.1085L209.133 30.1085L209.038 30.7859ZM169.117 33.9546L168.92 33.2865L168.92 33.2866L169.117 33.9546ZM111.798 46.3451L111.907 47.0292L111.908 47.0291L111.798 46.3451ZM78.0322 49.5149L77.9384 48.8291L77.9378 48.8292L78.0322 49.5149ZM43.2037 81.9467L42.5273 81.7815L42.5273 81.7816L43.2037 81.9467ZM42.0981 109.197C42.1103 109.578 42.4289 109.889 42.8098 109.894C43.1907 109.898 43.4896 109.593 43.4775 109.213L42.0981 109.197ZM42.7443 112.026C42.8538 112.394 43.2385 112.618 43.6035 112.524C43.9685 112.43 44.1757 112.056 44.0662 111.687L42.7443 112.026ZM46.6011 121.289C46.5071 120.916 46.1316 120.678 45.7622 120.756C45.3929 120.833 45.1697 121.198 45.2637 121.571L46.6011 121.289ZM46.2614 125.415C46.3616 125.786 46.7409 126.019 47.1086 125.935C47.4763 125.85 47.6931 125.481 47.593 125.11L46.2614 125.415ZM50.6418 134.456C50.4967 134.098 50.0934 133.913 49.741 134.043C49.3886 134.173 49.2206 134.568 49.3657 134.925L50.6418 134.456ZM51.0293 138.691C51.1915 139.042 51.6025 139.207 51.9474 139.06C52.2922 138.913 52.4403 138.51 52.2781 138.159L51.0293 138.691ZM56.8052 147.579C56.6354 147.231 56.2212 147.075 55.88 147.23C55.5388 147.384 55.3999 147.791 55.5697 148.139L56.8052 147.579ZM57.3981 151.901C57.5659 152.25 57.9793 152.408 58.3215 152.256C58.6636 152.103 58.8049 151.697 58.6371 151.348L57.3981 151.901ZM62.9949 160.896C62.8449 160.541 62.4393 160.361 62.089 160.496C61.7387 160.63 61.5763 161.028 61.7262 161.384L62.9949 160.896ZM63.2764 165.237C63.4139 165.597 63.8135 165.791 64.169 165.669C64.5244 165.547 64.701 165.156 64.5634 164.795L63.2764 165.237ZM67.7525 174.796C67.6593 174.423 67.2842 174.184 66.9147 174.261C66.5452 174.338 66.3211 174.702 66.4143 175.075L67.7525 174.796ZM67.2437 178.621C67.3354 178.994 67.7096 179.235 68.0795 179.159C68.4494 179.084 68.6749 178.72 68.5831 178.347L67.2437 178.621ZM70.8211 185.806C70.696 185.442 70.3028 185.235 69.9428 185.345C69.5828 185.454 69.3924 185.838 69.5175 186.202L70.8211 185.806ZM70.5732 189.181C70.705 189.543 71.1017 189.743 71.4593 189.627C71.8169 189.51 71.9999 189.123 71.8681 188.76L70.5732 189.181ZM74.6111 196.136C74.4776 195.774 74.08 195.576 73.7231 195.694C73.3661 195.812 73.185 196.201 73.3185 196.563L74.6111 196.136ZM74.3859 199.513C74.5141 199.876 74.9089 200.08 75.2678 199.967C75.6267 199.855 75.8137 199.469 75.6855 199.106L74.3859 199.513ZM78.0612 206.652C77.9623 206.281 77.5837 206.047 77.2157 206.13C76.8477 206.213 76.6295 206.581 76.7284 206.952L78.0612 206.652ZM77.6605 210.376C77.7827 210.741 78.1745 210.951 78.5354 210.845C78.8964 210.738 79.0899 210.356 78.9676 209.991L77.6605 210.376ZM83.7554 218.066C83.4973 217.776 83.0607 217.739 82.7804 217.985C82.5001 218.23 82.4822 218.665 82.7403 218.955L83.7554 218.066ZM85.5729 221.776C85.8635 222.034 86.2989 222.017 86.5455 221.738C86.7921 221.459 86.7564 221.023 86.4658 220.764L85.5729 221.776ZM94.2882 226.37C93.9552 226.171 93.535 226.272 93.3497 226.596C93.1645 226.921 93.2842 227.345 93.6172 227.544L94.2882 226.37ZM97.043 229.483C97.3843 229.667 97.7984 229.546 97.968 229.213C98.1376 228.88 97.9985 228.461 97.6572 228.277L97.043 229.483ZM106.358 232.553C106.006 232.392 105.603 232.541 105.456 232.885C105.31 233.23 105.477 233.64 105.829 233.801L106.358 232.553ZM109.29 235.344C109.646 235.496 110.045 235.336 110.183 234.987C110.32 234.639 110.143 234.233 109.787 234.081L109.29 235.344ZM118.228 237.213C117.86 237.098 117.481 237.298 117.381 237.66C117.281 238.023 117.498 238.41 117.866 238.526L118.228 237.213ZM121.377 239.545C121.749 239.644 122.118 239.427 122.202 239.06C122.285 238.692 122.051 238.314 121.679 238.215L121.377 239.545ZM130.441 240.029C130.062 239.972 129.722 240.232 129.682 240.608C129.642 240.984 129.917 241.335 130.296 241.391L130.441 240.029ZM133.9 241.842C134.28 241.881 134.607 241.605 134.63 241.227C134.652 240.849 134.362 240.51 133.982 240.471L133.9 241.842ZM142.869 240.904C142.488 240.905 142.193 241.214 142.21 241.594C142.227 241.975 142.55 242.283 142.931 242.282L142.869 240.904ZM146.534 242.208C146.914 242.194 147.196 241.874 147.166 241.494C147.135 241.114 146.802 240.817 146.422 240.832L146.534 242.208ZM155.27 240.152C154.893 240.194 154.635 240.535 154.693 240.913C154.752 241.291 155.104 241.563 155.481 241.521L155.27 240.152ZM159.032 241.085C159.407 241.035 159.657 240.689 159.591 240.312C159.525 239.934 159.167 239.669 158.791 239.72L159.032 241.085ZM167.56 238.363C167.187 238.427 166.95 238.783 167.03 239.158C167.111 239.533 167.478 239.785 167.85 239.721L167.56 238.363ZM171.532 239.077C171.904 239.013 172.141 238.656 172.06 238.282C171.979 237.907 171.612 237.655 171.24 237.72L171.532 239.077ZM180.892 236.083C180.519 236.147 180.282 236.502 180.361 236.877C180.441 237.252 180.807 237.505 181.18 237.442L180.892 236.083ZM185.041 236.776C185.413 236.71 185.649 236.354 185.568 235.979C185.486 235.604 185.118 235.353 184.746 235.419L185.041 236.776ZM194.332 233.598C193.963 233.675 193.739 234.039 193.832 234.412C193.926 234.784 194.301 235.024 194.671 234.946L194.332 233.598ZM198.501 234.104C198.868 234.019 199.084 233.65 198.983 233.279C198.882 232.908 198.502 232.677 198.135 232.762L198.501 234.104ZM207.501 230.244C207.142 230.357 206.955 230.743 207.083 231.106C207.211 231.469 207.606 231.673 207.965 231.56L207.501 230.244ZM211.68 230.312C212.033 230.185 212.204 229.791 212.062 229.433C211.919 229.074 211.517 228.887 211.163 229.014L211.68 230.312ZM219.979 225.194C219.647 225.367 219.53 225.781 219.718 226.12C219.905 226.459 220.326 226.594 220.658 226.421L219.979 225.194ZM224.085 224.494C224.405 224.301 224.496 223.879 224.289 223.551C224.082 223.223 223.655 223.114 223.335 223.307L224.085 224.494ZM231.183 217.702C230.898 217.942 230.872 218.376 231.125 218.671C231.378 218.966 231.814 219.011 232.099 218.771L231.183 217.702ZM235.027 216.134C235.295 215.875 235.293 215.439 235.023 215.16C234.752 214.881 234.315 214.864 234.047 215.122L235.027 216.134ZM240.405 207.895C240.183 208.194 240.253 208.627 240.563 208.862C240.872 209.097 241.303 209.045 241.526 208.746L240.405 207.895ZM243.776 205.511C243.98 205.198 243.883 204.769 243.561 204.552C243.239 204.336 242.813 204.414 242.609 204.726L243.776 205.511ZM247.268 196.256C247.111 196.596 247.266 197.01 247.613 197.181C247.96 197.353 248.369 197.216 248.526 196.877L247.268 196.256ZM250.053 193.424C250.205 193.082 250.044 192.67 249.694 192.503C249.345 192.337 248.938 192.48 248.787 192.822L250.053 193.424ZM252.643 184.631C252.477 184.965 252.62 185.383 252.962 185.564C253.305 185.745 253.718 185.62 253.885 185.285L252.643 184.631ZM255.512 182.077C255.684 181.745 255.547 181.325 255.207 181.14C254.867 180.954 254.452 181.072 254.28 181.404L255.512 182.077ZM258.57 173.452C258.387 173.778 258.511 174.201 258.845 174.398C259.18 174.594 259.599 174.489 259.781 174.163L258.57 173.452ZM261.558 171.036C261.744 170.712 261.625 170.288 261.293 170.088C260.96 169.888 260.54 169.988 260.354 170.312L261.558 171.036ZM264.946 162.547C264.753 162.866 264.862 163.293 265.191 163.5C265.519 163.707 265.942 163.616 266.135 163.296L264.946 162.547ZM268.011 160.226C268.206 159.909 268.1 159.482 267.773 159.272C267.446 159.063 267.022 159.152 266.826 159.469L268.011 160.226ZM271.599 151.826C271.4 152.142 271.502 152.57 271.826 152.782C272.151 152.995 272.576 152.912 272.775 152.596L271.599 151.826ZM274.702 149.556C274.902 149.241 274.801 148.813 274.477 148.6C274.153 148.386 273.728 148.469 273.527 148.783L274.702 149.556ZM278.364 141.191C278.164 141.505 278.264 141.934 278.588 142.147C278.913 142.361 279.338 142.279 279.538 141.965L278.364 141.191ZM281.418 138.998C281.616 138.682 281.512 138.254 281.187 138.043C280.861 137.832 280.437 137.917 280.239 138.234L281.418 138.998ZM284.549 130.912C284.37 131.239 284.497 131.662 284.833 131.855C285.169 132.049 285.587 131.94 285.767 131.612L284.549 130.912ZM287.375 128.576C287.545 128.243 287.406 127.824 287.065 127.64C286.724 127.456 286.31 127.577 286.14 127.909L287.375 128.576ZM289.669 120.186C289.53 120.533 289.704 120.94 290.059 121.094C290.414 121.248 290.814 121.091 290.954 120.743L289.669 120.186ZM292.169 117.507C292.293 117.153 292.102 116.754 291.742 116.614C291.381 116.475 290.989 116.649 290.865 117.003L292.169 117.507ZM293.186 108.82C293.106 109.189 293.344 109.564 293.717 109.659C294.09 109.754 294.456 109.533 294.535 109.164L293.186 108.82ZM295.174 105.737C295.233 105.364 294.975 105.001 294.598 104.927C294.222 104.852 293.869 105.094 293.81 105.467L295.174 105.737ZM294.519 96.9454C294.515 97.3252 294.822 97.6491 295.203 97.6686C295.584 97.6881 295.895 97.396 295.899 97.0161L294.519 96.9454ZM295.779 92.9923C295.75 92.6121 295.419 92.3137 295.039 92.3259C294.659 92.3381 294.374 92.6561 294.402 93.0363L295.779 92.9923ZM291.991 82.3273C292.132 82.6866 292.533 82.8764 292.887 82.7514C293.242 82.6263 293.415 82.2337 293.274 81.8744L291.991 82.3273ZM291.334 77.6916C291.15 77.3508 290.73 77.2116 290.396 77.3807C290.063 77.5498 289.941 77.9631 290.125 78.3038L291.334 77.6916ZM283.523 69.3367C283.792 69.6177 284.228 69.6376 284.499 69.3813C284.769 69.1249 284.77 68.6892 284.501 68.4082L283.523 69.3367ZM281.412 65.4028C281.127 65.1381 280.691 65.145 280.437 65.4183C280.184 65.6915 280.21 66.1275 280.495 66.3922L281.412 65.4028ZM273.009 59.9304C273.313 60.1733 273.745 60.1331 273.976 59.8404C274.207 59.5478 274.148 59.1135 273.844 58.8705L273.009 59.9304ZM270.688 56.4181C270.377 56.1842 269.947 56.2379 269.725 56.5379C269.504 56.838 269.577 57.2708 269.887 57.5046L270.688 56.4181ZM261.782 51.8566C262.108 52.0666 262.532 51.9797 262.729 51.6625C262.925 51.3453 262.82 50.9179 262.493 50.708L261.782 51.8566ZM259.104 48.5982C258.771 48.3981 258.351 48.4981 258.164 48.8215C257.978 49.145 258.096 49.5695 258.429 49.7696L259.104 48.5982ZM249.8 44.995C250.146 45.1701 250.556 45.0383 250.717 44.7006C250.878 44.3629 250.728 43.9472 250.382 43.7721L249.8 44.995ZM246.804 42.0228C246.454 41.8577 246.048 42.0018 245.898 42.3445C245.747 42.6872 245.909 43.0988 246.26 43.2639L246.804 42.0228ZM237.218 39.3842C237.578 39.5241 237.971 39.3508 238.096 38.997C238.221 38.6433 238.03 38.2431 237.67 38.1032L237.218 39.3842ZM233.95 36.7156C233.587 36.5856 233.199 36.77 233.084 37.1275C232.97 37.485 233.171 37.8802 233.535 38.0102L233.95 36.7156ZM224.19 35.0117C224.561 35.1174 224.934 34.9069 225.024 34.5414C225.114 34.176 224.887 33.7941 224.517 33.6884L224.19 35.0117ZM220.7 32.651C220.327 32.5548 219.96 32.7751 219.88 33.1431C219.799 33.5111 220.036 33.8875 220.408 33.9837L220.7 32.651ZM210.864 31.826C211.241 31.8994 211.592 31.6563 211.65 31.2831C211.707 30.9098 211.448 30.5478 211.072 30.4744L210.864 31.826ZM207.195 29.7883C206.816 29.732 206.476 29.9915 206.436 30.3677C206.396 30.7439 206.67 31.0944 207.049 31.1507L207.195 29.7883ZM197.514 30.4701C197.894 30.4703 198.19 30.1621 198.174 29.7817C198.158 29.4013 197.836 29.0928 197.455 29.0926L197.514 30.4701ZM193.57 29.1881C193.191 29.2067 192.911 29.5297 192.946 29.9096C192.981 30.2896 193.317 30.5825 193.697 30.564L193.57 29.1881ZM184.218 31.5309C184.592 31.4746 184.837 31.1241 184.764 30.7479C184.692 30.3717 184.33 30.1123 183.956 30.1685L184.218 31.5309ZM180.157 30.802C179.786 30.8699 179.552 31.2283 179.636 31.6026C179.72 31.9769 180.09 32.2253 180.462 32.1574L180.157 30.802ZM171.16 34.1629C171.526 34.0734 171.737 33.7012 171.632 33.3314C171.527 32.9617 171.144 32.7345 170.778 32.824L171.16 34.1629ZM167.296 33.6996C166.931 33.7928 166.724 34.1672 166.833 34.5361C166.942 34.9049 167.326 35.1284 167.691 35.0352L167.296 33.6996ZM159.584 37.1167C159.949 37.0229 160.156 36.648 160.046 36.2794C159.936 35.9107 159.551 35.688 159.186 35.7818L159.584 37.1167ZM155.944 36.6136C155.579 36.707 155.371 37.0816 155.48 37.4504C155.59 37.8191 155.974 38.0424 156.339 37.949L155.944 36.6136ZM148.214 39.9956C148.58 39.9053 148.791 39.5326 148.685 39.1631C148.578 38.7935 148.196 38.5672 147.83 38.6575L148.214 39.9956ZM144.578 39.4507C144.212 39.539 143.999 39.9106 144.104 40.2806C144.208 40.6506 144.59 40.8789 144.956 40.7906L144.578 39.4507ZM136.781 42.685C137.15 42.6035 137.369 42.2362 137.272 41.8646C137.174 41.4931 136.796 41.2579 136.428 41.3394L136.781 42.685ZM133.156 42.047C132.787 42.125 132.564 42.49 132.658 42.8624C132.752 43.2347 133.128 43.4733 133.497 43.3953L133.156 42.047ZM125.246 45.0179C125.617 44.9506 125.851 44.5926 125.768 44.2182C125.684 43.8438 125.315 43.5948 124.943 43.6621L125.246 45.0179ZM121.643 44.2362C121.27 44.2984 121.032 44.6531 121.11 45.0283C121.188 45.4036 121.554 45.6574 121.927 45.5952L121.643 44.2362ZM113.585 46.8241C113.96 46.7765 114.213 46.4319 114.149 46.0545C114.085 45.6771 113.729 45.4098 113.353 45.4574L113.585 46.8241ZM110.089 45.8441C109.713 45.8865 109.455 46.2272 109.513 46.6053C109.572 46.9833 109.925 47.2554 110.301 47.2131L110.089 45.8441ZM102.262 48.0461C102.639 48.0098 102.902 47.6734 102.85 47.2948C102.797 46.9161 102.449 46.6386 102.071 46.6749L102.262 48.0461ZM98.8581 46.9766C98.4804 47.0112 98.2156 47.3464 98.2666 47.7253C98.3176 48.1041 98.6651 48.383 99.0428 48.3483L98.8581 46.9766ZM90.9937 49.0611C91.3716 49.0284 91.6382 48.6946 91.5892 48.3156C91.5402 47.9367 91.1941 47.6559 90.8161 47.6886L90.9937 49.0611ZM87.5971 47.9668C87.2191 47.9995 86.9525 48.3333 87.0015 48.7122C87.0506 49.0912 87.3967 49.3719 87.7746 49.3392L87.5971 47.9668ZM79.7327 50.0515C80.1104 50.0168 80.3752 49.6816 80.3241 49.3027C80.2731 48.9239 79.9256 48.645 79.5479 48.6797L79.7327 50.0515ZM76.0471 49.0324C75.6711 49.0778 75.4162 49.4207 75.4778 49.7984C75.5395 50.1761 75.8943 50.4454 76.2704 50.4001L76.0471 49.0324ZM67.2083 52.2317C67.5685 52.1229 67.7594 51.7392 67.6348 51.3747C67.5102 51.0102 67.1173 50.803 66.7571 50.9118L67.2083 52.2317ZM63.1784 52.1782C62.8315 52.3207 62.6782 52.7221 62.836 53.0748C62.9938 53.4275 63.4029 53.5979 63.7498 53.4555L63.1784 52.1782ZM55.9802 58.075C56.266 57.8359 56.2934 57.4022 56.0414 57.1064C55.7893 56.8105 55.3533 56.7645 55.0674 57.0036L55.9802 58.075ZM52.3358 59.6199C52.0846 59.8949 52.1132 60.3309 52.3998 60.5937C52.6863 60.8565 53.1223 60.8467 53.3735 60.5717L52.3358 59.6199ZM48.354 68.0925C48.5179 67.7564 48.3718 67.3395 48.0278 67.1613C47.6837 66.9832 47.2719 67.1112 47.1081 67.4473L48.354 68.0925ZM45.6053 70.9068C45.4702 71.2563 45.6495 71.6613 46.0058 71.8113C46.3622 71.9613 46.7606 71.7996 46.8957 71.45L45.6053 70.9068ZM44.2701 80.2958C44.353 79.9284 44.1187 79.5506 43.7468 79.452C43.3748 79.3533 43.0061 79.5711 42.9231 79.9385L44.2701 80.2958ZM42.1763 83.7188C42.117 84.0916 42.374 84.455 42.7505 84.5302C43.1269 84.6055 43.4802 84.3643 43.5395 83.9914L42.1763 83.7188ZM42.8692 93.5906C42.869 93.2106 42.5599 92.8894 42.1788 92.8733C41.7977 92.8572 41.4889 93.1522 41.4891 93.5322L42.8692 93.5906ZM41.5625 97.4651C41.5754 97.8455 41.8946 98.1567 42.2755 98.1601C42.6563 98.1636 42.9546 97.858 42.9417 97.4776L41.5625 97.4651ZM43.4033 107.249C43.387 106.869 43.0651 106.561 42.6844 106.561C42.3036 106.561 42.0082 106.869 42.0245 107.249L43.4033 107.249ZM42.1639 110.146C42.3647 110.77 42.5577 111.397 42.7443 112.026L44.0662 111.687C43.8768 111.049 43.6808 110.412 43.4764 109.777L42.1639 110.146ZM45.2637 121.571C45.5869 122.851 45.9155 124.134 46.2614 125.415L47.593 125.11C47.25 123.841 46.9236 122.567 46.6011 121.289L45.2637 121.571ZM49.3657 134.925C49.6174 135.546 49.8809 136.164 50.1578 136.781L51.4131 136.263C51.1438 135.663 50.8872 135.061 50.6418 134.456L49.3657 134.925ZM50.1579 136.781C50.445 137.419 50.7357 138.056 51.0293 138.691L52.2781 138.159C51.9864 137.528 51.6978 136.896 51.4129 136.262L50.1579 136.781ZM55.5697 148.139C56.1825 149.393 56.7935 150.646 57.3981 151.901L58.6371 151.348C58.0307 150.089 57.4182 148.833 56.8052 147.579L55.5697 148.139ZM61.7262 161.384C62.2645 162.661 62.7829 163.944 63.2764 165.237L64.5634 164.795C64.0634 163.485 63.5387 162.187 62.9949 160.896L61.7262 161.384ZM66.4143 175.075C66.5803 175.739 66.7373 176.407 66.8845 177.078L68.2321 176.839C68.0818 176.154 67.9217 175.473 67.7525 174.796L66.4143 175.075ZM66.8845 177.078C66.9973 177.593 67.1173 178.108 67.2437 178.621L68.5831 178.347C68.4595 177.845 68.3423 177.342 68.2322 176.839L66.8845 177.078ZM69.5175 186.202C69.8591 187.197 70.2128 188.19 70.5732 189.181L71.8681 188.76C71.5098 187.776 71.1592 186.791 70.8211 185.806L69.5175 186.202ZM73.3185 196.563C73.6815 197.546 74.0389 198.529 74.3859 199.513L75.6855 199.106C75.3355 198.114 74.9757 197.124 74.6111 196.136L73.3185 196.563ZM76.7284 206.952C76.8618 207.453 76.9893 207.954 77.1104 208.456L78.4513 208.188C78.3275 207.675 78.1972 207.163 78.0612 206.652L76.7284 206.952ZM77.1101 208.455C77.267 209.11 77.4508 209.75 77.6605 210.376L78.9676 209.991C78.7712 209.404 78.5989 208.804 78.4516 208.189L77.1101 208.455ZM82.7403 218.955C83.6107 219.935 84.5577 220.873 85.5729 221.776L86.4658 220.764C85.4893 219.896 84.5837 218.999 83.7554 218.066L82.7403 218.955ZM93.6172 227.544C94.7233 228.205 95.8669 228.85 97.043 229.483L97.6572 228.277C96.4976 227.653 95.3732 227.018 94.2882 226.37L93.6172 227.544ZM105.829 233.801C106.418 234.07 107.011 234.339 107.609 234.607L108.129 233.355C107.534 233.088 106.944 232.82 106.358 232.553L105.829 233.801ZM107.609 234.607C108.172 234.86 108.732 235.105 109.29 235.344L109.787 234.081C109.237 233.846 108.684 233.604 108.129 233.355L107.609 234.607ZM117.866 238.526C119.045 238.896 120.215 239.235 121.377 239.545L121.679 238.215C120.537 237.911 119.387 237.577 118.228 237.213L117.866 238.526ZM130.296 241.391C131.502 241.57 132.702 241.719 133.9 241.842L133.982 240.471C132.805 240.351 131.625 240.204 130.441 240.029L130.296 241.391ZM142.931 242.282C144.131 242.279 145.331 242.254 146.534 242.208L146.422 240.832C145.235 240.877 144.051 240.902 142.869 240.904L142.931 242.282ZM155.481 241.521C156.658 241.39 157.841 241.244 159.032 241.085L158.791 239.72C157.61 239.877 156.436 240.022 155.27 240.152L155.481 241.521ZM167.85 239.721C168.433 239.621 169.018 239.518 169.606 239.414L169.309 238.058C168.723 238.161 168.14 238.263 167.56 238.363L167.85 239.721ZM169.606 239.414C170.248 239.301 170.89 239.189 171.532 239.077L171.24 237.72C170.596 237.831 169.953 237.944 169.309 238.058L169.606 239.414ZM181.18 237.442C182.47 237.222 183.758 237.001 185.041 236.776L184.746 235.419C183.466 235.644 182.181 235.864 180.892 236.083L181.18 237.442ZM194.671 234.946C195.956 234.677 197.234 234.398 198.501 234.104L198.135 232.762C196.878 233.053 195.61 233.33 194.332 233.598L194.671 234.946ZM207.965 231.56C209.219 231.167 210.458 230.752 211.68 230.312L211.163 229.014C209.96 229.447 208.739 229.856 207.501 230.244L207.965 231.56ZM220.658 226.421C221.238 226.119 221.811 225.809 222.379 225.49L221.663 224.283C221.108 224.595 220.547 224.898 219.979 225.194L220.658 226.421ZM222.38 225.489C222.956 225.164 223.525 224.832 224.085 224.494L223.335 223.307C222.785 223.639 222.228 223.964 221.662 224.283L222.38 225.489ZM232.099 218.771C233.109 217.92 234.084 217.041 235.027 216.134L234.047 215.122C233.125 216.01 232.171 216.87 231.183 217.702L232.099 218.771ZM241.526 208.746C242.307 207.696 243.057 206.617 243.776 205.511L242.609 204.726C241.904 205.81 241.17 206.866 240.405 207.895L241.526 208.746ZM248.526 196.877C248.801 196.282 249.07 195.681 249.332 195.073L248.06 194.483C247.803 195.08 247.539 195.671 247.268 196.256L248.526 196.877ZM249.332 195.073C249.569 194.522 249.81 193.972 250.053 193.424L248.787 192.822C248.542 193.374 248.3 193.928 248.06 194.483L249.332 195.073ZM253.885 185.285C254.419 184.211 254.961 183.142 255.512 182.077L254.28 181.404C253.726 182.475 253.18 183.551 252.643 184.631L253.885 185.285ZM259.781 174.163C260.367 173.118 260.96 172.076 261.558 171.036L260.354 170.312C259.753 171.356 259.159 172.402 258.57 173.452L259.781 174.163ZM266.135 163.296C266.757 162.271 267.382 161.248 268.011 160.226L266.826 159.469C266.196 160.493 265.569 161.519 264.946 162.547L266.135 163.296ZM272.775 152.596C273.416 151.582 274.058 150.569 274.702 149.556L273.527 148.783C272.883 149.797 272.24 150.811 271.599 151.826L272.775 152.596ZM279.538 141.965C279.861 141.458 280.183 140.952 280.505 140.445L279.331 139.672C279.009 140.178 278.687 140.685 278.364 141.191L279.538 141.965ZM280.505 140.446C280.811 139.965 281.116 139.482 281.418 138.998L280.239 138.234C279.938 138.714 279.636 139.194 279.331 139.672L280.505 140.446ZM285.767 131.612C286.318 130.608 286.855 129.596 287.375 128.576L286.14 127.909C285.626 128.917 285.095 129.917 284.549 130.912L285.767 131.612ZM290.954 120.743C291.382 119.674 291.788 118.595 292.169 117.507L290.865 117.003C290.49 118.072 290.09 119.133 289.669 120.186L290.954 120.743ZM294.535 109.164C294.779 108.033 294.992 106.891 295.174 105.737L293.81 105.467C293.633 106.595 293.424 107.712 293.186 108.82L294.535 109.164ZM295.899 97.0161C295.904 96.4324 295.9 95.8459 295.887 95.2566L294.507 95.2273C294.52 95.8027 294.523 96.3754 294.519 96.9454L295.899 97.0161ZM295.887 95.257C295.871 94.4945 295.835 93.7396 295.779 92.9923L294.402 93.0363C294.457 93.7585 294.492 94.4887 294.507 95.2269L295.887 95.257ZM293.274 81.8744C292.715 80.4452 292.067 79.0511 291.334 77.6916L290.125 78.3038C290.831 79.6122 291.454 80.9532 291.991 82.3273L293.274 81.8744ZM284.501 68.4082C283.974 67.8567 283.429 67.3124 282.867 66.7753L281.936 67.7506C282.482 68.2728 283.011 68.8015 283.523 69.3367L284.501 68.4082ZM282.868 66.7756C282.385 66.3136 281.899 65.856 281.412 65.4028L280.495 66.3922C280.977 66.8406 281.457 67.2933 281.935 67.7503L282.868 66.7756ZM273.844 58.8705C272.802 58.0354 271.749 57.218 270.688 56.4181L269.887 57.5046C270.937 58.2958 271.978 59.1043 273.009 59.9304L273.844 58.8705ZM262.493 50.708C261.373 49.9871 260.243 49.2839 259.104 48.5982L258.429 49.7696C259.555 50.448 260.673 51.1436 261.782 51.8566L262.493 50.708ZM250.382 43.7721C249.198 43.1719 248.005 42.5888 246.804 42.0228L246.26 43.2639C247.448 43.8241 248.628 44.401 249.8 44.995L250.382 43.7721ZM237.67 38.1032C236.438 37.6243 235.197 37.1618 233.95 36.7156L233.535 38.0102C234.77 38.452 235.998 38.91 237.218 39.3842L237.67 38.1032ZM224.517 33.6884C223.251 33.3272 221.979 32.9814 220.7 32.651L220.408 33.9837C221.676 34.3112 222.936 34.6538 224.19 35.0117L224.517 33.6884ZM211.072 30.4744C210.427 30.3488 209.781 30.2269 209.134 30.1085L208.942 31.4632C209.584 31.5806 210.225 31.7015 210.864 31.826L211.072 30.4744ZM209.133 30.1085C208.488 29.9908 207.842 29.8842 207.195 29.7883L207.049 31.1507C207.681 31.2444 208.312 31.3485 208.942 31.4633L209.133 30.1085ZM197.455 29.0926C196.161 29.0919 194.866 29.1248 193.57 29.1881L193.697 30.564C194.971 30.5017 196.243 30.4694 197.514 30.4701L197.455 29.0926ZM183.956 30.1685C182.687 30.3591 181.421 30.5712 180.157 30.802L180.462 32.1574C181.712 31.929 182.965 31.7192 184.218 31.5309L183.956 30.1685ZM170.778 32.824C170.157 32.9756 169.538 33.1299 168.92 33.2865L169.313 34.6226C169.928 34.4669 170.543 34.3135 171.16 34.1629L170.778 32.824ZM168.92 33.2866C168.379 33.4239 167.837 33.5616 167.296 33.6996L167.691 35.0352C168.232 34.8973 168.773 34.7598 169.313 34.6226L168.92 33.2866ZM159.186 35.7818C158.106 36.0597 157.025 36.3372 155.944 36.6136L156.339 37.949C157.421 37.6724 158.503 37.3947 159.584 37.1167L159.186 35.7818ZM147.83 38.6575C146.747 38.9248 145.663 39.1894 144.578 39.4507L144.956 40.7906C146.043 40.5286 147.129 40.2634 148.214 39.9956L147.83 38.6575ZM136.428 41.3394C135.339 41.5804 134.248 41.8165 133.156 42.047L133.497 43.3953C134.593 43.1638 135.688 42.9268 136.781 42.685L136.428 41.3394ZM124.943 43.6621C123.845 43.8608 122.745 44.0524 121.643 44.2362L121.927 45.5952C123.035 45.4104 124.141 45.2177 125.246 45.0179L124.943 43.6621ZM113.353 45.4574C112.799 45.5276 112.244 45.5955 111.689 45.661L111.908 47.0291C112.467 46.9632 113.026 46.8948 113.585 46.8241L113.353 45.4574ZM111.689 45.6609C111.156 45.7231 110.623 45.7841 110.089 45.8441L110.301 47.2131C110.837 47.1529 111.372 47.0916 111.907 47.0292L111.689 45.6609ZM102.071 46.6749C101.001 46.7777 99.93 46.8781 98.8581 46.9766L99.0428 48.3483C100.116 48.2497 101.189 48.1492 102.262 48.0461L102.071 46.6749ZM90.8161 47.6886C89.7478 47.7811 88.6656 47.8744 87.5971 47.9668L87.7746 49.3392C88.852 49.246 89.916 49.1543 90.9937 49.0611L90.8161 47.6886ZM79.5479 48.6797C79.0113 48.729 78.4748 48.7788 77.9384 48.8291L78.1259 50.2007C78.6613 50.1504 79.1969 50.1007 79.7327 50.0515L79.5479 48.6797ZM77.9378 48.8292C77.2968 48.8899 76.6667 48.9576 76.0471 49.0324L76.2704 50.4001C76.8781 50.3268 77.4967 50.2603 78.1265 50.2006L77.9378 48.8292ZM66.7571 50.9118C65.5076 51.2893 64.3157 51.7112 63.1784 52.1782L63.7498 53.4555C64.8455 53.0054 65.9973 52.5976 67.2083 52.2317L66.7571 50.9118ZM55.0674 57.0036C54.0963 57.816 53.1872 58.6879 52.3358 59.6199L53.3735 60.5717C54.1865 59.6817 55.0539 58.8499 55.9802 58.075L55.0674 57.0036ZM47.1081 67.4473C46.5699 68.5511 46.0701 69.7042 45.6053 70.9068L46.8957 71.45C47.3481 70.2794 47.8333 69.1606 48.354 68.0925L47.1081 67.4473ZM42.9231 79.9385C42.7865 80.5437 42.6546 81.1581 42.5273 81.7815L43.8801 82.1118C44.0056 81.4969 44.1355 80.8916 44.2701 80.2958L42.9231 79.9385ZM42.5273 81.7816C42.3957 82.4268 42.2791 83.0725 42.1763 83.7188L43.5395 83.9914C43.6394 83.3636 43.7525 82.737 43.8801 82.1117L42.5273 81.7816ZM41.4891 93.5322C41.4898 94.8435 41.518 96.155 41.5625 97.4651L42.9417 97.4776C42.8977 96.1786 42.8699 94.883 42.8692 93.5906L41.4891 93.5322ZM42.0245 107.249C42.0524 107.899 42.0774 108.549 42.0981 109.197L43.4775 109.213C43.4565 108.558 43.4314 107.904 43.4033 107.249L42.0245 107.249Z" fill="black"/>
<path d="M200.322 80.4779C199.102 87.856 193.897 108.698 172.846 124.791C171.264 126.003 169.585 127.187 167.808 128.336C165.351 129.934 163.01 132.555 161.498 134.539C159.89 136.657 158.741 139.493 158.741 142.437C158.741 145.381 160.014 148.137 161.498 150.336C163.186 152.84 164.644 154.465 167.808 156.538C198.572 176.679 200.675 207.134 200.675 207.134C200.675 213.013 180.464 217.77 155.542 217.77C130.62 217.77 110.399 213.022 110.399 207.152C110.399 207.152 112.494 176.697 143.266 156.556C146.43 154.483 147.888 152.858 149.576 150.354C151.061 148.146 152.334 145.399 152.334 142.455C152.334 139.511 151.185 136.675 149.576 134.556C148.065 132.573 145.723 129.952 143.266 128.354C118.592 112.315 112.361 89.5524 110.859 81.0883C110.859 81.0883 126.519 65.3718 152.016 66.9695C177.512 68.5672 200.322 80.4779 200.322 80.4779Z" fill="#F2F2F2"/>
<path d="M97.2481 210.722V217.884C97.2481 223.475 123.306 228 155.46 228C187.613 228 213.671 223.475 213.671 217.884V210.722" fill="#FDD32A"/>
<path d="M96.9575 67.8677V75.03C96.9575 80.6207 123.015 85.1457 155.169 85.1457C187.323 85.1457 213.38 80.6207 213.38 75.03V67.8677" fill="#FDD32A"/>
<path d="M155.133 220.809C187.302 220.809 213.38 216.369 213.38 210.893C213.38 205.416 187.302 200.977 155.133 200.977C122.964 200.977 96.8853 205.416 96.8853 210.893C96.8853 216.369 122.964 220.809 155.133 220.809Z" fill="#FDD32A" stroke="black" stroke-width="1.19578" stroke-miterlimit="10"/>
<path d="M96.8853 210.893V217.913C96.8853 223.394 122.959 227.829 155.133 227.829C187.307 227.829 213.38 223.394 213.38 217.913V210.893" stroke="black" stroke-width="1.19578" stroke-miterlimit="10"/>
<path d="M245.147 143.375C256.763 153.725 262.429 164.004 259.808 172.468C253.629 192.433 203.641 194.69 148.156 177.505C132.007 172.503 117.178 166.412 104.411 159.789" stroke="black" stroke-width="1.19578" stroke-miterlimit="10" stroke-linecap="round" stroke-linejoin="round"/>
<path d="M218.497 147.891H210.662V116.895H237.311V125.111" stroke="black" stroke-width="1.19578" stroke-miterlimit="10" stroke-linecap="round" stroke-linejoin="round"/>
<path d="M214.983 125.535H232.991" stroke="black" stroke-width="1.19578" stroke-miterlimit="10" stroke-linecap="round" stroke-linejoin="round"/>
<path d="M214.983 131.502H218.497" stroke="black" stroke-width="1.19578" stroke-miterlimit="10" stroke-linecap="round" stroke-linejoin="round"/>
<path d="M214.983 137.602H218.497" stroke="black" stroke-width="1.19578" stroke-miterlimit="10" stroke-linecap="round" stroke-linejoin="round"/>
<path d="M138.346 125.013C139.895 126.173 141.524 127.306 143.251 128.404C145.712 129.98 148.058 132.565 149.572 134.521C151.183 136.611 152.334 139.409 152.334 142.313H158.753C158.753 139.409 159.904 136.611 161.515 134.521C163.029 132.565 165.376 129.98 167.837 128.404C169.501 127.341 171.077 126.243 172.582 125.128" fill="black"/>
<path d="M201.363 206.235C201.363 212.034 180.793 216.726 155.429 216.726C130.065 216.726 109.496 212.025 109.496 206.235C109.496 206.235 110.845 187.253 127.124 169.484H183.743C183.734 169.484 199.69 186.403 201.363 206.235Z" fill="black"/>
<path d="M96.8853 68.209V75.2299C96.8853 80.7102 122.959 85.1458 155.133 85.1458C187.307 85.1458 213.38 80.7102 213.38 75.2299V68.209" stroke="black" stroke-width="1.19578" stroke-miterlimit="10"/>
<path d="M155.133 78.124C187.302 78.124 213.38 73.6844 213.38 68.208C213.38 62.7315 187.302 58.292 155.133 58.292C122.964 58.292 96.8853 62.7315 96.8853 68.208C96.8853 73.6844 122.964 78.124 155.133 78.124Z" fill="#FDD32A" stroke="black" stroke-width="1.19578" stroke-miterlimit="10"/>
<path d="M142.48 69.0051C151.042 69.0051 157.983 62.0644 157.983 53.5026C157.983 44.9407 151.042 38 142.48 38C133.919 38 126.978 44.9407 126.978 53.5026C126.978 62.0644 133.919 69.0051 142.48 69.0051Z" fill="white" stroke="black" stroke-width="1.19578" stroke-miterlimit="10" stroke-linecap="round" stroke-linejoin="round"/>
<path d="M150.121 66.987C142.676 71.2101 133.211 68.5983 128.988 61.1525C124.765 53.7066 127.377 44.2422 134.823 40.019L150.121 66.987Z" fill="black"/>
<path d="M142.481 60.373C146.275 60.373 149.351 57.2971 149.351 53.5027C149.351 49.7083 146.275 46.6323 142.481 46.6323C138.686 46.6323 135.61 49.7083 135.61 53.5027C135.61 57.2971 138.686 60.373 142.481 60.373Z" fill="white"/>
<path d="M167.279 69.0051C175.841 69.0051 182.781 62.0644 182.781 53.5026C182.781 44.9407 175.841 38 167.279 38C158.717 38 151.776 44.9407 151.776 53.5026C151.776 62.0644 158.717 69.0051 167.279 69.0051Z" fill="white" stroke="black" stroke-width="1.19578" stroke-miterlimit="10" stroke-linecap="round" stroke-linejoin="round"/>
<path d="M174.928 66.9865C167.483 71.2096 158.018 68.5978 153.795 61.152C149.572 53.7061 152.184 44.2417 159.63 40.0186L174.928 66.9865Z" fill="black"/>
<path d="M167.279 60.3726C171.073 60.3726 174.149 57.2966 174.149 53.5022C174.149 49.7078 171.073 46.6318 167.279 46.6318C163.484 46.6318 160.408 49.7078 160.408 53.5022C160.408 57.2966 163.484 60.3726 167.279 60.3726Z" fill="white"/>
<path d="M110.705 81.8959C112.211 90.2448 118.461 112.706 143.171 128.51C145.633 130.086 147.979 132.671 149.493 134.628C151.104 136.717 152.255 139.515 152.255 142.419C152.255 145.323 150.98 148.041 149.493 150.21C147.802 152.68 146.341 154.283 143.171 156.328C112.352 176.195 110.245 206.235 110.245 206.235C110.245 212.034 130.493 216.727 155.46 216.727C180.427 216.727 200.675 212.025 200.675 206.235C200.675 206.235 198.577 176.195 167.749 156.328C164.579 154.283 163.119 152.68 161.428 150.21C159.94 148.032 158.665 145.323 158.665 142.419C158.665 139.515 159.816 136.717 161.428 134.628C162.941 132.671 165.288 130.086 167.749 128.51C169.52 127.377 171.202 126.208 172.795 125.013C193.885 109.138 199.099 88.5715 200.321 81.3027" stroke="black" stroke-width="1.19578" stroke-miterlimit="10"/>
<path d="M155.46 141.33V157.497" stroke="black" stroke-width="1.19578" stroke-miterlimit="10" stroke-linecap="round" stroke-linejoin="round"/>
<path d="M155.46 160.356V162.658" stroke="black" stroke-width="1.19578" stroke-miterlimit="10" stroke-linecap="round" stroke-linejoin="round"/>
<path d="M155.46 166.589V170.733" stroke="black" stroke-width="1.19578" stroke-miterlimit="10" stroke-linecap="round" stroke-linejoin="round"/>
<path d="M187.111 110.874C195.372 113.99 203.154 117.363 210.343 120.922" stroke="black" stroke-width="1.19578" stroke-miterlimit="10" stroke-linecap="round" stroke-linejoin="round"/>
<path d="M80.7091 145.146C64.3654 132.902 55.7863 120.285 58.9028 110.245C62.8515 97.5052 84.6224 91.9806 114.273 94.1055" stroke="black" stroke-width="1.19578" stroke-miterlimit="10" stroke-linecap="round" stroke-linejoin="round"/>
<path d="M93.2543 165.536C100.828 165.536 106.968 159.396 106.968 151.822C106.968 144.247 100.828 138.107 93.2543 138.107C85.6802 138.107 79.5401 144.247 79.5401 151.822C79.5401 159.396 85.6802 165.536 93.2543 165.536Z" stroke="black" stroke-width="1.19578" stroke-miterlimit="10" stroke-linecap="round" stroke-linejoin="round"/>
<path d="M87.2613 152.503L92.7062 157.682L99.7271 147.12" stroke="black" stroke-width="1.19578" stroke-miterlimit="10" stroke-linecap="round" stroke-linejoin="round"/>
<path d="M72.6786 79.9038L87.2605 112.343" stroke="black" stroke-width="1.19578" stroke-miterlimit="10" stroke-linecap="round" stroke-linejoin="round"/>
<path d="M38.9999 83.6309L94.0425 99.9037" stroke="black" stroke-width="1.19578" stroke-miterlimit="10" stroke-linecap="round" stroke-linejoin="round"/>
<path d="M84.658 86.1196L75.2821 104.765" stroke="black" stroke-width="1.19578" stroke-miterlimit="10" stroke-linecap="round" stroke-linejoin="round"/>
<path d="M245.146 125.535H218.497V156.531H245.146V125.535Z" stroke="black" stroke-width="1.19578" stroke-miterlimit="10" stroke-linecap="round" stroke-linejoin="round"/>
<path d="M222.818 134.176H240.826" stroke="black" stroke-width="1.19578" stroke-miterlimit="10" stroke-linecap="round" stroke-linejoin="round"/>
<path d="M222.818 140.143H240.826" stroke="black" stroke-width="1.19578" stroke-miterlimit="10" stroke-linecap="round" stroke-linejoin="round"/>
<path d="M222.818 146.243H233.787" stroke="black" stroke-width="1.19578" stroke-miterlimit="10" stroke-linecap="round" stroke-linejoin="round"/>
</svg>
