<svg width="327" height="273" viewBox="0 0 327 273" fill="none" xmlns="http://www.w3.org/2000/svg">
<g clip-path="url(#clip0_385_16959)">
<path d="M42.1707 192.066C42.759 182.851 41.7502 173.708 43.3917 164.422C45.9362 150.063 50.2081 135.968 49.7461 121.201C49.4036 110.412 52.0911 99.2065 51.9783 88.3593C51.8308 75.9838 62.0224 66.31 74.8243 56.1862C93.798 41.1817 111.449 38.1205 133.254 36.5459C152.236 35.1751 171.201 32.6849 187.493 37.111C201.269 40.8691 212.04 48.4993 220.655 59.7284C233.437 76.3836 248.938 90.6011 264.225 105.048C275.824 115.99 286.193 128.294 289.952 144.68C292.397 155.307 290.388 165.348 284.404 174.875C269.303 198.942 247.936 216.401 222.328 228.083C210.158 233.628 196.432 234.779 182.929 234.766C163.458 234.741 143.907 234.232 124.445 236.774C113.323 238.24 102.149 240.226 91.0003 241.952C69.3053 245.291 58.2667 237.534 49.3826 219.077C45.4175 210.837 44.2671 201.692 42.324 192.805" fill="#FFF2BC"/>
<path d="M59.5265 170.121C64.6499 152.504 74.5422 136.616 81.1395 119.588C84.9313 109.833 88.4323 99.8584 93.6844 90.8765C101.519 77.4542 114.289 68.9387 129.382 66.533C157.12 62.0621 184.25 60.6483 206.462 80.7322C223.272 95.9153 241.051 110.055 255.004 127.997C260.996 135.708 265.927 144.062 267.343 154.175C269.48 169.572 262.971 182.528 251.984 193.082C234.396 209.983 212.796 218.771 189.146 219.548C170.886 220.137 153.008 216.507 135.311 213.221C119.258 210.21 103.474 206.12 87.5367 202.662C80.5445 201.133 74.0282 198.479 68.2046 194.834C59.7101 189.524 59.5662 180.159 59.5975 171.026" fill="#FDE278"/>
<path d="M65.0683 143.207C72.3456 127.134 84.0531 113.396 92.6925 98.0974C97.654 89.3343 102.36 80.3207 108.647 72.5051C118.027 60.8235 131.59 54.5309 146.631 54.4002C174.278 54.1124 200.938 56.6541 220.018 78.9994C234.46 95.8947 249.984 111.934 261.282 131.052C266.132 139.267 269.864 147.944 269.94 157.795C270.035 172.79 262.008 184.216 249.921 192.71C230.572 206.312 208.357 211.598 185.176 208.947C167.279 206.891 150.302 200.864 133.456 195.192C118.179 190.018 103.304 183.852 88.1974 178.268C81.5712 175.806 75.5551 172.34 70.3429 168.028C62.7395 161.743 63.8095 152.789 65.0205 144.081" stroke="black" stroke-width="1.37588" stroke-miterlimit="10" stroke-linecap="round" stroke-linejoin="round" stroke-dasharray="3.67 9.17"/>
<path d="M48.8475 185.925C48.8231 186.308 48.4988 186.611 48.1232 186.601C47.7477 186.591 47.463 186.272 47.4875 185.888L48.8475 185.925ZM49.3886 158.263L48.718 158.166L48.7181 158.165L49.3886 158.263ZM55.743 115.043L56.4241 114.993L56.4241 114.994L55.743 115.043ZM57.9751 82.2004L58.6565 82.1652L58.6565 82.1663L57.9751 82.2004ZM80.8212 50.0274L80.4165 49.4851L80.8212 50.0274ZM139.251 30.3871L139.273 31.0797L139.251 30.3871ZM193.49 30.9522L193.689 30.2808L193.69 30.281L193.49 30.9522ZM226.651 53.5696L226.108 54.0102L226.108 54.0102L226.651 53.5696ZM270.222 98.8891L269.749 99.407L269.748 99.4066L270.222 98.8891ZM295.949 138.521L295.285 138.704L295.285 138.703L295.949 138.521ZM290.401 168.716L289.831 168.359L289.831 168.358L290.401 168.716ZM228.325 221.924L228.583 222.556L228.583 222.556L228.325 221.924ZM188.926 228.607L188.899 229.301L188.898 229.301L188.926 228.607ZM130.442 230.615L130.38 229.926L130.381 229.926L130.442 230.615ZM96.9972 235.793L97.074 236.479L97.0734 236.48L96.9972 235.793ZM55.3794 212.918L54.7653 213.243L54.7653 213.243L55.3794 212.918ZM47.6554 186.822C47.5743 186.451 47.8064 186.072 48.174 185.974C48.5415 185.877 48.9052 186.099 48.9863 186.47L47.6554 186.822ZM47.59 183.928C47.6059 183.544 47.9236 183.234 48.2996 183.236C48.6756 183.237 48.9676 183.549 48.9517 183.933L47.59 183.928ZM49.0597 174.023C49.0597 174.407 48.7546 174.729 48.3782 174.744C48.0019 174.759 47.6968 174.46 47.6968 174.077L49.0597 174.023ZM47.7234 170.114C47.7298 169.73 48.04 169.413 48.4163 169.404C48.7926 169.396 49.0925 169.7 49.0861 170.083L47.7234 170.114ZM49.754 160.297C49.7009 160.678 49.3559 160.956 48.9833 160.916C48.6107 160.877 48.3516 160.536 48.4047 160.154L49.754 160.297ZM49.0947 156.104C49.166 155.725 49.5233 155.465 49.8929 155.523C50.2624 155.581 50.5043 155.935 50.433 156.314L49.0947 156.104ZM52.513 146.095C52.4335 146.473 52.0709 146.725 51.703 146.659C51.3352 146.592 51.1013 146.232 51.1808 145.855L52.513 146.095ZM52.0311 141.768C52.1084 141.39 52.4696 141.135 52.8379 141.199C53.2063 141.263 53.4422 141.622 53.3649 142L52.0311 141.768ZM55.2498 131.698C55.1915 132.079 54.8429 132.351 54.4711 132.307C54.0992 132.262 53.845 131.917 53.9033 131.536L55.2498 131.698ZM54.4622 127.429C54.5073 127.047 54.8468 126.763 55.2204 126.794C55.5941 126.825 55.8604 127.16 55.8153 127.542L54.4622 127.429ZM56.4589 117.088C56.4597 117.471 56.1553 117.794 55.7789 117.81C55.4026 117.825 55.0968 117.528 55.0959 117.144L56.4589 117.088ZM55.0325 113.511C55.0302 113.127 55.3335 112.803 55.7098 112.786C56.0862 112.769 56.3931 113.065 56.3953 113.449L55.0325 113.511ZM56.7393 105.685C56.7072 106.068 56.3772 106.364 56.0022 106.346C55.6272 106.328 55.3492 106.003 55.3813 105.62L56.7393 105.685ZM55.6754 102.481C55.7145 102.098 56.0496 101.808 56.4239 101.833C56.7983 101.858 57.0701 102.189 57.031 102.571L55.6754 102.481ZM57.884 94.7653C57.8431 95.1478 57.5067 95.4362 57.1326 95.4094C56.7585 95.3825 56.4883 95.0507 56.5291 94.6681L57.884 94.7653ZM56.8414 91.5528C56.8767 91.1699 57.2091 90.8767 57.5838 90.8978C57.9585 90.919 58.2336 91.2466 58.1983 91.6295L56.8414 91.5528ZM58.654 83.7475C58.649 84.1309 58.3399 84.4495 57.9635 84.4592C57.5872 84.4689 57.2862 84.166 57.2913 83.7827L58.654 83.7475ZM57.3571 80.2426C57.3862 79.8594 57.714 79.5608 58.0892 79.5756C58.4645 79.5905 58.7451 79.9132 58.716 80.2964L57.3571 80.2426ZM61.3764 71.3135C61.1976 71.6577 60.7841 71.7997 60.453 71.6307C60.1218 71.4616 59.9983 71.0456 60.1772 70.7014L61.3764 71.3135ZM62.2291 67.2808C62.4472 66.9599 62.8727 66.87 63.1794 67.0799C63.4861 67.2899 63.558 67.7202 63.34 68.0411L62.2291 67.2808ZM69.5398 60.7076C69.2661 60.9814 68.8349 60.9859 68.5764 60.7175C68.318 60.4491 68.3303 60.0095 68.6039 59.7356L69.5398 60.7076ZM71.4449 57.0222C71.7302 56.7611 72.1605 56.7771 72.4059 57.0579C72.6513 57.3388 72.619 57.7781 72.3336 58.0393L71.4449 57.0222ZM79.7084 51.7779C79.4072 52.0196 78.9801 51.9741 78.7545 51.6763C78.5288 51.3785 78.59 50.9412 78.8912 50.6996L79.7084 51.7779ZM81.8639 48.3614C82.1709 48.1276 82.5962 48.1844 82.814 48.4883C83.0318 48.7923 82.9596 49.2282 82.6526 49.4621L81.8639 48.3614ZM90.0551 44.37C89.7275 44.5716 89.3117 44.4704 89.1265 44.1441C88.9412 43.8179 89.0567 43.39 89.3843 43.1885L90.0551 44.37ZM92.5324 41.3449C92.868 41.1582 93.2782 41.2783 93.4486 41.6133C93.619 41.9482 93.4851 42.3711 93.1496 42.5579L92.5324 41.3449ZM101.184 38.6639C100.831 38.8108 100.439 38.6427 100.308 38.2884C100.178 37.9341 100.358 37.5279 100.711 37.3811L101.184 38.6639ZM104.088 36.065C104.446 35.9344 104.83 36.1209 104.944 36.4815C105.059 36.842 104.861 37.2402 104.502 37.3707L104.088 36.065ZM112.995 34.7819C112.626 34.8742 112.265 34.6472 112.189 34.275C112.113 33.9028 112.35 33.5262 112.718 33.434L112.995 34.7819ZM116.222 32.6251C116.593 32.5463 116.945 32.7868 117.008 33.1621C117.071 33.5374 116.821 33.9055 116.45 33.9842L116.222 32.6251ZM125.177 32.4814C124.802 32.5328 124.47 32.2664 124.434 31.8863C124.398 31.5063 124.672 31.1566 125.047 31.1052L125.177 32.4814ZM128.589 30.6601C128.964 30.617 129.291 30.891 129.319 31.272C129.347 31.6531 129.065 31.9969 128.69 32.0401L128.589 30.6601ZM137.505 31.2115C137.129 31.2405 136.813 30.954 136.799 30.5716C136.785 30.1893 137.078 29.8558 137.455 29.8268L137.505 31.2115ZM141.174 29.5504C141.55 29.5219 141.866 29.8088 141.879 30.1913C141.893 30.5737 141.599 30.9068 141.223 30.9353L141.174 29.5504ZM150.961 30.1617C150.585 30.1914 150.268 29.9056 150.254 29.5232C150.239 29.1409 150.532 28.8069 150.908 28.7771L150.961 30.1617ZM154.807 28.4784C155.183 28.4508 155.498 28.7384 155.511 29.1209C155.523 29.5034 155.229 29.8359 154.852 29.8635L154.807 28.4784ZM164.573 29.2847C164.196 29.3001 163.891 29.002 163.89 28.6188C163.889 28.2357 164.194 27.9125 164.57 27.8971L164.573 29.2847ZM168.482 27.7764C168.858 27.7689 169.157 28.0736 169.15 28.4571C169.143 28.8405 168.832 29.1574 168.456 29.1648L168.482 27.7764ZM178.132 29.3135C177.758 29.2923 177.483 28.9646 177.518 28.5817C177.553 28.1988 177.886 27.9057 178.261 27.927L178.132 29.3135ZM182.16 28.2275C182.533 28.2642 182.794 28.6035 182.743 28.9852C182.693 29.3669 182.35 29.6466 181.977 29.6098L182.16 28.2275ZM191.439 31.153C191.076 31.0669 190.862 30.6941 190.96 30.3204C191.059 29.9467 191.433 29.7136 191.796 29.7998L191.439 31.153ZM195.583 30.8273C195.94 30.9359 196.131 31.3221 196.011 31.6899C195.89 32.0577 195.503 32.2678 195.147 32.1592L195.583 30.8273ZM204.109 35.6658C203.774 35.503 203.643 35.0896 203.816 34.7424C203.989 34.3951 204.4 34.2456 204.734 34.4083L204.109 35.6658ZM208.211 36.2448C208.534 36.4293 208.638 36.8514 208.445 37.1876C208.251 37.5238 207.833 37.6468 207.51 37.4624L208.211 36.2448ZM215.427 42.9031C215.138 42.6681 215.101 42.2319 215.343 41.9289C215.585 41.6259 216.015 41.5708 216.303 41.8058L215.427 42.9031ZM219.271 44.3864C219.544 44.6394 219.555 45.0781 219.296 45.3663C219.037 45.6546 218.606 45.6833 218.333 45.4303L219.271 44.3864ZM224.909 52.4882C224.675 52.198 224.723 51.7595 225.017 51.5088C225.311 51.2581 225.74 51.2902 225.974 51.5804L224.909 52.4882ZM228.295 54.5484C228.525 54.8424 228.471 55.2804 228.173 55.5265C227.875 55.7727 227.447 55.7339 227.217 55.4399L228.295 54.5484ZM232.948 62.4238C232.706 62.1406 232.742 61.7014 233.029 61.4429C233.317 61.1843 233.747 61.2043 233.99 61.4875L232.948 62.4238ZM236.348 64.1939C236.595 64.4732 236.565 64.9127 236.282 65.1755C235.998 65.4383 235.567 65.425 235.32 65.1457L236.348 64.1939ZM241.413 71.7924C241.156 71.5218 241.172 71.0821 241.448 70.8104C241.724 70.5387 242.155 70.5378 242.411 70.8084L241.413 71.7924ZM244.893 73.4003C245.153 73.668 245.141 74.1076 244.869 74.3822C244.596 74.6569 244.164 74.6626 243.905 74.3949L244.893 73.4003ZM250.245 80.7865C249.98 80.5249 249.982 80.0855 250.249 79.8051C250.516 79.5247 250.947 79.5095 251.212 79.7711L250.245 80.7865ZM253.776 82.2836C254.043 82.5433 254.044 82.9826 253.779 83.2647C253.514 83.5468 253.082 83.565 252.815 83.3053L253.776 82.2836ZM259.3 89.5348C259.03 89.2783 259.024 88.8393 259.286 88.5542C259.548 88.2691 259.98 88.246 260.25 88.5025L259.3 89.5348ZM262.856 90.9735C263.127 91.2293 263.134 91.6683 262.872 91.954C262.61 92.2397 262.179 92.2639 261.908 92.0081L262.856 90.9735ZM268.443 98.1734C268.172 97.9179 268.164 97.4789 268.426 97.193C268.687 96.907 269.119 96.8823 269.389 97.1378L268.443 98.1734ZM271.933 99.5487C272.201 99.8065 272.205 100.246 271.942 100.53C271.678 100.813 271.247 100.834 270.978 100.577L271.933 99.5487ZM276.937 106.608C276.683 106.335 276.703 105.896 276.981 105.627C277.259 105.357 277.69 105.36 277.943 105.633L276.937 106.608ZM280.241 108.178C280.487 108.459 280.455 108.898 280.17 109.16C279.885 109.421 279.455 109.406 279.209 109.125L280.241 108.178ZM284.51 115.736C284.29 115.434 284.36 114.998 284.665 114.762C284.971 114.526 285.397 114.58 285.616 114.883L284.51 115.736ZM287.583 117.717C287.789 118.029 287.702 118.463 287.387 118.686C287.072 118.908 286.65 118.836 286.443 118.523L287.583 117.717ZM290.687 125.874C290.521 125.537 290.659 125.115 290.997 124.933C291.334 124.75 291.743 124.875 291.909 125.212L290.687 125.874ZM293.364 128.371C293.512 128.718 293.351 129.132 293.005 129.296C292.659 129.461 292.259 129.313 292.111 128.966L293.364 128.371ZM294.877 137.038C294.781 136.671 294.998 136.283 295.362 136.171C295.726 136.059 296.099 136.266 296.195 136.633L294.877 137.038ZM297.061 140.555C297.126 140.93 296.879 141.3 296.508 141.381C296.137 141.462 295.784 141.224 295.719 140.849L297.061 140.555ZM296.001 151.799C296.049 151.417 296.391 151.135 296.764 151.17C297.138 151.204 297.401 151.542 297.353 151.924L296.001 151.799ZM296.497 156.445C296.402 156.82 296.03 157.057 295.666 156.975C295.302 156.893 295.083 156.522 295.178 156.148L296.497 156.445ZM290.979 166.436C291.171 166.099 291.589 165.973 291.913 166.155C292.237 166.337 292.344 166.758 292.153 167.095L290.979 166.436ZM289.897 170.758C289.686 171.083 289.263 171.183 288.951 170.981C288.639 170.778 288.558 170.35 288.769 170.024L289.897 170.758ZM283.104 178.104C283.338 177.795 283.767 177.729 284.061 177.955C284.356 178.182 284.405 178.617 284.171 178.926L283.104 178.104ZM281.716 182.07C281.472 182.372 281.042 182.425 280.755 182.189C280.468 181.952 280.432 181.516 280.675 181.214L281.716 182.07ZM274.212 188.658C274.477 188.375 274.908 188.356 275.176 188.614C275.444 188.873 275.446 189.313 275.181 189.595L274.212 188.658ZM272.417 192.464C272.144 192.739 271.713 192.745 271.453 192.478C271.194 192.21 271.205 191.771 271.478 191.496L272.417 192.464ZM264.295 198.223C264.587 197.969 265.016 197.996 265.254 198.284C265.492 198.571 265.448 199.01 265.157 199.264L264.295 198.223ZM262.122 201.83C261.824 202.075 261.396 202.035 261.167 201.74C260.937 201.445 260.994 201.007 261.292 200.762L262.122 201.83ZM253.491 206.724C253.805 206.5 254.228 206.572 254.435 206.884C254.642 207.196 254.556 207.629 254.241 207.853L253.491 206.724ZM250.981 210.104C250.661 210.318 250.241 210.234 250.043 209.917C249.844 209.599 249.943 209.167 250.263 208.953L250.981 210.104ZM241.954 214.136C242.287 213.943 242.699 214.055 242.875 214.387C243.052 214.719 242.925 215.144 242.593 215.336L241.954 214.136ZM239.153 217.272C238.816 217.456 238.407 217.333 238.24 216.996C238.072 216.66 238.209 216.238 238.546 216.054L239.153 217.272ZM229.838 220.472C230.184 220.309 230.584 220.458 230.731 220.805C230.878 221.152 230.716 221.566 230.369 221.729L229.838 220.472ZM226.785 223.34C226.432 223.487 226.04 223.319 225.91 222.964C225.779 222.61 225.959 222.204 226.312 222.057L226.785 223.34ZM217.252 225.044C217.62 224.951 217.982 225.177 218.059 225.549C218.136 225.921 217.9 226.298 217.532 226.391L217.252 225.044ZM213.75 227.247C213.378 227.322 213.029 227.078 212.97 226.701C212.911 226.325 213.164 225.96 213.536 225.885L213.75 227.247ZM204.129 227.264C204.505 227.227 204.827 227.507 204.849 227.888C204.87 228.27 204.583 228.609 204.208 228.646L204.129 227.264ZM200.378 228.961C200.002 228.986 199.688 228.696 199.678 228.314C199.668 227.931 199.965 227.6 200.341 227.575L200.378 228.961ZM190.852 227.906C191.228 227.903 191.523 228.212 191.511 228.595C191.5 228.979 191.185 229.292 190.809 229.295L190.852 227.906ZM187.227 229.298C186.851 229.297 186.558 228.985 186.574 228.602C186.589 228.218 186.907 227.908 187.283 227.909L187.227 229.298ZM178.93 227.875C179.306 227.877 179.598 228.189 179.582 228.572C179.565 228.956 179.247 229.265 178.871 229.264L178.93 227.875ZM175.531 229.251C175.155 229.249 174.863 228.938 174.878 228.554C174.894 228.171 175.212 227.861 175.588 227.862L175.531 229.251ZM167.227 227.866C167.603 227.864 167.897 228.173 167.885 228.556C167.872 228.94 167.557 229.252 167.181 229.254L167.227 227.866ZM163.842 229.281C163.465 229.285 163.169 228.977 163.18 228.594C163.19 228.21 163.504 227.896 163.88 227.892L163.842 229.281ZM155.508 228.056C155.884 228.044 156.186 228.346 156.182 228.73C156.179 229.113 155.871 229.433 155.494 229.444L155.508 228.056ZM152.156 229.558C151.78 229.573 151.475 229.274 151.475 228.891C151.475 228.508 151.78 228.185 152.157 228.17L152.156 229.558ZM143.777 228.615C144.153 228.589 144.466 228.879 144.477 229.261C144.488 229.644 144.192 229.975 143.815 230.001L143.777 228.615ZM140.482 230.251C140.106 230.282 139.788 229.997 139.773 229.615C139.757 229.233 140.049 228.898 140.425 228.867L140.482 230.251ZM132.053 229.715C132.428 229.669 132.757 229.941 132.787 230.322C132.818 230.703 132.538 231.048 132.163 231.094L132.053 229.715ZM128.91 231.517C128.536 231.568 128.203 231.301 128.167 230.921C128.132 230.541 128.407 230.191 128.781 230.14L128.91 231.517ZM120.799 231.298C121.173 231.241 121.51 231.502 121.552 231.881C121.593 232.26 121.324 232.614 120.95 232.671L120.799 231.298ZM117.767 233.164C117.393 233.222 117.055 232.963 117.012 232.584C116.969 232.205 117.237 231.85 117.611 231.791L117.767 233.164ZM109.649 233.067C110.023 233.006 110.362 233.264 110.407 233.643C110.452 234.022 110.186 234.378 109.812 234.438L109.649 233.067ZM106.63 234.955C106.256 235.016 105.917 234.758 105.871 234.379C105.826 234.001 106.093 233.645 106.466 233.584L106.63 234.955ZM98.5115 234.859C98.8854 234.8 99.2234 235.06 99.2666 235.439C99.3097 235.818 99.0416 236.172 98.6677 236.231L98.5115 234.859ZM95.1944 236.745C94.8194 236.793 94.4891 236.523 94.4565 236.143C94.4239 235.762 94.7015 235.415 95.0764 235.367L95.1944 236.745ZM85.8611 235.807C86.2362 235.825 86.5146 236.149 86.4831 236.533C86.4515 236.916 86.1219 237.212 85.7469 237.195L85.8611 235.807ZM81.9751 236.843C81.6047 236.79 81.3583 236.439 81.4248 236.059C81.4913 235.68 81.8456 235.415 82.216 235.468L81.9751 236.843ZM73.5705 232.896C73.9055 233.057 74.0378 233.47 73.8662 233.818C73.6946 234.166 73.2839 234.317 72.949 234.155L73.5705 232.896ZM69.6671 232.291C69.3569 232.086 69.2781 231.657 69.4912 231.333C69.7043 231.009 70.1285 230.912 70.4388 231.116L69.6671 232.291ZM63.7456 225.065C63.9863 225.351 63.9467 225.79 63.6573 226.046C63.3679 226.302 62.9383 226.279 62.6977 225.994L63.7456 225.065ZM60.3989 223.014C60.1828 222.708 60.2574 222.273 60.5655 222.041C60.8737 221.808 61.2987 221.868 61.5148 222.173L60.3989 223.014ZM56.8143 214.255C56.9843 214.591 56.8498 215.013 56.5141 215.2C56.1783 215.386 55.7683 215.265 55.5983 214.93L56.8143 214.255ZM53.9526 211.455C53.8042 211.108 53.9642 210.694 54.31 210.529C54.6559 210.365 55.0566 210.512 55.205 210.858L53.9526 211.455ZM52.2124 201.734C52.305 202.102 52.0844 202.488 51.7196 202.597C51.3548 202.705 50.984 202.495 50.8914 202.127L52.2124 201.734ZM50.002 198.304C49.9216 197.933 50.1545 197.554 50.5222 197.458C50.8898 197.361 51.2531 197.584 51.3335 197.955L50.002 198.304ZM49.3939 188.388C49.471 188.76 49.2349 189.137 48.8665 189.23C48.4981 189.323 48.137 189.097 48.0599 188.725L49.3939 188.388ZM47.4875 185.888C47.5292 185.235 47.5629 184.581 47.59 183.928L48.9517 183.933C48.9242 184.596 48.89 185.26 48.8475 185.925L47.4875 185.888ZM47.6968 174.077C47.6968 172.759 47.7015 171.438 47.7234 170.114L49.0861 170.083C49.0644 171.396 49.0597 172.708 49.0597 174.023L47.6968 174.077ZM48.4047 160.154C48.4967 159.493 48.6007 158.83 48.718 158.166L50.0591 158.36C49.9449 159.006 49.8437 159.652 49.754 160.297L48.4047 160.154ZM48.7181 158.165C48.84 157.478 48.9658 156.791 49.0947 156.104L50.433 156.314C50.3049 156.996 50.18 157.678 50.059 158.361L48.7181 158.165ZM51.1808 145.855C51.4674 144.491 51.7526 143.13 52.0311 141.768L53.3649 142C53.0856 143.366 52.7997 144.731 52.513 146.095L51.1808 145.855ZM53.9033 131.536C54.1123 130.169 54.3004 128.801 54.4622 127.429L55.8153 127.542C55.6514 128.932 55.4609 130.317 55.2498 131.698L53.9033 131.536ZM55.0959 117.144C55.0944 116.461 55.0833 115.777 55.0619 115.092L56.4241 114.994C56.446 115.693 56.4573 116.391 56.4589 117.088L55.0959 117.144ZM55.0619 115.092C55.0452 114.565 55.0356 114.038 55.0325 113.511L56.3953 113.449C56.3984 113.965 56.4078 114.48 56.4241 114.993L55.0619 115.092ZM55.3813 105.62C55.4689 104.574 55.5686 103.527 55.6754 102.481L57.031 102.571C56.9248 103.612 56.8259 104.65 56.7393 105.685L55.3813 105.62ZM56.5291 94.6681C56.6401 93.6277 56.7458 92.5892 56.8414 91.5528L58.1983 91.6295C58.1019 92.6748 57.9955 93.7204 57.884 94.7653L56.5291 94.6681ZM57.2913 83.7827C57.298 83.2656 57.2991 82.7495 57.2937 82.2346L58.6565 82.1663C58.662 82.6928 58.661 83.22 58.654 83.7475L57.2913 83.7827ZM57.2937 82.2357C57.2857 81.5641 57.3072 80.8998 57.3571 80.2426L58.716 80.2964C58.6692 80.9121 58.649 81.5348 58.6565 82.1652L57.2937 82.2357ZM60.1772 70.7014C60.7801 69.541 61.4673 68.402 62.2291 67.2808L63.34 68.0411C62.6071 69.1196 61.9501 70.2092 61.3764 71.3135L60.1772 70.7014ZM68.6039 59.7356C69.5127 58.8259 70.4615 57.9222 71.4449 57.0222L72.3336 58.0393C71.3642 58.9265 70.4312 59.8152 69.5398 60.7076L68.6039 59.7356ZM78.8912 50.6996C79.3953 50.2952 79.9039 49.8904 80.4165 49.4851L81.2258 50.5697C80.7155 50.9732 80.2096 51.3759 79.7084 51.7779L78.8912 50.6996ZM80.4165 49.4851C80.8997 49.1029 81.3822 48.7284 81.8639 48.3614L82.6526 49.4621C82.1779 49.8238 81.7023 50.1929 81.2258 50.5697L80.4165 49.4851ZM89.3843 43.1885C90.4346 42.5424 91.4837 41.9285 92.5324 41.3449L93.1496 42.5579C92.119 43.1313 91.0878 43.7348 90.0551 44.37L89.3843 43.1885ZM100.711 37.3811C101.834 36.9138 102.959 36.4759 104.088 36.065L104.502 37.3707C103.393 37.7746 102.287 38.2049 101.184 38.6639L100.711 37.3811ZM112.718 33.434C113.88 33.1433 115.047 32.8744 116.222 32.6251L116.45 33.9842C115.291 34.2303 114.139 34.4954 112.995 34.7819L112.718 33.434ZM125.047 31.1052C126.218 30.9447 127.398 30.797 128.589 30.6601L128.69 32.0401C127.508 32.1759 126.338 32.3223 125.177 32.4814L125.047 31.1052ZM137.455 29.8268C138.043 29.7814 138.634 29.7374 139.229 29.6945L139.273 31.0797C138.68 31.1225 138.091 31.1664 137.505 31.2115L137.455 29.8268ZM139.229 29.6945C139.877 29.6477 140.525 29.5995 141.174 29.5504L141.223 30.9353C140.573 30.9845 139.923 31.0328 139.273 31.0797L139.229 29.6945ZM150.908 28.7771C152.21 28.6742 153.51 28.5737 154.807 28.4784L154.852 29.8635C153.559 29.9586 152.262 30.0588 150.961 30.1617L150.908 28.7771ZM164.57 27.8971C165.88 27.8434 167.184 27.8022 168.482 27.7764L168.456 29.1648C167.169 29.1904 165.874 29.2313 164.573 29.2847L164.57 27.8971ZM178.261 27.927C179.57 28.0013 180.87 28.1004 182.16 28.2275L181.977 29.6098C180.707 29.4847 179.425 29.387 178.132 29.3135L178.261 27.927ZM191.796 29.7998C192.431 29.9502 193.062 30.1104 193.689 30.2808L193.291 31.6236C192.678 31.457 192.06 31.3003 191.439 31.153L191.796 29.7998ZM193.69 30.281C194.327 30.4549 194.958 30.637 195.583 30.8273L195.147 32.1592C194.534 31.9726 193.915 31.794 193.29 31.6234L193.69 30.281ZM204.734 34.4083C205.919 34.9849 207.078 35.5971 208.211 36.2448L207.51 37.4624C206.401 36.8289 205.268 36.2299 204.109 35.6658L204.734 34.4083ZM216.303 41.8058C217.315 42.6314 218.304 43.4917 219.271 44.3864L218.333 45.4303C217.386 44.5538 216.418 43.7113 215.427 42.9031L216.303 41.8058ZM225.974 51.5804C226.386 52.0889 226.792 52.6051 227.194 53.129L226.108 54.0102C225.713 53.4951 225.314 52.9878 224.909 52.4882L225.974 51.5804ZM227.194 53.1289C227.559 53.604 227.926 54.0771 228.295 54.5484L227.217 55.4399C226.845 54.9653 226.476 54.4888 226.108 54.0102L227.194 53.1289ZM233.99 61.4875C234.769 62.3958 235.555 63.2978 236.348 64.1939L235.32 65.1457C234.523 64.2447 233.732 63.3376 232.948 62.4238L233.99 61.4875ZM242.411 70.8084C243.233 71.6768 244.061 72.5406 244.893 73.4003L243.905 74.3949C243.069 73.5319 242.238 72.6646 241.413 71.7924L242.411 70.8084ZM251.212 79.7711C252.064 80.6113 252.919 81.4486 253.776 82.2836L252.815 83.3053C251.956 82.4684 251.099 81.629 250.245 80.7865L251.212 79.7711ZM260.25 88.5025C261.117 89.3271 261.986 90.1506 262.856 90.9735L261.908 92.0081C261.038 91.1847 260.168 90.3604 259.3 89.5348L260.25 88.5025ZM269.389 97.1378C269.825 97.5489 270.26 97.9602 270.696 98.3716L269.748 99.4066C269.313 98.9954 268.878 98.5843 268.443 98.1734L269.389 97.1378ZM270.695 98.3713C271.109 98.7619 271.522 99.1543 271.933 99.5487L270.978 100.577C270.57 100.185 270.16 99.7952 269.749 99.407L270.695 98.3713ZM277.943 105.633C278.722 106.471 279.489 107.319 280.241 108.178L279.209 109.125C278.465 108.276 277.707 107.437 276.937 106.608L277.943 105.633ZM285.616 114.883C286.292 115.813 286.948 116.757 287.583 117.717L286.443 118.523C285.82 117.581 285.174 116.652 284.51 115.736L285.616 114.883ZM291.909 125.212C292.421 126.247 292.907 127.3 293.364 128.371L292.111 128.966C291.663 127.918 291.188 126.888 290.687 125.874L291.909 125.212ZM296.195 136.633C296.342 137.196 296.481 137.765 296.613 138.338L295.285 138.703C295.157 138.144 295.021 137.589 294.877 137.038L296.195 136.633ZM296.613 138.338C296.784 139.079 296.933 139.819 297.061 140.555L295.719 140.849C295.595 140.137 295.451 139.422 295.285 138.704L296.613 138.338ZM297.353 151.924C297.16 153.444 296.875 154.95 296.497 156.445L295.178 156.148C295.541 154.709 295.816 153.26 296.001 151.799L297.353 151.924ZM292.153 167.095C291.778 167.758 291.383 168.417 290.971 169.074L289.831 168.358C290.232 167.72 290.615 167.079 290.979 166.436L292.153 167.095ZM290.971 169.074C290.616 169.639 290.259 170.2 289.897 170.758L288.769 170.024C289.126 169.473 289.48 168.917 289.831 168.359L290.971 169.074ZM284.171 178.926C283.366 179.989 282.547 181.036 281.716 182.07L280.675 181.214C281.498 180.192 282.308 179.156 283.104 178.104L284.171 178.926ZM275.181 189.595C274.273 190.567 273.351 191.523 272.417 192.464L271.478 191.496C272.402 190.564 273.314 189.618 274.212 188.658L275.181 189.595ZM265.157 199.264C264.158 200.134 263.146 200.989 262.122 201.83L261.292 200.762C262.305 199.93 263.306 199.083 264.295 198.223L265.157 199.264ZM254.241 207.853C253.166 208.617 252.079 209.367 250.981 210.104L250.263 208.953C251.35 208.223 252.426 207.481 253.491 206.724L254.241 207.853ZM242.593 215.336C241.457 215.995 240.31 216.64 239.153 217.272L238.546 216.054C239.692 215.427 240.828 214.788 241.954 214.136L242.593 215.336ZM230.369 221.729C229.776 222.008 229.181 222.284 228.583 222.556L228.067 221.292C228.659 221.022 229.25 220.749 229.838 220.472L230.369 221.729ZM228.583 222.556C227.987 222.828 227.388 223.089 226.785 223.34L226.312 222.057C226.901 221.812 227.486 221.557 228.067 221.292L228.583 222.556ZM217.532 226.391C216.28 226.708 215.018 226.992 213.75 227.247L213.536 225.885C214.784 225.634 216.023 225.355 217.252 225.044L217.532 226.391ZM204.208 228.646C202.934 228.772 201.657 228.876 200.378 228.961L200.341 227.575C201.607 227.491 202.87 227.388 204.129 227.264L204.208 228.646ZM190.809 229.295C190.172 229.3 189.535 229.302 188.899 229.301L188.953 227.912C189.585 227.913 190.218 227.911 190.852 227.906L190.809 229.295ZM188.898 229.301C188.341 229.3 187.784 229.299 187.227 229.298L187.283 227.909C187.839 227.911 188.396 227.912 188.953 227.912L188.898 229.301ZM178.871 229.264C177.758 229.259 176.644 229.254 175.531 229.251L175.588 227.862C176.702 227.865 177.816 227.87 178.93 227.875L178.871 229.264ZM167.181 229.254C166.068 229.26 164.955 229.269 163.842 229.281L163.88 227.892C164.996 227.88 166.111 227.872 167.227 227.866L167.181 229.254ZM155.494 229.444C154.381 229.477 153.269 229.514 152.156 229.558L152.157 228.17C153.274 228.127 154.391 228.089 155.508 228.056L155.494 229.444ZM143.815 230.001C142.704 230.077 141.593 230.16 140.482 230.251L140.425 228.867C141.542 228.775 142.659 228.692 143.777 228.615L143.815 230.001ZM132.163 231.094C131.609 231.161 131.056 231.231 130.502 231.303L130.381 229.926C130.938 229.853 131.496 229.783 132.053 229.715L132.163 231.094ZM130.503 231.303C129.972 231.373 129.441 231.445 128.91 231.517L128.781 230.14C129.314 230.068 129.847 229.996 130.38 229.926L130.503 231.303ZM120.95 232.671C119.889 232.833 118.828 232.997 117.767 233.164L117.611 231.791C118.674 231.625 119.736 231.46 120.799 231.298L120.95 232.671ZM109.812 234.438C108.756 234.61 107.686 234.784 106.63 234.955L106.466 233.584C107.532 233.411 108.583 233.24 109.649 233.067L109.812 234.438ZM98.6677 236.231C98.1364 236.314 97.6052 236.397 97.074 236.479L96.9204 235.107C97.4507 235.025 97.981 234.942 98.5115 234.859L98.6677 236.231ZM97.0734 236.48C96.4383 236.577 95.8121 236.666 95.1944 236.745L95.0764 235.367C95.6823 235.289 96.297 235.203 96.921 235.107L97.0734 236.48ZM85.7469 237.195C84.4458 237.135 83.1895 237.017 81.9751 236.843L82.216 235.468C83.3861 235.636 84.6 235.749 85.8611 235.807L85.7469 237.195ZM72.949 234.155C71.811 233.606 70.7185 232.985 69.6671 232.291L70.4388 231.116C71.4427 231.779 72.4851 232.372 73.5705 232.896L72.949 234.155ZM62.6977 225.994C61.9074 225.057 61.1423 224.064 60.3989 223.014L61.5148 222.173C62.2384 223.195 62.981 224.159 63.7456 225.065L62.6977 225.994ZM55.5983 214.93C55.3183 214.378 55.0407 213.816 54.7653 213.243L55.9935 212.593C56.2651 213.158 56.5386 213.712 56.8143 214.255L55.5983 214.93ZM54.7653 213.243C54.4804 212.651 54.2099 212.055 53.9526 211.455L55.205 210.858C55.455 211.441 55.7174 212.02 55.9935 212.594L54.7653 213.243ZM50.8914 202.127C50.5719 200.859 50.2789 199.583 50.002 198.304L51.3335 197.955C51.608 199.223 51.8975 200.483 52.2124 201.734L50.8914 202.127ZM48.0599 188.725C47.9281 188.089 47.7937 187.455 47.6554 186.822L48.9863 186.47C49.1259 187.109 49.2613 187.748 49.3939 188.388L48.0599 188.725Z" fill="black"/>
<path d="M188.445 245.403C188.238 246.789 189.312 248.034 190.713 248.034L228.546 248.034L230.697 231.832L257.408 233.468C259.914 233.622 260.386 237.111 258.012 237.926L228.546 248.034L230.697 231.832L231.654 223.14C231.804 221.783 230.741 220.596 229.375 220.596L194.122 220.596C192.986 220.596 192.021 221.428 191.854 222.551L188.445 245.403Z" fill="white"/>
<path d="M228.546 248.034L258.012 237.926C260.386 237.111 259.914 233.622 257.408 233.468L230.697 231.832M228.546 248.034L230.697 231.832M228.546 248.034L190.713 248.034C189.312 248.034 188.238 246.789 188.445 245.403L191.854 222.551C192.021 221.428 192.986 220.596 194.122 220.596L229.375 220.596C230.741 220.596 231.804 221.783 231.654 223.14L230.697 231.832" stroke="black" stroke-width="1.37588"/>
<path d="M301.431 129.015C301.902 125.83 299.433 122.971 296.214 122.971H150.703C148.087 122.971 145.867 124.887 145.485 127.474L132.248 217.125C131.778 220.31 134.247 223.17 137.466 223.17H282.977C285.593 223.17 287.813 221.253 288.195 218.666L301.431 129.015Z" fill="white" stroke="black" stroke-width="1.37588"/>
<path d="M288.788 135.509C289.18 132.876 287.14 130.509 284.478 130.509L142.172 130.509C140.008 130.509 138.171 132.099 137.861 134.241L126.773 210.648C126.392 213.276 128.43 215.631 131.085 215.631H273.088C275.246 215.631 277.079 214.051 277.397 211.916L288.788 135.509Z" fill="white" stroke="black" stroke-width="1.37588"/>
<path d="M86.5609 173.176H128.003C128.709 173.176 129.401 172.977 130 172.603C133.216 170.596 131.794 165.631 128.003 165.631H98.6503C90.6388 165.631 84.1442 159.136 84.1442 151.125C84.1442 148.608 84.7852 146.241 85.9129 144.178C86.1277 144.168 86.3438 144.163 86.5609 144.163H172.81H227.755C233.863 144.163 242.61 140.389 246.423 135.045C251.128 132.647 254.351 127.756 254.351 122.113C254.351 114.101 247.856 107.607 239.844 107.607H130.171C129.465 107.607 128.773 107.805 128.174 108.179C124.958 110.186 126.38 115.151 130.171 115.151H227.755C235.767 115.151 248.32 121.646 248.32 129.657C248.32 131.561 247.611 133.379 246.423 135.045C244.448 136.051 242.213 136.619 239.844 136.619H98.6503C93.1557 136.619 88.3747 139.674 85.9129 144.178C78.2021 144.517 72.0548 150.875 72.0548 158.669C72.0548 166.681 78.5494 173.176 86.5609 173.176Z" fill="black"/>
<path d="M128.174 108.179L128.538 108.762L128.538 108.762L128.174 108.179ZM130 172.603L130.364 173.187V173.187L130 172.603ZM128.003 173.863H86.5609V172.488H128.003V173.863ZM227.755 115.839H130.171V114.463H227.755V115.839ZM247.632 129.657C247.632 126.015 244.754 122.569 240.673 119.981C236.622 117.412 231.607 115.839 227.755 115.839V114.463C231.915 114.463 237.182 116.138 241.41 118.819C245.609 121.481 249.008 125.288 249.008 129.657H247.632ZM227.755 143.475C230.684 143.475 234.297 142.565 237.657 140.986C241.018 139.405 244.047 137.19 245.863 134.645L246.983 135.444C244.985 138.244 241.734 140.588 238.242 142.231C234.748 143.874 230.934 144.851 227.755 144.851V143.475ZM245.863 134.645C246.99 133.065 247.632 131.384 247.632 129.657H249.008C249.008 131.738 248.232 133.693 246.983 135.444L245.863 134.645ZM71.3669 158.669C71.3669 150.505 77.8057 143.845 85.8827 143.49L85.9431 144.865C78.5985 145.188 72.7427 151.245 72.7427 158.669H71.3669ZM85.8827 143.49C86.1076 143.48 86.3337 143.475 86.5609 143.475V144.851C86.3538 144.851 86.1479 144.856 85.9431 144.865L85.8827 143.49ZM86.5609 173.863C78.1695 173.863 71.3669 167.061 71.3669 158.669H72.7427C72.7427 166.301 78.9294 172.488 86.5609 172.488V173.863ZM128.003 166.319H98.6503V164.943H128.003V166.319ZM98.6503 135.931H239.844V137.307H98.6503V135.931ZM239.844 108.294H130.171V106.919H239.844V108.294ZM253.663 122.113C253.663 114.481 247.476 108.294 239.844 108.294V106.919C248.236 106.919 255.038 113.721 255.038 122.113H253.663ZM239.844 135.931C242.101 135.931 244.23 135.39 246.11 134.432L246.735 135.658C244.666 136.712 242.324 137.307 239.844 137.307V135.931ZM246.11 134.432C250.594 132.147 253.663 127.487 253.663 122.113H255.038C255.038 128.025 251.662 133.147 246.735 135.658L246.11 134.432ZM83.4562 151.125C83.4562 148.49 84.1276 146.009 85.3092 143.848L86.5165 144.507C85.4428 146.472 84.8321 148.726 84.8321 151.125H83.4562ZM85.3092 143.848C87.8868 139.132 92.8942 135.931 98.6503 135.931V137.307C93.4172 137.307 88.8625 140.215 86.5165 144.507L85.3092 143.848ZM98.6503 166.319C90.2588 166.319 83.4562 159.516 83.4562 151.125H84.8321C84.8321 158.756 91.0187 164.943 98.6503 164.943V166.319ZM86.5609 143.475H172.81V144.851H86.5609V143.475ZM172.81 143.475H227.755V144.851H172.81V143.475ZM130.171 108.294C129.594 108.294 129.028 108.457 128.538 108.762L127.81 107.595C128.518 107.153 129.336 106.919 130.171 106.919V108.294ZM128.003 164.943C132.485 164.943 134.167 170.814 130.364 173.187L129.636 172.02C132.265 170.379 131.103 166.319 128.003 166.319V164.943ZM130.171 115.839C125.688 115.839 124.007 109.968 127.81 107.595L128.538 108.762C125.908 110.403 127.071 114.463 130.171 114.463V115.839ZM128.003 172.488C128.58 172.488 129.146 172.326 129.636 172.02L130.364 173.187C129.656 173.629 128.838 173.863 128.003 173.863V172.488Z" fill="black"/>
<path d="M77.275 82.0034L15.6438 41.7826H126.486L77.275 82.0034Z" fill="#FDD32A" stroke="black" stroke-width="1.37588" stroke-linejoin="bevel"/>
<path d="M16.0156 42.0308L77.7711 81.9432L126.543 42.0308L139.998 122.16L77.7711 81.9432L28.6266 122.16L16.0156 42.0308Z" fill="white" stroke="black" stroke-width="1.37588" stroke-linejoin="round"/>
<path d="M77.9713 81.8793L28.594 121.998H139.998L77.9713 81.8793Z" fill="white" stroke="black" stroke-width="1.37588" stroke-linejoin="round"/>
</g>
<defs>
<clipPath id="clip0_385_16959">
<rect width="327" height="272.424" fill="white" transform="translate(0 0.288208)"/>
</clipPath>
</defs>
</svg>
