<svg width="327" height="273" viewBox="0 0 327 273" fill="none" xmlns="http://www.w3.org/2000/svg">
<g clip-path="url(#clip0_190_20420)">
<path d="M42.1707 192.066C42.759 182.851 41.7502 173.709 43.3917 164.422C45.9362 150.063 50.2081 135.969 49.7461 121.202C49.4036 110.413 52.0911 99.2067 51.9783 88.3595C51.8308 75.9841 62.0224 66.3103 74.8243 56.1864C93.798 41.182 111.449 38.1208 133.254 36.5462C152.236 35.1754 171.201 32.6851 187.493 37.1113C201.269 40.8694 212.04 48.4995 220.655 59.7286C233.437 76.3838 248.938 90.6014 264.225 105.048C275.824 115.991 286.193 128.294 289.952 144.68C292.397 155.308 290.388 165.348 284.404 174.875C269.303 198.943 247.936 216.402 222.328 228.083C210.158 233.628 196.432 234.779 182.929 234.766C163.458 234.742 143.907 234.232 124.445 236.774C113.323 238.24 102.149 240.226 91.0003 241.952C69.3053 245.291 58.2667 237.534 49.3826 219.077C45.4175 210.838 44.2671 201.692 42.324 192.805" fill="#FFF2BC"/>
<path d="M59.5265 170.122C64.6499 152.504 74.5422 136.617 81.1395 119.589C84.9313 109.833 88.4323 99.8587 93.6844 90.8768C101.519 77.4544 114.289 68.9389 129.382 66.5333C157.12 62.0623 184.25 60.6485 206.462 80.7325C223.272 95.9155 241.051 110.055 255.004 127.998C260.996 135.709 265.927 144.062 267.343 154.176C269.48 169.572 262.971 182.528 251.984 193.082C234.396 209.984 212.796 218.772 189.146 219.548C170.886 220.137 153.008 216.507 135.311 213.222C119.258 210.211 103.474 206.12 87.5367 202.662C80.5445 201.133 74.0282 198.479 68.2046 194.834C59.7101 189.524 59.5662 180.159 59.5975 171.027" fill="#FDE278"/>
<path d="M65.0684 143.207C72.3457 127.134 84.0532 113.396 92.6926 98.0973C97.6541 89.3342 102.36 80.3206 108.647 72.505C118.027 60.8234 131.591 54.5308 146.631 54.4001C174.278 54.1123 200.938 56.654 220.018 78.9993C234.461 95.8946 249.984 111.934 261.282 131.051C266.132 139.267 269.864 147.944 269.94 157.795C270.035 172.79 262.008 184.216 249.921 192.71C230.572 206.312 208.357 211.598 185.176 208.947C167.279 206.891 150.302 200.864 133.456 195.192C118.179 190.018 103.304 183.852 88.1975 178.268C81.5714 175.806 75.5552 172.339 70.343 168.028C62.7396 161.743 63.8096 152.789 65.0207 144.081" stroke="black" stroke-width="1.37588" stroke-miterlimit="10" stroke-linecap="round" stroke-linejoin="round" stroke-dasharray="3.67 9.17"/>
<path d="M48.8475 185.925C48.8231 186.308 48.4988 186.611 48.1232 186.601C47.7477 186.591 47.463 186.272 47.4875 185.888L48.8475 185.925ZM49.3886 158.263L48.718 158.166L48.7181 158.165L49.3886 158.263ZM55.743 115.043L56.4241 114.993L56.4241 114.994L55.743 115.043ZM57.9751 82.2003L58.6565 82.1651L58.6565 82.1661L57.9751 82.2003ZM80.8212 50.0273L80.4165 49.4849L80.8212 50.0273ZM139.251 30.387L139.273 31.0796L139.251 30.387ZM193.49 30.9521L193.689 30.2807L193.69 30.2809L193.49 30.9521ZM226.651 53.5694L226.108 54.0101L226.108 54.01L226.651 53.5694ZM270.222 98.889L269.749 99.4068L269.748 99.4065L270.222 98.889ZM295.949 138.521L295.285 138.704L295.285 138.703L295.949 138.521ZM290.401 168.716L289.831 168.358L289.831 168.358L290.401 168.716ZM228.325 221.924L228.583 222.556L228.583 222.556L228.325 221.924ZM188.926 228.607L188.899 229.301L188.898 229.301L188.926 228.607ZM130.442 230.615L130.38 229.926L130.381 229.926L130.442 230.615ZM96.9972 235.793L97.074 236.479L97.0734 236.479L96.9972 235.793ZM55.3794 212.918L54.7653 213.243L54.7653 213.243L55.3794 212.918ZM47.6554 186.822C47.5743 186.451 47.8064 186.071 48.174 185.974C48.5415 185.877 48.9052 186.099 48.9863 186.47L47.6554 186.822ZM47.59 183.927C47.6059 183.544 47.9236 183.234 48.2996 183.236C48.6756 183.237 48.9676 183.549 48.9517 183.932L47.59 183.927ZM49.0597 174.023C49.0597 174.407 48.7546 174.729 48.3782 174.744C48.0019 174.759 47.6968 174.46 47.6968 174.077L49.0597 174.023ZM47.7234 170.114C47.7298 169.73 48.04 169.413 48.4163 169.404C48.7926 169.396 49.0925 169.7 49.0861 170.083L47.7234 170.114ZM49.754 160.297C49.7009 160.678 49.3559 160.955 48.9833 160.916C48.6107 160.877 48.3516 160.536 48.4047 160.154L49.754 160.297ZM49.0947 156.104C49.166 155.725 49.5233 155.465 49.8929 155.523C50.2624 155.581 50.5043 155.935 50.433 156.314L49.0947 156.104ZM52.513 146.095C52.4335 146.472 52.0709 146.725 51.703 146.658C51.3352 146.592 51.1013 146.232 51.1808 145.854L52.513 146.095ZM52.0311 141.768C52.1084 141.389 52.4696 141.135 52.8379 141.199C53.2063 141.263 53.4422 141.622 53.3649 142L52.0311 141.768ZM55.2498 131.698C55.1915 132.079 54.8429 132.351 54.4711 132.306C54.0992 132.262 53.845 131.917 53.9033 131.536L55.2498 131.698ZM54.4622 127.429C54.5073 127.047 54.8468 126.762 55.2204 126.794C55.5941 126.825 55.8604 127.16 55.8153 127.542L54.4622 127.429ZM56.4589 117.087C56.4597 117.471 56.1553 117.794 55.7789 117.81C55.4026 117.825 55.0968 117.527 55.0959 117.144L56.4589 117.087ZM55.0325 113.51C55.0302 113.127 55.3335 112.803 55.7098 112.786C56.0862 112.769 56.3931 113.065 56.3953 113.448L55.0325 113.51ZM56.7393 105.685C56.7072 106.068 56.3772 106.364 56.0022 106.346C55.6272 106.328 55.3492 106.003 55.3813 105.62L56.7393 105.685ZM55.6754 102.48C55.7145 102.098 56.0496 101.808 56.4239 101.833C56.7983 101.858 57.0701 102.188 57.031 102.571L55.6754 102.48ZM57.884 94.7652C57.8431 95.1477 57.5067 95.4361 57.1326 95.4093C56.7585 95.3824 56.4883 95.0506 56.5291 94.668L57.884 94.7652ZM56.8414 91.5527C56.8767 91.1698 57.2091 90.8765 57.5838 90.8977C57.9585 90.9189 58.2336 91.2465 58.1983 91.6294L56.8414 91.5527ZM58.654 83.7474C58.649 84.1308 58.3399 84.4494 57.9635 84.4591C57.5872 84.4688 57.2862 84.1659 57.2913 83.7825L58.654 83.7474ZM57.3571 80.2425C57.3862 79.8593 57.714 79.5607 58.0892 79.5755C58.4645 79.5904 58.7451 79.913 58.716 80.2962L57.3571 80.2425ZM61.3764 71.3134C61.1976 71.6576 60.7841 71.7996 60.453 71.6306C60.1218 71.4615 59.9983 71.0454 60.1772 70.7012L61.3764 71.3134ZM62.2291 67.2807C62.4472 66.9598 62.8727 66.8698 63.1794 67.0798C63.4861 67.2898 63.558 67.7201 63.34 68.041L62.2291 67.2807ZM69.5398 60.7074C69.2661 60.9813 68.8349 60.9858 68.5764 60.7174C68.318 60.449 68.3303 60.0093 68.6039 59.7354L69.5398 60.7074ZM71.4449 57.0221C71.7302 56.761 72.1605 56.777 72.4059 57.0578C72.6513 57.3387 72.619 57.778 72.3336 58.0391L71.4449 57.0221ZM79.7084 51.7778C79.4072 52.0195 78.9801 51.9739 78.7545 51.6762C78.5288 51.3784 78.59 50.9411 78.8912 50.6995L79.7084 51.7778ZM81.8639 48.3613C82.1709 48.1274 82.5962 48.1843 82.814 48.4882C83.0318 48.7921 82.9596 49.2281 82.6526 49.4619L81.8639 48.3613ZM90.0551 44.3699C89.7275 44.5714 89.3117 44.4703 89.1265 44.144C88.9412 43.8178 89.0567 43.3899 89.3843 43.1884L90.0551 44.3699ZM92.5324 41.3448C92.868 41.1581 93.2782 41.2782 93.4486 41.6132C93.619 41.9481 93.4851 42.371 93.1496 42.5577L92.5324 41.3448ZM101.184 38.6638C100.831 38.8107 100.439 38.6425 100.308 38.2883C100.178 37.934 100.358 37.5278 100.711 37.381L101.184 38.6638ZM104.088 36.0649C104.446 35.9343 104.83 36.1208 104.944 36.4813C105.059 36.8419 104.861 37.2401 104.502 37.3706L104.088 36.0649ZM112.995 34.7818C112.626 34.8741 112.265 34.6471 112.189 34.2749C112.113 33.9026 112.35 33.5261 112.718 33.4339L112.995 34.7818ZM116.222 32.625C116.593 32.5462 116.945 32.7866 117.008 33.162C117.071 33.5373 116.821 33.9054 116.45 33.9841L116.222 32.625ZM125.177 32.4813C124.802 32.5327 124.47 32.2663 124.434 31.8862C124.398 31.5062 124.672 31.1565 125.047 31.1051L125.177 32.4813ZM128.589 30.66C128.964 30.6169 129.291 30.8908 129.319 31.2719C129.347 31.6529 129.065 31.9968 128.69 32.0399L128.589 30.66ZM137.505 31.2114C137.129 31.2404 136.813 30.9539 136.799 30.5715C136.785 30.1891 137.078 29.8557 137.455 29.8267L137.505 31.2114ZM141.174 29.5503C141.55 29.5218 141.866 29.8087 141.879 30.1911C141.893 30.5736 141.599 30.9067 141.223 30.9352L141.174 29.5503ZM150.961 30.1615C150.585 30.1913 150.268 29.9054 150.254 29.5231C150.239 29.1408 150.532 28.8067 150.908 28.777L150.961 30.1615ZM154.807 28.4783C155.183 28.4507 155.498 28.7383 155.511 29.1208C155.523 29.5033 155.229 29.8358 154.852 29.8634L154.807 28.4783ZM164.573 29.2846C164.196 29.3 163.891 29.0019 163.89 28.6187C163.889 28.2355 164.194 27.9124 164.57 27.897L164.573 29.2846ZM168.482 27.7763C168.858 27.7688 169.157 28.0735 169.15 28.4569C169.143 28.8403 168.832 29.1572 168.456 29.1647L168.482 27.7763ZM178.132 29.3134C177.758 29.2921 177.483 28.9645 177.518 28.5816C177.553 28.1987 177.886 27.9056 178.261 27.9268L178.132 29.3134ZM182.16 28.2274C182.533 28.2641 182.794 28.6033 182.743 28.9851C182.693 29.3668 182.35 29.6464 181.977 29.6097L182.16 28.2274ZM191.439 31.1529C191.076 31.0667 190.862 30.694 190.96 30.3203C191.059 29.9466 191.433 29.7135 191.796 29.7996L191.439 31.1529ZM195.583 30.8272C195.94 30.9358 196.131 31.322 196.011 31.6897C195.89 32.0575 195.503 32.2676 195.147 32.159L195.583 30.8272ZM204.109 35.6657C203.774 35.5029 203.643 35.0895 203.816 34.7423C203.989 34.395 204.4 34.2455 204.734 34.4082L204.109 35.6657ZM208.211 36.2447C208.534 36.4292 208.638 36.8512 208.445 37.1875C208.251 37.5237 207.833 37.6467 207.51 37.4623L208.211 36.2447ZM215.427 42.903C215.138 42.668 215.101 42.2318 215.343 41.9288C215.585 41.6258 216.015 41.5707 216.303 41.8057L215.427 42.903ZM219.271 44.3863C219.544 44.6392 219.555 45.0779 219.296 45.3662C219.037 45.6545 218.606 45.6831 218.333 45.4302L219.271 44.3863ZM224.909 52.4881C224.675 52.1978 224.723 51.7594 225.017 51.5087C225.311 51.258 225.74 51.2901 225.974 51.5803L224.909 52.4881ZM228.295 54.5483C228.525 54.8423 228.471 55.2802 228.173 55.5264C227.875 55.7726 227.447 55.7338 227.217 55.4398L228.295 54.5483ZM232.948 62.4237C232.706 62.1405 232.742 61.7013 233.029 61.4428C233.317 61.1842 233.747 61.2041 233.99 61.4873L232.948 62.4237ZM236.348 64.1938C236.595 64.4731 236.565 64.9125 236.282 65.1753C235.998 65.4382 235.567 65.4248 235.32 65.1456L236.348 64.1938ZM241.413 71.7923C241.156 71.5217 241.172 71.082 241.448 70.8103C241.724 70.5386 242.155 70.5376 242.411 70.8082L241.413 71.7923ZM244.893 73.4002C245.153 73.6679 245.141 74.1075 244.869 74.3821C244.596 74.6568 244.164 74.6624 243.905 74.3948L244.893 73.4002ZM250.245 80.7864C249.98 80.5248 249.982 80.0854 250.249 79.805C250.516 79.5246 250.947 79.5093 251.212 79.7709L250.245 80.7864ZM253.776 82.2834C254.043 82.5432 254.044 82.9824 253.779 83.2646C253.514 83.5467 253.082 83.5649 252.815 83.3051L253.776 82.2834ZM259.3 89.5347C259.03 89.2782 259.024 88.8391 259.286 88.5541C259.548 88.269 259.98 88.2459 260.25 88.5024L259.3 89.5347ZM262.856 90.9734C263.127 91.2292 263.134 91.6682 262.872 91.9539C262.61 92.2396 262.179 92.2638 261.908 92.008L262.856 90.9734ZM268.443 98.1733C268.172 97.9178 268.164 97.4788 268.426 97.1929C268.687 96.9069 269.119 96.8822 269.389 97.1377L268.443 98.1733ZM271.933 99.5486C272.201 99.8064 272.205 100.246 271.942 100.529C271.678 100.813 271.247 100.834 270.978 100.577L271.933 99.5486ZM276.937 106.608C276.683 106.335 276.703 105.896 276.981 105.626C277.259 105.357 277.69 105.36 277.943 105.633L276.937 106.608ZM280.241 108.178C280.487 108.459 280.455 108.898 280.17 109.159C279.885 109.421 279.455 109.405 279.209 109.125L280.241 108.178ZM284.51 115.736C284.29 115.434 284.36 114.997 284.665 114.762C284.971 114.526 285.397 114.58 285.616 114.883L284.51 115.736ZM287.583 117.717C287.789 118.029 287.702 118.463 287.387 118.685C287.072 118.908 286.65 118.836 286.443 118.523L287.583 117.717ZM290.687 125.874C290.521 125.537 290.659 125.115 290.997 124.932C291.334 124.75 291.743 124.874 291.909 125.212L290.687 125.874ZM293.364 128.371C293.512 128.718 293.351 129.132 293.005 129.296C292.659 129.46 292.259 129.313 292.111 128.966L293.364 128.371ZM294.877 137.038C294.781 136.671 294.998 136.283 295.362 136.171C295.726 136.059 296.099 136.266 296.195 136.633L294.877 137.038ZM297.061 140.555C297.126 140.93 296.879 141.3 296.508 141.381C296.137 141.462 295.784 141.223 295.719 140.849L297.061 140.555ZM296.001 151.799C296.049 151.417 296.391 151.135 296.764 151.17C297.138 151.204 297.401 151.542 297.353 151.924L296.001 151.799ZM296.497 156.445C296.402 156.819 296.03 157.057 295.666 156.974C295.302 156.892 295.083 156.522 295.178 156.148L296.497 156.445ZM290.979 166.436C291.171 166.098 291.589 165.972 291.913 166.155C292.237 166.337 292.344 166.758 292.153 167.095L290.979 166.436ZM289.897 170.758C289.686 171.083 289.263 171.183 288.951 170.981C288.639 170.778 288.558 170.35 288.769 170.024L289.897 170.758ZM283.104 178.104C283.338 177.795 283.767 177.728 284.061 177.955C284.356 178.182 284.405 178.617 284.171 178.926L283.104 178.104ZM281.716 182.07C281.472 182.372 281.042 182.425 280.755 182.189C280.468 181.952 280.432 181.516 280.675 181.214L281.716 182.07ZM274.212 188.658C274.477 188.375 274.908 188.355 275.176 188.614C275.444 188.873 275.446 189.312 275.181 189.595L274.212 188.658ZM272.417 192.464C272.144 192.739 271.713 192.745 271.453 192.478C271.194 192.21 271.205 191.771 271.478 191.496L272.417 192.464ZM264.295 198.222C264.587 197.969 265.016 197.996 265.254 198.283C265.492 198.571 265.448 199.01 265.157 199.263L264.295 198.222ZM262.122 201.83C261.824 202.075 261.396 202.035 261.167 201.74C260.937 201.445 260.994 201.007 261.292 200.762L262.122 201.83ZM253.491 206.724C253.805 206.5 254.228 206.572 254.435 206.884C254.642 207.196 254.556 207.629 254.241 207.853L253.491 206.724ZM250.981 210.104C250.661 210.318 250.241 210.234 250.043 209.916C249.844 209.599 249.943 209.167 250.263 208.953L250.981 210.104ZM241.954 214.135C242.287 213.943 242.699 214.055 242.875 214.387C243.052 214.718 242.925 215.143 242.593 215.336L241.954 214.135ZM239.153 217.272C238.816 217.456 238.407 217.332 238.24 216.996C238.072 216.66 238.209 216.238 238.546 216.054L239.153 217.272ZM229.838 220.472C230.184 220.309 230.584 220.458 230.731 220.805C230.878 221.152 230.716 221.566 230.369 221.729L229.838 220.472ZM226.785 223.34C226.432 223.486 226.04 223.318 225.91 222.964C225.779 222.61 225.959 222.204 226.312 222.057L226.785 223.34ZM217.252 225.044C217.62 224.951 217.982 225.177 218.059 225.549C218.136 225.921 217.9 226.298 217.532 226.391L217.252 225.044ZM213.75 227.247C213.378 227.322 213.029 227.077 212.97 226.701C212.911 226.325 213.164 225.96 213.536 225.885L213.75 227.247ZM204.129 227.264C204.505 227.227 204.827 227.507 204.849 227.888C204.87 228.27 204.583 228.609 204.208 228.646L204.129 227.264ZM200.378 228.961C200.002 228.986 199.688 228.696 199.678 228.313C199.668 227.931 199.965 227.6 200.341 227.575L200.378 228.961ZM190.852 227.906C191.228 227.903 191.523 228.212 191.511 228.595C191.5 228.979 191.185 229.292 190.809 229.295L190.852 227.906ZM187.227 229.298C186.851 229.297 186.558 228.985 186.574 228.602C186.589 228.218 186.907 227.908 187.283 227.909L187.227 229.298ZM178.93 227.875C179.306 227.876 179.598 228.189 179.582 228.572C179.565 228.956 179.247 229.265 178.871 229.264L178.93 227.875ZM175.531 229.251C175.155 229.249 174.863 228.937 174.878 228.554C174.894 228.171 175.212 227.861 175.588 227.862L175.531 229.251ZM167.227 227.866C167.603 227.864 167.897 228.173 167.885 228.556C167.872 228.94 167.557 229.252 167.181 229.254L167.227 227.866ZM163.842 229.281C163.465 229.285 163.169 228.977 163.18 228.594C163.19 228.21 163.504 227.896 163.88 227.892L163.842 229.281ZM155.508 228.055C155.884 228.044 156.186 228.346 156.182 228.729C156.179 229.113 155.871 229.432 155.494 229.444L155.508 228.055ZM152.156 229.558C151.78 229.573 151.475 229.274 151.475 228.891C151.475 228.507 151.78 228.185 152.157 228.17L152.156 229.558ZM143.777 228.615C144.153 228.589 144.466 228.879 144.477 229.261C144.488 229.644 144.192 229.975 143.815 230.001L143.777 228.615ZM140.482 230.251C140.106 230.282 139.788 229.997 139.773 229.615C139.757 229.233 140.049 228.898 140.425 228.867L140.482 230.251ZM132.053 229.715C132.428 229.669 132.757 229.941 132.787 230.322C132.818 230.702 132.538 231.048 132.163 231.094L132.053 229.715ZM128.91 231.517C128.536 231.568 128.203 231.301 128.167 230.921C128.132 230.541 128.407 230.191 128.781 230.14L128.91 231.517ZM120.799 231.298C121.173 231.241 121.51 231.502 121.552 231.881C121.593 232.26 121.324 232.614 120.95 232.671L120.799 231.298ZM117.767 233.164C117.393 233.222 117.055 232.962 117.012 232.584C116.969 232.205 117.237 231.85 117.611 231.791L117.767 233.164ZM109.649 233.067C110.023 233.006 110.362 233.264 110.407 233.643C110.452 234.021 110.186 234.378 109.812 234.438L109.649 233.067ZM106.63 234.955C106.256 235.016 105.917 234.758 105.871 234.379C105.826 234.001 106.093 233.645 106.466 233.584L106.63 234.955ZM98.5115 234.859C98.8854 234.8 99.2234 235.06 99.2666 235.439C99.3097 235.818 99.0416 236.172 98.6677 236.231L98.5115 234.859ZM95.1944 236.745C94.8194 236.792 94.4891 236.523 94.4565 236.142C94.4239 235.762 94.7015 235.415 95.0764 235.367L95.1944 236.745ZM85.8611 235.807C86.2362 235.825 86.5146 236.149 86.4831 236.532C86.4515 236.915 86.1219 237.212 85.7469 237.195L85.8611 235.807ZM81.9751 236.843C81.6047 236.79 81.3583 236.439 81.4248 236.059C81.4913 235.68 81.8456 235.415 82.216 235.468L81.9751 236.843ZM73.5705 232.895C73.9055 233.057 74.0378 233.47 73.8662 233.818C73.6946 234.166 73.2839 234.316 72.949 234.155L73.5705 232.895ZM69.6671 232.291C69.3569 232.086 69.2781 231.657 69.4912 231.333C69.7043 231.009 70.1285 230.912 70.4388 231.116L69.6671 232.291ZM63.7456 225.065C63.9863 225.35 63.9467 225.789 63.6573 226.046C63.3679 226.302 62.9383 226.279 62.6977 225.994L63.7456 225.065ZM60.3989 223.014C60.1828 222.708 60.2574 222.273 60.5655 222.041C60.8737 221.808 61.2987 221.868 61.5148 222.173L60.3989 223.014ZM56.8143 214.255C56.9843 214.59 56.8498 215.013 56.5141 215.199C56.1783 215.386 55.7683 215.265 55.5983 214.93L56.8143 214.255ZM53.9526 211.455C53.8042 211.108 53.9642 210.694 54.31 210.529C54.6559 210.364 55.0566 210.512 55.205 210.858L53.9526 211.455ZM52.2124 201.734C52.305 202.102 52.0844 202.488 51.7196 202.597C51.3548 202.705 50.984 202.495 50.8914 202.127L52.2124 201.734ZM50.002 198.304C49.9216 197.933 50.1545 197.554 50.5222 197.458C50.8898 197.361 51.2531 197.584 51.3335 197.955L50.002 198.304ZM49.3939 188.388C49.471 188.76 49.2349 189.137 48.8665 189.23C48.4981 189.323 48.137 189.097 48.0599 188.725L49.3939 188.388ZM47.4875 185.888C47.5292 185.235 47.5629 184.581 47.59 183.927L48.9517 183.932C48.9242 184.596 48.89 185.26 48.8475 185.925L47.4875 185.888ZM47.6968 174.077C47.6968 172.759 47.7015 171.437 47.7234 170.114L49.0861 170.083C49.0644 171.396 49.0597 172.708 49.0597 174.023L47.6968 174.077ZM48.4047 160.154C48.4967 159.492 48.6007 158.83 48.718 158.166L50.0591 158.36C49.9449 159.006 49.8437 159.651 49.754 160.297L48.4047 160.154ZM48.7181 158.165C48.84 157.478 48.9658 156.791 49.0947 156.104L50.433 156.314C50.3049 156.996 50.18 157.678 50.059 158.361L48.7181 158.165ZM51.1808 145.854C51.4674 144.491 51.7526 143.13 52.0311 141.768L53.3649 142C53.0856 143.366 52.7997 144.731 52.513 146.095L51.1808 145.854ZM53.9033 131.536C54.1123 130.169 54.3004 128.801 54.4622 127.429L55.8153 127.542C55.6514 128.932 55.4609 130.317 55.2498 131.698L53.9033 131.536ZM55.0959 117.144C55.0944 116.461 55.0833 115.777 55.0619 115.091L56.4241 114.994C56.446 115.693 56.4573 116.391 56.4589 117.087L55.0959 117.144ZM55.0619 115.092C55.0452 114.565 55.0356 114.038 55.0325 113.51L56.3953 113.448C56.3984 113.965 56.4078 114.48 56.4241 114.993L55.0619 115.092ZM55.3813 105.62C55.4689 104.574 55.5686 103.527 55.6754 102.48L57.031 102.571C56.9248 103.612 56.8259 104.65 56.7393 105.685L55.3813 105.62ZM56.5291 94.668C56.6401 93.6276 56.7458 92.5891 56.8414 91.5527L58.1983 91.6294C58.1019 92.6747 57.9955 93.7203 57.884 94.7652L56.5291 94.668ZM57.2913 83.7825C57.298 83.2655 57.2991 82.7494 57.2937 82.2345L58.6565 82.1661C58.662 82.6927 58.661 83.2198 58.654 83.7474L57.2913 83.7825ZM57.2937 82.2356C57.2857 81.564 57.3072 80.8997 57.3571 80.2425L58.716 80.2962C58.6692 80.912 58.649 81.5347 58.6565 82.1651L57.2937 82.2356ZM60.1772 70.7012C60.7801 69.5408 61.4673 68.4018 62.2291 67.2807L63.34 68.041C62.6071 69.1194 61.9501 70.2091 61.3764 71.3134L60.1772 70.7012ZM68.6039 59.7354C69.5127 58.8258 70.4615 57.9221 71.4449 57.0221L72.3336 58.0391C71.3642 58.9264 70.4312 59.8151 69.5398 60.7074L68.6039 59.7354ZM78.8912 50.6995C79.3953 50.2951 79.9039 49.8903 80.4165 49.4849L81.2258 50.5696C80.7155 50.9731 80.2096 51.3758 79.7084 51.7778L78.8912 50.6995ZM80.4165 49.4849C80.8997 49.1028 81.3822 48.7283 81.8639 48.3613L82.6526 49.4619C82.1779 49.8236 81.7023 50.1928 81.2258 50.5696L80.4165 49.4849ZM89.3843 43.1884C90.4346 42.5423 91.4837 41.9284 92.5324 41.3448L93.1496 42.5577C92.119 43.1312 91.0878 43.7347 90.0551 44.3699L89.3843 43.1884ZM100.711 37.381C101.834 36.9137 102.959 36.4758 104.088 36.0649L104.502 37.3706C103.393 37.7745 102.287 38.2048 101.184 38.6638L100.711 37.381ZM112.718 33.4339C113.88 33.1432 115.047 32.8743 116.222 32.625L116.45 33.9841C115.291 34.2302 114.139 34.4953 112.995 34.7818L112.718 33.4339ZM125.047 31.1051C126.218 30.9445 127.398 30.7969 128.589 30.66L128.69 32.0399C127.508 32.1757 126.338 32.3222 125.177 32.4813L125.047 31.1051ZM137.455 29.8267C138.043 29.7813 138.634 29.7373 139.229 29.6944L139.273 31.0796C138.68 31.1224 138.091 31.1663 137.505 31.2114L137.455 29.8267ZM139.229 29.6944C139.877 29.6476 140.525 29.5994 141.174 29.5503L141.223 30.9352C140.573 30.9844 139.923 31.0327 139.273 31.0796L139.229 29.6944ZM150.908 28.777C152.21 28.6741 153.51 28.5736 154.807 28.4783L154.852 29.8634C153.559 29.9585 152.262 30.0587 150.961 30.1615L150.908 28.777ZM164.57 27.897C165.88 27.8433 167.184 27.8021 168.482 27.7763L168.456 29.1647C167.169 29.1903 165.874 29.2312 164.573 29.2846L164.57 27.897ZM178.261 27.9268C179.57 28.0012 180.87 28.1003 182.16 28.2274L181.977 29.6097C180.707 29.4846 179.425 29.3868 178.132 29.3134L178.261 27.9268ZM191.796 29.7996C192.431 29.9501 193.062 30.1103 193.689 30.2807L193.291 31.6235C192.678 31.4569 192.06 31.3002 191.439 31.1529L191.796 29.7996ZM193.69 30.2809C194.327 30.4547 194.958 30.6368 195.583 30.8272L195.147 32.159C194.534 31.9725 193.915 31.7939 193.29 31.6233L193.69 30.2809ZM204.734 34.4082C205.919 34.9847 207.078 35.597 208.211 36.2447L207.51 37.4623C206.401 36.8287 205.268 36.2298 204.109 35.6657L204.734 34.4082ZM216.303 41.8057C217.315 42.6312 218.304 43.4916 219.271 44.3863L218.333 45.4302C217.386 44.5536 216.418 43.7112 215.427 42.903L216.303 41.8057ZM225.974 51.5803C226.386 52.0888 226.792 52.605 227.194 53.1288L226.108 54.01C225.713 53.495 225.314 52.9876 224.909 52.4881L225.974 51.5803ZM227.194 53.1287C227.559 53.6039 227.926 54.077 228.295 54.5483L227.217 55.4398C226.845 54.9652 226.476 54.4887 226.108 54.0101L227.194 53.1287ZM233.99 61.4873C234.769 62.3957 235.555 63.2977 236.348 64.1938L235.32 65.1456C234.523 64.2446 233.732 63.3375 232.948 62.4237L233.99 61.4873ZM242.411 70.8082C243.233 71.6767 244.061 72.5405 244.893 73.4002L243.905 74.3948C243.069 73.5318 242.238 72.6644 241.413 71.7923L242.411 70.8082ZM251.212 79.7709C252.064 80.6111 252.919 81.4485 253.776 82.2834L252.815 83.3051C251.956 82.4683 251.099 81.6289 250.245 80.7864L251.212 79.7709ZM260.25 88.5024C261.117 89.327 261.986 90.1505 262.856 90.9734L261.908 92.008C261.038 91.1846 260.168 90.3603 259.3 89.5347L260.25 88.5024ZM269.389 97.1377C269.825 97.5488 270.26 97.9601 270.696 98.3715L269.748 99.4065C269.313 98.9953 268.878 98.5842 268.443 98.1733L269.389 97.1377ZM270.695 98.3712C271.109 98.7618 271.522 99.1542 271.933 99.5486L270.978 100.577C270.57 100.185 270.16 99.795 269.749 99.4068L270.695 98.3712ZM277.943 105.633C278.722 106.471 279.489 107.319 280.241 108.178L279.209 109.125C278.465 108.276 277.707 107.437 276.937 106.608L277.943 105.633ZM285.616 114.883C286.292 115.813 286.948 116.757 287.583 117.717L286.443 118.523C285.82 117.58 285.174 116.652 284.51 115.736L285.616 114.883ZM291.909 125.212C292.421 126.247 292.907 127.3 293.364 128.371L292.111 128.966C291.663 127.918 291.188 126.888 290.687 125.874L291.909 125.212ZM296.195 136.633C296.342 137.196 296.481 137.765 296.613 138.338L295.285 138.703C295.157 138.143 295.021 137.588 294.877 137.038L296.195 136.633ZM296.613 138.338C296.784 139.079 296.933 139.818 297.061 140.555L295.719 140.849C295.595 140.137 295.451 139.422 295.285 138.704L296.613 138.338ZM297.353 151.924C297.16 153.443 296.875 154.95 296.497 156.445L295.178 156.148C295.541 154.709 295.816 153.26 296.001 151.799L297.353 151.924ZM292.153 167.095C291.778 167.758 291.383 168.417 290.971 169.074L289.831 168.358C290.232 167.719 290.615 167.079 290.979 166.436L292.153 167.095ZM290.971 169.074C290.616 169.639 290.259 170.2 289.897 170.758L288.769 170.024C289.126 169.473 289.48 168.917 289.831 168.358L290.971 169.074ZM284.171 178.926C283.366 179.988 282.547 181.036 281.716 182.07L280.675 181.214C281.498 180.192 282.308 179.155 283.104 178.104L284.171 178.926ZM275.181 189.595C274.273 190.566 273.351 191.523 272.417 192.464L271.478 191.496C272.402 190.564 273.314 189.618 274.212 188.658L275.181 189.595ZM265.157 199.263C264.158 200.133 263.146 200.989 262.122 201.83L261.292 200.762C262.305 199.93 263.306 199.083 264.295 198.222L265.157 199.263ZM254.241 207.853C253.166 208.617 252.079 209.367 250.981 210.104L250.263 208.953C251.35 208.223 252.426 207.48 253.491 206.724L254.241 207.853ZM242.593 215.336C241.457 215.995 240.31 216.64 239.153 217.272L238.546 216.054C239.692 215.427 240.828 214.788 241.954 214.135L242.593 215.336ZM230.369 221.729C229.776 222.008 229.181 222.284 228.583 222.556L228.067 221.292C228.659 221.022 229.25 220.748 229.838 220.472L230.369 221.729ZM228.583 222.556C227.987 222.828 227.388 223.089 226.785 223.34L226.312 222.057C226.901 221.812 227.486 221.557 228.067 221.292L228.583 222.556ZM217.532 226.391C216.28 226.708 215.018 226.992 213.75 227.247L213.536 225.885C214.784 225.634 216.023 225.355 217.252 225.044L217.532 226.391ZM204.208 228.646C202.934 228.772 201.657 228.876 200.378 228.961L200.341 227.575C201.607 227.491 202.87 227.388 204.129 227.264L204.208 228.646ZM190.809 229.295C190.172 229.3 189.535 229.302 188.899 229.301L188.953 227.912C189.585 227.913 190.218 227.911 190.852 227.906L190.809 229.295ZM188.898 229.301C188.341 229.3 187.784 229.299 187.227 229.298L187.283 227.909C187.839 227.91 188.396 227.912 188.953 227.912L188.898 229.301ZM178.871 229.264C177.758 229.259 176.644 229.254 175.531 229.251L175.588 227.862C176.702 227.865 177.816 227.87 178.93 227.875L178.871 229.264ZM167.181 229.254C166.068 229.26 164.955 229.269 163.842 229.281L163.88 227.892C164.996 227.88 166.111 227.872 167.227 227.866L167.181 229.254ZM155.494 229.444C154.381 229.476 153.269 229.514 152.156 229.558L152.157 228.17C153.274 228.126 154.391 228.088 155.508 228.055L155.494 229.444ZM143.815 230.001C142.704 230.077 141.593 230.16 140.482 230.251L140.425 228.867C141.542 228.775 142.659 228.691 143.777 228.615L143.815 230.001ZM132.163 231.094C131.609 231.161 131.056 231.231 130.502 231.303L130.381 229.926C130.938 229.853 131.496 229.783 132.053 229.715L132.163 231.094ZM130.503 231.303C129.972 231.373 129.441 231.444 128.91 231.517L128.781 230.14C129.314 230.068 129.847 229.996 130.38 229.926L130.503 231.303ZM120.95 232.671C119.889 232.833 118.828 232.997 117.767 233.164L117.611 231.791C118.674 231.624 119.736 231.46 120.799 231.298L120.95 232.671ZM109.812 234.438C108.756 234.61 107.686 234.784 106.63 234.955L106.466 233.584C107.532 233.411 108.583 233.24 109.649 233.067L109.812 234.438ZM98.6677 236.231C98.1364 236.314 97.6052 236.397 97.074 236.479L96.9204 235.107C97.4507 235.024 97.981 234.942 98.5115 234.859L98.6677 236.231ZM97.0734 236.479C96.4383 236.577 95.8121 236.666 95.1944 236.745L95.0764 235.367C95.6823 235.289 96.297 235.203 96.921 235.106L97.0734 236.479ZM85.7469 237.195C84.4458 237.134 83.1895 237.017 81.9751 236.843L82.216 235.468C83.3861 235.636 84.6 235.749 85.8611 235.807L85.7469 237.195ZM72.949 234.155C71.811 233.606 70.7185 232.984 69.6671 232.291L70.4388 231.116C71.4427 231.779 72.4851 232.372 73.5705 232.895L72.949 234.155ZM62.6977 225.994C61.9074 225.057 61.1423 224.064 60.3989 223.014L61.5148 222.173C62.2384 223.195 62.981 224.159 63.7456 225.065L62.6977 225.994ZM55.5983 214.93C55.3183 214.378 55.0407 213.815 54.7653 213.243L55.9935 212.593C56.2651 213.158 56.5386 213.712 56.8143 214.255L55.5983 214.93ZM54.7653 213.243C54.4804 212.651 54.2099 212.055 53.9526 211.455L55.205 210.858C55.455 211.441 55.7174 212.02 55.9935 212.593L54.7653 213.243ZM50.8914 202.127C50.5719 200.858 50.2789 199.583 50.002 198.304L51.3335 197.955C51.608 199.223 51.8975 200.483 52.2124 201.734L50.8914 202.127ZM48.0599 188.725C47.9281 188.089 47.7937 187.454 47.6554 186.822L48.9863 186.47C49.1259 187.109 49.2613 187.748 49.3939 188.388L48.0599 188.725Z" fill="black"/>
<g clip-path="url(#clip1_190_20420)">
<path d="M295.75 20.75L308.25 33.25" stroke="#292929" stroke-width="2.5" stroke-linecap="round" stroke-linejoin="round"/>
<path d="M295.75 33.25L308.25 20.75" stroke="#292929" stroke-width="2.5" stroke-linecap="round" stroke-linejoin="round"/>
</g>
<path d="M84.6704 55.2547C83.2966 46.6383 89.9535 38.8359 98.6788 38.8359H173.86C180.832 38.8359 186.771 43.9026 187.869 50.7878L212.783 207.054C214.157 215.67 207.5 223.472 198.775 223.472H123.593C116.621 223.472 110.683 218.406 109.585 211.521L84.6704 55.2547Z" fill="#FDD32A"/>
<path d="M109.585 211.521L108.709 211.66L109.585 211.521ZM187.869 50.7878L188.744 50.6482L187.869 50.7878ZM98.6788 39.7225H173.86V37.9494H98.6788V39.7225ZM186.993 50.9274L211.907 207.193L213.658 206.914L188.744 50.6482L186.993 50.9274ZM198.775 222.586H123.593V224.359H198.775V222.586ZM110.46 211.381L85.5459 55.1151L83.7949 55.3943L108.709 211.66L110.46 211.381ZM123.593 222.586C117.057 222.586 111.489 217.836 110.46 211.381L108.709 211.66C109.876 218.976 116.185 224.359 123.593 224.359V222.586ZM211.907 207.193C213.195 215.271 206.954 222.586 198.775 222.586V224.359C208.045 224.359 215.118 216.069 213.658 206.914L211.907 207.193ZM173.86 39.7225C180.397 39.7225 185.964 44.4725 186.993 50.9274L188.744 50.6482C187.578 43.3327 181.268 37.9494 173.86 37.9494V39.7225ZM98.6788 37.9494C89.4082 37.9494 82.3353 46.2394 83.7949 55.3943L85.5459 55.1151C84.258 47.0372 90.4989 39.7225 98.6788 39.7225V37.9494Z" fill="black"/>
<path d="M147.564 53.3555L152.257 53.3555" stroke="black" stroke-width="1.77316" stroke-linejoin="round"/>
<path d="M115.759 53.3555H140.09" stroke="black" stroke-width="1.77316" stroke-linejoin="round"/>
<path d="M96.6421 67.2568H200.553L221.586 199.081H117.676L96.6421 67.2568Z" fill="white" stroke="black" stroke-width="1.77316"/>
<path d="M196.998 137.627C197.4 139.714 195.802 141.65 193.677 141.65L147.532 141.65C145.886 141.65 144.478 140.465 144.198 138.843C143.841 136.775 145.433 134.884 147.532 134.884L193.677 134.884C195.298 134.884 196.692 136.035 196.998 137.627Z" fill="#FDD32A" stroke="black" stroke-width="1.77316"/>
<path d="M177.504 85.7905C177.906 87.8772 176.307 89.8135 174.182 89.8135L116.216 89.8135C114.57 89.8135 113.163 88.6284 112.883 87.0063C112.526 84.9383 114.118 83.0475 116.216 83.0475L174.182 83.0475C175.804 83.0475 177.197 84.1982 177.504 85.7905Z" fill="white" stroke="black" stroke-width="1.77316"/>
<path d="M198.923 154.386C199.325 156.473 197.726 158.409 195.601 158.409L167.188 158.409C165.542 158.409 164.134 157.224 163.854 155.602C163.497 153.534 165.089 151.643 167.188 151.643L195.601 151.643C197.222 151.643 198.616 152.794 198.923 154.386Z" fill="#FDD32A" stroke="black" stroke-width="1.77316"/>
<path fill-rule="evenodd" clip-rule="evenodd" d="M240.125 124.892C248.005 124.892 253.933 117.713 252.442 109.976C251.305 104.072 246.138 99.8057 240.125 99.8057L134.776 99.8057C126.995 99.8057 121.092 106.816 122.416 114.484C122.761 116.483 123.568 118.304 124.716 119.843L119.667 124.893H140.529V124.892L240.125 124.892Z" fill="white"/>
<path d="M252.442 109.976L251.572 110.144V110.144L252.442 109.976ZM240.125 124.892V124.006V124.892ZM240.125 99.8057V100.692V99.8057ZM134.776 99.8057V98.9191V99.8057ZM122.416 114.484L123.29 114.333L122.416 114.484ZM124.716 119.843L125.343 120.47L125.886 119.928L125.427 119.313L124.716 119.843ZM119.667 124.893L119.04 124.266L117.526 125.779H119.667V124.893ZM140.529 124.893V125.779H141.415V124.893H140.529ZM140.529 124.892V124.006H139.642V124.892H140.529ZM251.572 110.144C252.957 117.334 247.448 124.006 240.125 124.006V125.779C248.561 125.779 254.909 118.092 253.313 109.808L251.572 110.144ZM240.125 100.692C245.713 100.692 250.515 104.657 251.572 110.144L253.313 109.808C252.095 103.487 246.563 98.9191 240.125 98.9191V100.692ZM134.776 100.692L240.125 100.692V98.9191L134.776 98.9191L134.776 100.692ZM123.29 114.333C122.059 107.207 127.545 100.692 134.776 100.692L134.776 98.9191C126.445 98.9191 120.124 106.425 121.542 114.635L123.29 114.333ZM125.427 119.313C124.361 117.883 123.611 116.192 123.29 114.333L121.542 114.635C121.912 116.775 122.776 118.724 124.006 120.373L125.427 119.313ZM120.293 125.52L125.343 120.47L124.089 119.216L119.04 124.266L120.293 125.52ZM140.529 124.006H119.667V125.779H140.529V124.006ZM139.642 124.892V124.893H141.415V124.892H139.642ZM240.125 124.006L140.529 124.006V125.779L240.125 125.779V124.006Z" fill="black"/>
<path fill-rule="evenodd" clip-rule="evenodd" d="M141.248 185.189C135.974 185.189 132.007 180.385 133.005 175.207C133.766 171.256 137.224 168.4 141.248 168.4L194.02 168.4C199.228 168.4 203.179 173.092 202.292 178.224C202.061 179.562 201.521 180.78 200.753 181.81L204.133 185.19H190.171V185.189L141.248 185.189Z" fill="#FDD32A"/>
<path d="M133.005 175.207L132.134 175.039V175.039L133.005 175.207ZM141.248 185.189V186.076V185.189ZM141.248 168.4V169.287V168.4ZM194.02 168.4V167.514V168.4ZM202.292 178.224L201.419 178.073L202.292 178.224ZM200.753 181.81L200.126 182.437L199.584 181.895L200.042 181.28L200.753 181.81ZM204.133 185.19L204.759 184.563L206.273 186.076H204.133V185.19ZM190.171 185.19V186.076H189.284V185.19H190.171ZM190.171 185.189V184.303H191.057V185.189H190.171ZM133.875 175.375C132.983 180.006 136.531 184.303 141.248 184.303V186.076C135.417 186.076 131.031 180.764 132.134 175.039L133.875 175.375ZM141.248 169.287C137.649 169.287 134.556 171.841 133.875 175.375L132.134 175.039C132.976 170.671 136.799 167.514 141.248 167.514V169.287ZM194.02 169.287L141.248 169.287V167.514L194.02 167.514V169.287ZM201.419 178.073C202.211 173.483 198.678 169.287 194.02 169.287V167.514C199.777 167.514 204.146 172.701 203.166 178.375L201.419 178.073ZM200.042 181.28C200.729 180.359 201.212 179.27 201.419 178.073L203.166 178.375C202.911 179.853 202.313 181.2 201.464 182.34L200.042 181.28ZM203.506 185.816L200.126 182.437L201.38 181.183L204.759 184.563L203.506 185.816ZM190.171 184.303H204.133V186.076H190.171V184.303ZM191.057 185.189V185.19H189.284V185.189H191.057ZM141.248 184.303L190.171 184.303V186.076L141.248 186.076V184.303Z" fill="black"/>
<mask id="path-19-inside-1_190_20420" fill="white">
<path fill-rule="evenodd" clip-rule="evenodd" d="M183.351 115.402C183.442 114.917 183.212 114.435 182.834 114.118C181.668 113.142 180.935 111.67 180.956 110.032C180.992 107.136 183.368 104.819 186.263 104.855C189.159 104.891 191.476 107.267 191.44 110.162C191.42 111.8 190.65 113.253 189.462 114.2C189.075 114.508 188.834 114.983 188.913 115.471L189.401 118.499C189.518 119.224 188.954 119.879 188.22 119.87L183.934 119.816C183.201 119.807 182.652 119.139 182.787 118.417L183.351 115.402Z"/>
</mask>
<path fill-rule="evenodd" clip-rule="evenodd" d="M183.351 115.402C183.442 114.917 183.212 114.435 182.834 114.118C181.668 113.142 180.935 111.67 180.956 110.032C180.992 107.136 183.368 104.819 186.263 104.855C189.159 104.891 191.476 107.267 191.44 110.162C191.42 111.8 190.65 113.253 189.462 114.2C189.075 114.508 188.834 114.983 188.913 115.471L189.401 118.499C189.518 119.224 188.954 119.879 188.22 119.87L183.934 119.816C183.201 119.807 182.652 119.139 182.787 118.417L183.351 115.402Z" fill="black"/>
<path d="M188.22 119.87L188.198 121.643L188.22 119.87ZM189.462 114.2L190.566 115.587L189.462 114.2ZM188.913 115.471L190.663 115.188L188.913 115.471ZM182.834 114.118L181.695 115.477L182.834 114.118ZM183.351 115.402L181.608 115.076L183.351 115.402ZM182.729 110.054C182.715 111.137 183.198 112.11 183.972 112.759L181.695 115.477C180.139 114.174 179.155 112.203 179.183 110.01L182.729 110.054ZM186.241 106.628C184.325 106.604 182.752 108.138 182.729 110.054L179.183 110.01C179.231 106.135 182.411 103.033 186.285 103.082L186.241 106.628ZM189.667 110.14C189.691 108.224 188.157 106.652 186.241 106.628L186.285 103.082C190.16 103.13 193.262 106.31 193.213 110.184L189.667 110.14ZM188.357 112.813C189.147 112.184 189.654 111.224 189.667 110.14L193.213 110.184C193.186 112.377 192.154 114.323 190.566 115.587L188.357 112.813ZM187.651 118.782L187.162 115.753L190.663 115.188L191.152 118.217L187.651 118.782ZM183.956 118.043L188.242 118.097L188.198 121.643L183.912 121.589L183.956 118.043ZM185.094 115.728L184.53 118.743L181.044 118.091L181.608 115.076L185.094 115.728ZM191.152 118.217C191.444 120.028 190.032 121.666 188.198 121.643L188.242 118.097C187.875 118.092 187.592 118.42 187.651 118.782L191.152 118.217ZM190.566 115.587C190.576 115.58 190.602 115.557 190.628 115.499C190.657 115.436 190.685 115.325 190.663 115.188L187.162 115.753C186.958 114.489 187.595 113.42 188.357 112.813L190.566 115.587ZM183.912 121.589C182.078 121.567 180.707 119.895 181.044 118.091L184.53 118.743C184.598 118.382 184.323 118.048 183.956 118.043L183.912 121.589ZM183.972 112.759C184.719 113.384 185.329 114.469 185.094 115.728L181.608 115.076C181.583 115.213 181.608 115.324 181.635 115.388C181.66 115.446 181.686 115.47 181.695 115.477L183.972 112.759Z" fill="black" mask="url(#path-19-inside-1_190_20420)"/>
<mask id="path-21-inside-2_190_20420" fill="white">
<path fill-rule="evenodd" clip-rule="evenodd" d="M166.363 179.12C166.454 178.635 166.219 178.157 165.865 177.813C165.193 177.158 164.78 176.239 164.792 175.227C164.817 173.269 166.424 171.701 168.382 171.725C170.34 171.75 171.908 173.357 171.884 175.315C171.871 176.328 171.435 177.235 170.747 177.873C170.385 178.209 170.138 178.68 170.216 179.168L170.432 180.505C170.549 181.229 169.984 181.884 169.25 181.875L167.262 181.85C166.528 181.841 165.98 181.172 166.115 180.451L166.363 179.12Z"/>
</mask>
<path fill-rule="evenodd" clip-rule="evenodd" d="M166.363 179.12C166.454 178.635 166.219 178.157 165.865 177.813C165.193 177.158 164.78 176.239 164.792 175.227C164.817 173.269 166.424 171.701 168.382 171.725C170.34 171.75 171.908 173.357 171.884 175.315C171.871 176.328 171.435 177.235 170.747 177.873C170.385 178.209 170.138 178.68 170.216 179.168L170.432 180.505C170.549 181.229 169.984 181.884 169.25 181.875L167.262 181.85C166.528 181.841 165.98 181.172 166.115 180.451L166.363 179.12Z" fill="black"/>
<path d="M169.25 181.875L169.228 183.648L169.228 183.648L169.25 181.875ZM170.747 177.873L171.952 179.174L170.747 177.873ZM170.216 179.168L171.967 178.886L170.216 179.168ZM167.262 181.85L167.24 183.623L167.262 181.85ZM166.115 180.451L164.372 180.125L166.115 180.451ZM165.865 177.813L164.628 179.083L165.865 177.813ZM166.565 175.249C166.559 175.755 166.763 176.212 167.102 176.542L164.628 179.083C163.622 178.104 163 176.723 163.019 175.205L166.565 175.249ZM168.36 173.498C167.381 173.486 166.577 174.27 166.565 175.249L163.019 175.205C163.056 172.267 165.467 169.916 168.404 169.952L168.36 173.498ZM170.111 175.293C170.123 174.314 169.339 173.511 168.36 173.498L168.404 169.952C171.342 169.989 173.693 172.4 173.657 175.337L170.111 175.293ZM169.542 176.572C169.889 176.251 170.104 175.799 170.111 175.293L173.657 175.337C173.638 176.856 172.982 178.22 171.952 179.174L169.542 176.572ZM168.681 180.787L168.466 179.45L171.967 178.886L172.183 180.222L168.681 180.787ZM167.284 180.077L169.272 180.102L169.228 183.648L167.24 183.623L167.284 180.077ZM168.106 179.446L167.857 180.777L164.372 180.125L164.62 178.794L168.106 179.446ZM172.183 180.222C172.475 182.034 171.063 183.671 169.228 183.648L169.272 180.102C168.905 180.097 168.623 180.425 168.681 180.787L172.183 180.222ZM171.952 179.174C171.921 179.203 171.924 179.211 171.939 179.178C171.957 179.137 171.99 179.031 171.967 178.886L168.466 179.45C168.26 178.175 168.919 177.149 169.542 176.572L171.952 179.174ZM167.24 183.623C165.405 183.6 164.034 181.929 164.372 180.125L167.857 180.777C167.925 180.416 167.651 180.082 167.284 180.077L167.24 183.623ZM167.102 176.542C167.71 177.134 168.344 178.177 168.106 179.446L164.62 178.794C164.593 178.939 164.624 179.046 164.641 179.087C164.655 179.121 164.659 179.113 164.628 179.083L167.102 176.542Z" fill="black" mask="url(#path-21-inside-2_190_20420)"/>
</g>
<defs>
<clipPath id="clip0_190_20420">
<rect width="327" height="272.424" fill="white" transform="translate(0 0.288086)"/>
</clipPath>
<clipPath id="clip1_190_20420">
<rect width="30" height="30" fill="white" transform="translate(287 12)"/>
</clipPath>
</defs>
</svg>
