<svg width="270" height="279" viewBox="0 0 270 279" fill="none" xmlns="http://www.w3.org/2000/svg">
<path d="M4.71558 133.781C7.54692 142.59 8.80864 151.721 12.6808 160.341C18.6743 173.669 26.2814 186.317 29.4537 200.778C31.7666 211.346 37.1259 221.575 39.6763 232.142C42.5677 244.203 54.8426 251.103 69.7642 257.801C91.8794 267.727 109.781 266.373 131.353 262.556C150.134 259.233 169.171 257.002 183.916 248.706C196.38 241.676 204.974 231.621 210.591 218.598C218.927 199.28 230.503 181.665 241.813 163.879C250.4 150.402 257.458 135.905 257.092 119.062C256.862 108.136 252.448 98.8723 244.297 91.0828C223.722 71.4009 198.679 59.6766 170.933 54.6056C157.748 52.2026 144.129 54.4497 131.012 57.7744C112.099 62.5725 93.2277 67.8621 73.6937 70.1649C62.528 71.4672 51.1829 72.2781 39.9276 73.3347C18.0287 75.4102 9.2053 85.6542 5.09909 105.766C3.26702 114.745 4.39195 123.913 4.68319 133.025" fill="#FFF9E0"/>
<path d="M224.2 93.9999C207.643 86.0057 189.177 82.7236 172.071 76.2225C162.262 72.507 152.485 68.4282 142.274 66.319C127.024 63.1565 112.121 66.9601 100.21 76.5899C78.2855 94.2535 59.0448 113.514 59.1148 143.523C59.1549 166.223 57.7684 188.945 61.7789 211.366C63.5064 220.998 66.423 230.271 73.0063 238.106C83.0423 250.02 97.0562 253.856 112.283 252.748C136.664 250.977 157.689 240.78 174.122 223.684C186.802 210.477 196.083 194.727 205.5 179.343C214.018 165.367 221.553 150.867 229.661 136.678C233.21 130.445 235.601 123.812 236.79 117.031C238.529 107.143 231.65 100.759 224.827 94.6594" fill="#FDD32A"/>
<path d="M7.73511 125.201C10.5665 134.01 11.8282 143.141 15.7004 151.761C21.6938 165.089 29.3009 177.737 32.4733 192.198C34.7862 202.765 40.1454 212.995 42.6958 223.562C45.5872 235.623 57.8621 242.523 72.7837 249.22C94.8989 259.147 112.8 257.793 134.373 253.976C153.154 250.653 172.191 248.422 186.936 240.126C199.4 233.096 207.994 223.041 213.611 210.018C221.947 190.7 233.522 173.084 244.833 155.299C253.419 141.822 260.477 127.325 260.112 110.482C259.882 99.5556 255.467 90.2923 247.316 82.5027C226.742 62.8209 201.699 51.0965 173.953 46.0256C160.768 43.6226 147.149 45.8697 134.031 49.1943C115.119 53.9924 96.2472 59.282 76.7132 61.5848C65.5476 62.8872 54.2025 63.698 42.9471 64.7546C21.0483 66.8302 12.2248 77.0741 8.11862 97.1864C6.28656 106.165 7.41148 115.333 7.70273 124.445" stroke="black" stroke-width="1.37879" stroke-miterlimit="10" stroke-linecap="round" stroke-linejoin="round" stroke-dasharray="3.68 9.19"/>
<path d="M18.3648 29.6507C18.2277 28.7255 18.9446 27.8945 19.8799 27.8945L162.073 27.8945C162.832 27.8945 163.476 28.4506 163.588 29.2015L182.671 157.93C182.808 158.855 182.091 159.686 181.156 159.686H38.9629C38.2038 159.686 37.5592 159.13 37.4479 158.379L18.3648 29.6507Z" fill="white" stroke="black" stroke-width="1.53158"/>
<path fill-rule="evenodd" clip-rule="evenodd" d="M136.184 9.48148C136.952 18.6826 133.816 28.1484 126.776 35.1884C122.176 39.7882 116.541 42.7214 110.62 43.9879V57.6967H103.731V50.0736C97.8354 49.4369 92.1092 46.8586 87.5894 42.3388C81.7545 36.5039 79.1554 28.6586 79.7919 21.0326C87.4179 20.3961 95.2632 22.9952 101.098 28.8301C101.734 29.4659 102.331 30.1256 102.89 30.8063C104.462 26.4569 106.991 22.3758 110.477 18.8895C117.517 11.8494 126.983 8.71346 136.184 9.48148Z" fill="#FDD32A"/>
<path d="M126.776 35.1884L127.317 35.7299L126.776 35.1884ZM136.184 9.48148L136.947 9.41778L136.893 8.77223L136.247 8.71835L136.184 9.48148ZM110.62 43.9879L110.46 43.239L109.854 43.3686V43.9879H110.62ZM110.62 57.6967V58.4624H111.386V57.6967H110.62ZM103.731 57.6967H102.966V58.4624H103.731V57.6967ZM103.731 50.0736H104.497V49.3861L103.814 49.3122L103.731 50.0736ZM87.5894 42.3388L87.0479 42.8803L87.5894 42.3388ZM79.7919 21.0326L79.7282 20.2695L79.0827 20.3234L79.0288 20.9689L79.7919 21.0326ZM102.89 30.8063L102.298 31.2923L103.153 32.3328L103.61 31.0665L102.89 30.8063ZM110.477 18.8895L111.018 19.431L110.477 18.8895ZM127.317 35.7299C134.523 28.5239 137.733 18.8338 136.947 9.41778L135.421 9.54519C136.171 18.5314 133.108 27.7729 126.234 34.647L127.317 35.7299ZM110.78 44.7367C116.841 43.4402 122.61 40.4373 127.317 35.7299L126.234 34.647C121.742 39.1392 116.24 42.0025 110.46 43.239L110.78 44.7367ZM111.386 57.6967V43.9879H109.854V57.6967H111.386ZM103.731 58.4624H110.62V56.9309H103.731V58.4624ZM102.966 50.0736V57.6967H104.497V50.0736H102.966ZM103.814 49.3122C98.085 48.6936 92.5228 46.1892 88.1309 41.7973L87.0479 42.8803C91.6957 47.528 97.5858 50.1802 103.649 50.835L103.814 49.3122ZM88.1309 41.7973C82.462 36.1284 79.9364 28.5074 80.5551 21.0963L79.0288 20.9689C78.3743 28.8098 81.0471 36.8794 87.0479 42.8803L88.1309 41.7973ZM79.8556 21.7957C87.2667 21.1771 94.8877 23.7027 100.557 29.3716L101.64 28.2886C95.6387 22.2877 87.5691 19.615 79.7282 20.2695L79.8556 21.7957ZM100.557 29.3716C101.175 29.9897 101.755 30.6309 102.298 31.2923L103.482 30.3203C102.907 29.6203 102.293 28.9421 101.64 28.2886L100.557 29.3716ZM109.935 18.348C106.368 21.9154 103.779 26.0932 102.17 30.546L103.61 31.0665C105.145 26.8207 107.613 22.8361 111.018 19.431L109.935 18.348ZM136.247 8.71835C126.831 7.93238 117.141 11.142 109.935 18.348L111.018 19.431C117.892 12.5569 127.134 9.49453 136.12 10.2446L136.247 8.71835Z" fill="black"/>
<path fill-rule="evenodd" clip-rule="evenodd" d="M116.148 61.1356C115.728 56.1052 117.443 50.9301 121.292 47.0811C125.141 43.2323 130.316 41.5178 135.346 41.9377C135.766 46.9681 134.051 52.1433 130.202 55.9922C126.354 59.841 121.179 61.5555 116.148 61.1356Z" fill="#FDD32A"/>
<path d="M116.148 61.1356L115.385 61.1994L115.439 61.8449L116.085 61.8988L116.148 61.1356ZM135.346 41.9377L136.109 41.874L136.055 41.2284L135.409 41.1746L135.346 41.9377ZM116.912 61.0719C116.509 56.2564 118.15 51.3056 121.833 47.6226L120.75 46.5396C116.735 50.5546 114.947 55.954 115.385 61.1994L116.912 61.0719ZM121.833 47.6226C125.516 43.9398 130.467 42.2989 135.282 42.7008L135.409 41.1746C130.164 40.7368 124.765 42.5248 120.75 46.5396L121.833 47.6226ZM134.583 42.0014C134.985 46.8169 133.344 51.7678 129.661 55.4507L130.744 56.5337C134.759 52.5188 136.547 47.1193 136.109 41.874L134.583 42.0014ZM129.661 55.4507C125.978 59.1335 121.027 60.7744 116.212 60.3725L116.085 61.8988C121.33 62.3366 126.729 60.5485 130.744 56.5337L129.661 55.4507Z" fill="black"/>
<path fill-rule="evenodd" clip-rule="evenodd" d="M83.9982 59.3306C84.5249 60.6754 84.8862 62.0791 85.0749 63.5085C82.7558 64.2204 80.2992 64.4577 77.8644 64.1858C76.6406 64.7029 75.3529 65.0524 74.0391 65.2258C73.8302 64.5452 73.6706 63.8503 73.5616 63.147C72.4236 62.7152 71.313 62.1593 70.2479 61.4754C65.6677 58.5342 62.8907 53.8427 62.23 48.8381C67.0555 47.3568 72.4769 47.9302 77.0569 50.8712C77.1128 50.9071 77.1684 50.9432 77.2237 50.9796C79.614 48.347 82.8198 46.7377 86.1978 46.2916C87.4255 50.2911 86.9503 54.7844 84.5127 58.5804C84.3477 58.8374 84.1761 59.0874 83.9982 59.3306Z" fill="#FDD32A"/>
<path d="M85.0749 63.5085L85.8341 63.4082L85.9189 64.0504L85.2996 64.2405L85.0749 63.5085ZM83.9982 59.3306L83.2852 59.6099L83.1317 59.218L83.3802 58.8784L83.9982 59.3306ZM77.8644 64.1858L77.5663 63.4804L77.7506 63.4025L77.9494 63.4247L77.8644 64.1858ZM74.0391 65.2258L74.1394 65.985L73.4972 66.0698L73.3071 65.4505L74.0391 65.2258ZM73.5616 63.147L73.8333 62.431L74.2501 62.5892L74.3183 63.0297L73.5616 63.147ZM70.2479 61.4754L69.8342 62.1197L69.8342 62.1197L70.2479 61.4754ZM62.23 48.8381L61.4708 48.9384L61.386 48.2962L62.0053 48.1061L62.23 48.8381ZM77.0569 50.8712L77.4707 50.2269L77.4707 50.2269L77.0569 50.8712ZM77.2237 50.9796L77.7906 51.4944L77.3502 51.9794L76.8028 51.6194L77.2237 50.9796ZM86.1978 46.2916L86.0976 45.5324L86.7398 45.4476L86.9299 46.0669L86.1978 46.2916ZM84.5127 58.5804L85.1571 58.9942L84.5127 58.5804ZM84.3157 63.6087C84.1351 62.2406 83.7892 60.8969 83.2852 59.6099L84.7113 59.0513C85.2605 60.4538 85.6373 61.9177 85.8341 63.4082L84.3157 63.6087ZM77.9494 63.4247C80.279 63.6849 82.6302 63.4578 84.8502 62.7764L85.2996 64.2405C82.8814 64.9829 80.3194 65.2305 77.7794 64.9468L77.9494 63.4247ZM73.9389 64.4666C75.1848 64.3021 76.4059 63.9707 77.5663 63.4804L78.1625 64.8912C76.8752 65.4351 75.521 65.8026 74.1394 65.985L73.9389 64.4666ZM74.3183 63.0297C74.4217 63.6967 74.5731 64.3557 74.7712 65.0011L73.3071 65.4505C73.0873 64.7348 72.9195 64.004 72.8048 63.2643L74.3183 63.0297ZM70.6617 60.831C71.6818 61.486 72.7447 62.018 73.8333 62.431L73.2899 63.863C72.1025 63.4124 70.9443 62.8326 69.8342 62.1197L70.6617 60.831ZM62.9892 48.7379C63.6216 53.5287 66.279 58.0167 70.6617 60.831L69.8342 62.1197C65.0564 59.0517 62.1597 54.1567 61.4708 48.9384L62.9892 48.7379ZM76.6432 51.5156C72.2606 48.7014 67.0741 48.1522 62.4547 49.5702L62.0053 48.1061C67.037 46.5615 72.6931 47.1589 77.4707 50.2269L76.6432 51.5156ZM76.8028 51.6194C76.7499 51.5846 76.6966 51.55 76.6431 51.5156L77.4707 50.2269C77.5289 50.2642 77.5868 50.3019 77.6445 50.3398L76.8028 51.6194ZM86.2981 47.0508C83.094 47.4739 80.0554 49.0001 77.7906 51.4944L76.6567 50.4648C79.1726 47.694 82.5457 46.0014 86.0976 45.5324L86.2981 47.0508ZM83.8684 58.1667C86.1791 54.5682 86.6302 50.3097 85.4657 46.5164L86.9299 46.0669C88.2209 50.2726 87.7216 55.0007 85.1571 58.9942L83.8684 58.1667ZM83.3802 58.8784C83.5489 58.6478 83.7118 58.4105 83.8684 58.1667L85.1571 58.9942C84.9837 59.2642 84.8033 59.5271 84.6162 59.7828L83.3802 58.8784Z" fill="black"/>
<mask id="mask0_822_33061" style="mask-type:alpha" maskUnits="userSpaceOnUse" x="17" y="27" width="167" height="134">
<path d="M18.3639 29.6507C18.2267 28.7255 18.9436 27.8945 19.8789 27.8945L162.072 27.8945C162.831 27.8945 163.475 28.4506 163.587 29.2015L182.67 157.93C182.807 158.855 182.09 159.686 181.155 159.686H38.962C38.2028 159.686 37.5583 159.13 37.4469 158.379L18.3639 29.6507Z" fill="white" stroke="black" stroke-width="1.53158"/>
</mask>
<g mask="url(#mask0_822_33061)">
<path fill-rule="evenodd" clip-rule="evenodd" d="M47.3002 137.464C47.9605 137.194 48.3568 136.509 48.2503 135.803L48.1366 135.051C46.5507 121.121 44.8072 87.7392 60.8381 68.4759C68.5011 59.2737 79.144 54.5118 92.4685 54.2999C144.349 53.4751 152.321 53.3483 152.664 74.9367C152.704 77.4483 153.144 80.5779 153.618 83.8977L153.619 83.9091C155.039 94.0505 156.808 106.678 148.499 113.704C144.242 117.301 138.096 118.847 129.71 118.345C128.23 118.257 127.434 120.247 128.626 121.129C129.171 121.532 129.357 122.263 129.071 122.877L127.011 127.303C126.706 127.957 125.986 128.309 125.28 128.157C115.477 126.038 105.432 125.288 101.589 126.266C100.687 126.496 100.022 127.21 99.6751 128.074C99.5551 128.373 99.4474 128.684 99.3505 129.005C99.0939 129.854 99.716 130.69 100.595 130.812C150.756 137.769 189.375 180.825 189.375 232.901C189.375 289.826 143.228 335.973 86.3033 335.973C29.3782 335.973 -16.7688 289.826 -16.7688 232.901C-16.7688 189.778 9.71255 152.841 47.3002 137.464Z" fill="black"/>
</g>
</svg>
