<svg width="270" height="273" viewBox="0 0 270 273" fill="none" xmlns="http://www.w3.org/2000/svg">
<path d="M4.71558 107.781C7.54692 116.59 8.80864 125.721 12.6808 134.341C18.6743 147.669 26.2814 160.317 29.4537 174.778C31.7666 185.346 37.1259 195.575 39.6763 206.142C42.5677 218.203 54.8426 225.103 69.7642 231.801C91.8794 241.727 109.781 240.373 131.353 236.556C150.134 233.233 169.171 231.002 183.916 222.706C196.38 215.676 204.974 205.621 210.591 192.598C218.927 173.28 230.503 155.665 241.813 137.879C250.4 124.402 257.458 109.905 257.092 93.0617C256.862 82.1357 252.448 72.8723 244.297 65.0828C223.722 45.4009 198.679 33.6766 170.933 28.6056C157.748 26.2026 144.129 28.4497 131.012 31.7744C112.099 36.5725 93.2277 41.8621 73.6937 44.1649C62.528 45.4672 51.1829 46.2781 39.9276 47.3347C18.0287 49.4102 9.2053 59.6542 5.09909 79.7665C3.26702 88.7452 4.39195 97.9134 4.68319 107.025" fill="#FFF9E0"/>
<path d="M224.2 67.9999C207.643 60.0057 189.177 56.7236 172.071 50.2225C162.262 46.507 152.485 42.4282 142.274 40.319C127.024 37.1565 112.121 40.9601 100.21 50.5899C78.2855 68.2535 59.0448 87.5144 59.1148 117.523C59.1549 140.223 57.7684 162.945 61.7789 185.366C63.5064 194.998 66.423 204.271 73.0063 212.106C83.0423 224.02 97.0562 227.856 112.283 226.748C136.664 224.977 157.689 214.78 174.122 197.684C186.802 184.477 196.083 168.727 205.5 153.343C214.018 139.367 221.553 124.867 229.661 110.678C233.21 104.445 235.601 97.8118 236.79 91.0309C238.529 81.1434 231.65 74.7585 224.827 68.6594" fill="#FDD32A"/>
<path d="M7.73511 99.2008C10.5665 108.01 11.8282 117.141 15.7004 125.761C21.6938 139.089 29.3009 151.737 32.4733 166.198C34.7862 176.765 40.1454 186.995 42.6958 197.562C45.5872 209.623 57.8621 216.523 72.7837 223.22C94.8989 233.147 112.8 231.793 134.373 227.976C153.154 224.653 172.191 222.422 186.936 214.126C199.4 207.096 207.994 197.041 213.611 184.018C221.947 164.7 233.522 147.084 244.833 129.299C253.419 115.822 260.477 101.325 260.112 84.4817C259.882 73.5556 255.467 64.2923 247.316 56.5027C226.742 36.8209 201.699 25.0965 173.953 20.0256C160.768 17.6226 147.149 19.8697 134.031 23.1943C115.119 27.9924 96.2472 33.282 76.7132 35.5848C65.5476 36.8872 54.2025 37.698 42.9471 38.7546C21.0483 40.8302 12.2248 51.0741 8.11862 71.1864C6.28656 80.1651 7.41148 89.3333 7.70273 98.4447" stroke="black" stroke-width="1.37879" stroke-miterlimit="10" stroke-linecap="round" stroke-linejoin="round" stroke-dasharray="3.68 9.19"/>
<path d="M72.6804 141.534L86.7161 171.587" stroke="black" stroke-width="1.89463"/>
<path d="M103.107 151.435L57.1121 165.734L41.0591 132.008L86.915 117.752L103.107 151.435Z" fill="black" stroke="black" stroke-width="1.89463"/>
<path d="M52.3926 135.511L91.6529 147.532M81.7282 126.847L62.0606 156.731" stroke="white" stroke-width="1.89463"/>
<path d="M67.2339 191.745L69.2602 178.142C69.4696 176.736 70.1051 175.428 71.0809 174.395L79.6204 165.354L82.983 167.799L87.5445 161.944L97.686 180.147L91.4679 184.211L81.7618 195.49L60.465 259.741L44.7485 226.802L67.2339 191.745Z" fill="white"/>
<path d="M67.2339 191.745L69.2602 178.142C69.4696 176.736 70.1051 175.428 71.0809 174.395L79.6204 165.354L82.983 167.799M67.2339 191.745L81.7618 195.49M67.2339 191.745L44.7485 226.802L60.465 259.741L81.7618 195.49M79.7582 175.066L83.2622 177.068M82.983 167.799L91.0791 174.638L87.5363 179.51L83.2622 177.068M82.983 167.799L87.5445 161.944L97.686 180.147L91.4679 184.211M83.2622 177.068L87.1456 186.601L91.4679 184.211M81.7618 195.49L91.4679 184.211" stroke="black" stroke-width="1.89463"/>
<path d="M161.27 82.261C163.611 78.2068 169.462 78.2068 171.803 82.261L207.499 144.089C209.84 148.143 206.914 153.211 202.233 153.211H130.84C126.159 153.211 123.233 148.143 125.574 144.089L161.27 82.261Z" fill="black" stroke="black" stroke-width="1.92039"/>
<circle cx="166.537" cy="139.73" r="5.64202" transform="rotate(15 166.537 139.73)" fill="white" stroke="black" stroke-width="1.92039"/>
<path d="M171.68 100.402C171.807 97.6369 169.614 95.3179 166.845 95.2902C164.077 95.2625 161.838 97.5373 161.91 100.305L162.536 124.446C162.592 126.609 164.351 128.34 166.515 128.362C168.679 128.383 170.472 126.688 170.571 124.526L171.68 100.402Z" fill="white" stroke="black" stroke-width="1.92039"/>
</svg>
