<svg width="63" height="38" viewBox="0 0 63 38" fill="none" xmlns="http://www.w3.org/2000/svg">
<path fill-rule="evenodd" clip-rule="evenodd" d="M17.7803 37.2197C27.1803 37.2197 34.7803 29.6197 34.7803 20.2197C34.7803 10.8197 27.1803 3.21973 17.7803 3.21973C8.38027 3.21973 0.780273 10.8197 0.780273 20.2197C0.780273 23.4864 1.71361 26.4864 3.24694 29.0864C3.31361 29.2197 3.44694 29.4197 3.51361 29.6197C3.98027 30.7531 4.11361 31.8864 3.84694 33.0864C3.71361 33.7531 3.44694 34.3531 3.11361 34.9531C3.11361 34.9531 3.11361 34.9531 3.18027 34.9531L3.24694 34.8864C4.04694 34.3531 4.98027 34.0864 5.98027 34.0864C6.98027 34.0864 7.84694 34.2864 8.71361 34.6864C11.3803 36.2864 14.4469 37.2197 17.7803 37.2197Z" fill="black"/>
<path fill-rule="evenodd" clip-rule="evenodd" d="M18.0303 35.2805C9.59878 35.2805 2.78027 28.4052 2.78027 19.9939C2.78027 11.5827 9.59878 4.78052 18.0303 4.78052C26.4618 4.78052 33.2803 11.5827 33.2803 19.9939C33.2803 22.9196 32.4738 25.6258 31.0808 27.9664C31.0074 28.1127 30.9341 28.2589 30.8608 28.4052C30.4942 29.4292 30.3476 30.4532 30.5675 31.5503C30.7142 32.1354 30.9341 32.6474 31.2274 33.2326C31.2274 33.2326 31.2274 33.2326 31.1541 33.2326L31.0808 33.1594C30.3476 32.6474 29.5411 32.428 28.6613 32.428C27.7815 32.428 26.975 32.6474 26.1685 32.94C23.8223 34.4028 21.0363 35.2805 18.0303 35.2805Z" fill="#FDD32A"/>
<g clip-path="url(#clip0_32981_16465)">
<path d="M35.8152 0.928795L35.9155 1.02909L35.8152 0.928795ZM35.8577 0.88625C35.871 0.87295 35.8891 0.865479 35.9079 0.865479C35.9267 0.865479 35.9447 0.87295 35.958 0.88625C35.9713 0.89955 35.9788 0.917588 35.9788 0.936396C35.9788 0.955205 35.9713 0.973243 35.958 0.986543L35.5675 1.37705H35.4683V1.27574L35.8577 0.88625V0.88625Z" stroke="black" stroke-width="0.0567268" stroke-linecap="round" stroke-linejoin="round"/>
</g>
<path d="M11.5035 22.4235V23.0881H7.49924V17.1897H11.4288V17.8543H8.24693V19.7651H11.0134V20.3881H8.24693V22.4235H11.5035ZM12.6954 17.1897L14.4733 19.6321L16.2511 17.1897H17.0902L14.8887 20.1804L17.0237 23.0881H16.1847L14.4733 20.7288L12.7619 23.0881H11.9145L14.0496 20.1804L11.8481 17.1897H12.6954ZM17.8189 23.0881V17.1897H20.278C20.5383 17.1897 20.7765 17.2451 20.9925 17.3558C21.2085 17.4611 21.3968 17.6051 21.5574 17.7878C21.718 17.9651 21.8426 18.1672 21.9313 18.3943C22.0199 18.6158 22.0642 18.8429 22.0642 19.0755C22.0642 19.3968 21.9922 19.7041 21.8482 19.9977C21.7042 20.2857 21.502 20.5211 21.2417 20.7038C20.9814 20.8811 20.6768 20.9697 20.3279 20.9697H18.5666V23.0881H17.8189ZM18.5666 20.3051H20.2863C20.4913 20.3051 20.6685 20.2497 20.818 20.1389C20.9731 20.0281 21.0922 19.8786 21.1753 19.6903C21.2639 19.502 21.3082 19.2971 21.3082 19.0755C21.3082 18.8429 21.2583 18.6352 21.1586 18.4524C21.0589 18.2641 20.9288 18.1174 20.7682 18.0121C20.6076 17.9069 20.4303 17.8543 20.2365 17.8543H18.5666V20.3051ZM25.3876 23.1297C24.9723 23.1297 24.5956 23.0466 24.2578 22.8804C23.92 22.7143 23.6264 22.49 23.3772 22.2075C23.1335 21.9195 22.9452 21.5983 22.8123 21.2438C22.6793 20.8838 22.6129 20.5155 22.6129 20.1389C22.6129 19.7457 22.6821 19.3718 22.8206 19.0174C22.9646 18.6574 23.1612 18.3389 23.4104 18.062C23.6652 17.7795 23.9615 17.558 24.2993 17.3974C24.6372 17.2312 25.0055 17.1481 25.4043 17.1481C25.8196 17.1481 26.1963 17.234 26.5341 17.4057C26.872 17.5774 27.1627 17.8072 27.4064 18.0952C27.6501 18.3832 27.8384 18.7044 27.9713 19.0589C28.1043 19.4134 28.1707 19.7761 28.1707 20.1472C28.1707 20.5404 28.1015 20.9171 27.963 21.2771C27.8246 21.6315 27.628 21.95 27.3732 22.2324C27.124 22.5094 26.8304 22.7281 26.4926 22.8888C26.1547 23.0494 25.7864 23.1297 25.3876 23.1297ZM23.3689 20.1389C23.3689 20.438 23.416 20.7288 23.5101 21.0112C23.6098 21.2881 23.7483 21.5346 23.9255 21.7506C24.1027 21.9666 24.316 22.1383 24.5652 22.2657C24.8144 22.3931 25.0913 22.4568 25.396 22.4568C25.7116 22.4568 25.9941 22.3903 26.2433 22.2574C26.4926 22.1244 26.703 21.9472 26.8747 21.7257C27.052 21.5041 27.1849 21.2549 27.2735 20.978C27.3676 20.7011 27.4147 20.4214 27.4147 20.1389C27.4147 19.8398 27.3649 19.5518 27.2652 19.2749C27.171 18.998 27.0326 18.7515 26.8498 18.5355C26.6726 18.314 26.4593 18.1423 26.2101 18.0204C25.9664 17.8931 25.695 17.8294 25.396 17.8294C25.0803 17.8294 24.7978 17.8958 24.5486 18.0288C24.2993 18.1561 24.0861 18.3306 23.9089 18.5521C23.7372 18.7737 23.6043 19.0229 23.5101 19.2998C23.416 19.5712 23.3689 19.8509 23.3689 20.1389Z" fill="black"/>
<path fill-rule="evenodd" clip-rule="evenodd" d="M45.144 37.2197C54.544 37.2197 62.144 29.6197 62.144 20.2197C62.144 10.8197 54.544 3.21973 45.144 3.21973C35.744 3.21973 28.144 10.8197 28.144 20.2197C28.144 23.4864 29.0774 26.4864 30.6107 29.0864C30.6774 29.2197 30.8107 29.4197 30.8774 29.6197C31.344 30.7531 31.4774 31.8864 31.2107 33.0864C31.0774 33.7531 30.8107 34.3531 30.4774 34.9531C30.4774 34.9531 30.4774 34.9531 30.544 34.9531L30.6107 34.8864C31.4107 34.3531 32.344 34.0864 33.344 34.0864C34.344 34.0864 35.2107 34.2864 36.0774 34.6864C38.744 36.2864 41.8107 37.2197 45.144 37.2197Z" fill="white"/>
<path fill-rule="evenodd" clip-rule="evenodd" d="M45.2803 34.7805C36.7106 34.7805 29.7803 28.0179 29.7803 19.7445C29.7803 11.4712 36.7106 4.78052 45.2803 4.78052C53.85 4.78052 60.7803 11.4712 60.7803 19.7445C60.7803 22.6222 59.9606 25.2841 58.5447 27.5863C58.4702 27.7302 58.3957 27.874 58.3211 28.0179C57.9485 29.0251 57.7995 30.0323 58.0231 31.1115C58.1721 31.687 58.3957 32.1906 58.6937 32.7661C58.6937 32.7661 58.6937 32.7661 58.6192 32.7661L58.5447 32.6942C57.7995 32.1906 56.9798 31.9748 56.0856 31.9748C55.1913 31.9748 54.3716 32.1906 53.5519 32.4784C51.1673 33.9172 48.3356 34.7805 45.2803 34.7805Z" fill="black"/>
<path d="M36.9549 20.2528C36.9549 19.8928 37.0158 19.5411 37.1377 19.1977C37.2651 18.8488 37.4478 18.5331 37.686 18.2506C37.9297 17.9626 38.226 17.7355 38.5749 17.5694C38.9238 17.3977 39.3198 17.3118 39.7629 17.3118C40.2891 17.3118 40.7404 17.4337 41.1171 17.6774C41.4937 17.9155 41.7734 18.2229 41.9561 18.5995L41.3663 18.9817C41.25 18.7325 41.1004 18.5358 40.9177 18.3918C40.7404 18.2423 40.5466 18.1371 40.3361 18.0761C40.1312 18.0152 39.9291 17.9848 39.7297 17.9848C39.4029 17.9848 39.1121 18.0512 38.8574 18.1841C38.6081 18.3171 38.3977 18.4943 38.226 18.7158C38.0543 18.9374 37.9241 19.1866 37.8355 19.4635C37.7524 19.7349 37.7109 20.0091 37.7109 20.286C37.7109 20.5906 37.7608 20.8841 37.8604 21.1666C37.9657 21.4491 38.1097 21.6983 38.2924 21.9143C38.4752 22.1303 38.6912 22.302 38.9404 22.4294C39.1897 22.5568 39.4611 22.6205 39.7546 22.6205C39.9595 22.6205 40.17 22.5845 40.386 22.5125C40.602 22.4405 40.8041 22.3297 40.9924 22.1801C41.1808 22.0251 41.3303 21.8257 41.4411 21.582L42.0641 21.9226C41.9423 22.2161 41.754 22.4654 41.4992 22.6703C41.2444 22.8752 40.9592 23.0303 40.6435 23.1355C40.3334 23.2408 40.026 23.2934 39.7214 23.2934C39.3171 23.2934 38.946 23.2075 38.6081 23.0358C38.2703 22.8586 37.9768 22.626 37.7275 22.338C37.4838 22.0445 37.2928 21.7177 37.1543 21.3577C37.0214 20.9921 36.9549 20.6238 36.9549 20.2528ZM46.647 23.2435H45.9159V20.8177C45.9159 20.3746 45.8356 20.0423 45.675 19.8208C45.5199 19.5992 45.2956 19.4885 45.0021 19.4885C44.8138 19.4885 44.6227 19.5383 44.4288 19.638C44.2405 19.7377 44.0744 19.8734 43.9304 20.0451C43.7864 20.2112 43.6812 20.4051 43.6147 20.6266V23.2435H42.8836V17.1789H43.6147V19.8374C43.7864 19.5272 44.019 19.2835 44.3125 19.1063C44.6116 18.9235 44.9328 18.8321 45.2762 18.8321C45.5365 18.8321 45.7525 18.8792 45.9242 18.9734C46.1015 19.062 46.2427 19.1894 46.3479 19.3555C46.4531 19.5217 46.5279 19.7155 46.5722 19.9371C46.6221 20.1531 46.647 20.3912 46.647 20.6515V23.2435ZM47.4432 21.9891C47.4432 21.7121 47.5208 21.474 47.6759 21.2746C47.8365 21.0697 48.0552 20.9118 48.3322 20.8011C48.6091 20.6903 48.9303 20.6349 49.2959 20.6349C49.4897 20.6349 49.6946 20.6515 49.9106 20.6848C50.1266 20.7125 50.3177 20.7568 50.4839 20.8177V20.502C50.4839 20.1697 50.3842 19.9094 50.1848 19.7211C49.9854 19.5272 49.7029 19.4303 49.3374 19.4303C49.0992 19.4303 48.8694 19.4746 48.6479 19.5632C48.4319 19.6463 48.202 19.7681 47.9583 19.9288L47.6925 19.4137C47.9749 19.2198 48.2574 19.0758 48.5399 18.9817C48.8223 18.882 49.1159 18.8321 49.4205 18.8321C49.9743 18.8321 50.4119 18.9872 50.7331 19.2974C51.0543 19.602 51.2149 20.0285 51.2149 20.5768V22.4128C51.2149 22.5014 51.2315 22.5678 51.2648 22.6121C51.3035 22.6509 51.3645 22.6731 51.4475 22.6786V23.2435C51.3755 23.2546 51.3118 23.2629 51.2565 23.2685C51.2066 23.274 51.1651 23.2768 51.1319 23.2768C50.9602 23.2768 50.83 23.2297 50.7414 23.1355C50.6583 23.0414 50.6112 22.9417 50.6002 22.8365L50.5835 22.5623C50.3952 22.806 50.1488 22.9943 49.8442 23.1272C49.5395 23.2601 49.2377 23.3266 48.9386 23.3266C48.6506 23.3266 48.3931 23.2685 48.166 23.1521C47.9389 23.0303 47.7617 22.8697 47.6343 22.6703C47.5069 22.4654 47.4432 22.2383 47.4432 21.9891ZM50.2679 22.2965C50.3343 22.2189 50.3869 22.1414 50.4257 22.0638C50.4645 21.9808 50.4839 21.9115 50.4839 21.8561V21.3161C50.3122 21.2497 50.1322 21.1998 49.9439 21.1666C49.7555 21.1278 49.57 21.1085 49.3872 21.1085C49.0162 21.1085 48.7143 21.1832 48.4817 21.3328C48.2546 21.4768 48.1411 21.6761 48.1411 21.9309C48.1411 22.0694 48.1771 22.2051 48.2491 22.338C48.3266 22.4654 48.4374 22.5706 48.5814 22.6537C48.7309 22.7368 48.9137 22.7783 49.1297 22.7783C49.3568 22.7783 49.5728 22.734 49.7777 22.6454C49.9826 22.5512 50.146 22.4349 50.2679 22.2965ZM54.5945 23.0275C54.5336 23.0552 54.4505 23.0912 54.3453 23.1355C54.2401 23.1798 54.1182 23.2186 53.9798 23.2518C53.8413 23.2851 53.6945 23.3017 53.5395 23.3017C53.3622 23.3017 53.1988 23.2712 53.0493 23.2103C52.8998 23.1438 52.7807 23.0441 52.6921 22.9112C52.6035 22.7728 52.5592 22.6011 52.5592 22.3961V19.4801H51.9693V18.9069H52.5592V17.4614H53.2902V18.9069H54.2622V19.4801H53.2902V22.1718C53.3013 22.3269 53.3539 22.4432 53.4481 22.5208C53.5422 22.5928 53.653 22.6288 53.7804 22.6288C53.9244 22.6288 54.0573 22.6038 54.1791 22.554C54.301 22.5041 54.3813 22.4681 54.4201 22.446L54.5945 23.0275Z" fill="white"/>
<defs>
<clipPath id="clip0_32981_16465">
<rect width="0.680722" height="0.680722" fill="white" transform="translate(35.3833 0.780396)"/>
</clipPath>
</defs>
</svg>
