<svg width="78" height="78" viewBox="0 0 78 78" fill="none" xmlns="http://www.w3.org/2000/svg">
<path d="M14.3718 39.7014L13.4365 38.2843C13.2639 38.0115 13.0892 37.8001 12.9124 37.6499C12.7314 37.4955 12.4802 37.4126 12.1588 37.4015C11.9093 37.3928 11.6796 37.4822 11.4699 37.6697C11.2559 37.857 11.1427 38.1283 11.1304 38.4836C11.1218 38.7289 11.1717 38.9381 11.2801 39.1112C11.3884 39.2844 11.5362 39.4165 11.7236 39.5077C11.9067 39.5988 12.1104 39.6482 12.3345 39.656C12.5248 39.6626 12.7231 39.6229 12.9293 39.5369C13.1356 39.4509 13.3515 39.3293 13.5772 39.172C13.8028 39.0147 14.042 38.8346 14.2946 38.6317L19.6865 34.4429L19.6376 35.8512L15.2246 39.2864C14.8414 39.5907 14.4911 39.8622 14.1737 40.101C13.8521 40.3396 13.5428 40.5258 13.246 40.6594C12.9493 40.7889 12.6445 40.8481 12.3316 40.8373C11.8494 40.8205 11.4467 40.7112 11.1235 40.5095C10.7961 40.3033 10.5518 40.0238 10.3904 39.671C10.2291 39.3182 10.1565 38.9092 10.1727 38.4439C10.1884 37.9914 10.2929 37.6055 10.486 37.2862C10.6751 36.9624 10.9208 36.7169 11.223 36.5496C11.521 36.3821 11.8455 36.3045 12.1965 36.3167C12.4926 36.327 12.7572 36.3891 12.9903 36.503C13.2193 36.6169 13.4277 36.7723 13.6156 36.9694C13.8037 37.1622 13.9864 37.3866 14.1639 37.6426L15.4641 39.5234C15.6776 39.8357 15.8835 40.0652 16.0816 40.2118C16.2798 40.3584 16.4564 40.4556 16.6114 40.5033C16.7665 40.5468 16.8906 40.5702 16.9837 40.5734C17.284 40.5838 17.5611 40.5278 17.8152 40.4054C18.0693 40.283 18.2771 40.0912 18.4386 39.83C18.596 39.5645 18.6818 39.2287 18.6959 38.8227C18.7083 38.4675 18.6399 38.12 18.4908 37.7803C18.3376 37.4362 18.1155 37.1258 17.8245 36.8489C17.5293 36.5719 17.175 36.3478 16.7617 36.1768C16.3444 36.0014 15.8799 35.9048 15.3681 35.887L15.4047 34.8339C15.8234 34.8485 16.2175 34.9024 16.5868 34.9957C16.9562 35.089 17.2987 35.2258 17.6142 35.4061C17.9257 35.5821 18.208 35.8036 18.4613 36.0707C18.498 36.1101 18.5414 36.1413 18.5914 36.1642C18.6414 36.1871 18.6848 36.2182 18.7215 36.2576C19.0531 36.5867 19.2975 36.9869 19.4547 37.4581C19.6079 37.925 19.6763 38.391 19.6602 38.8562C19.6389 39.4695 19.5083 39.9964 19.2686 40.4369C19.029 40.8731 18.7084 41.205 18.3067 41.4324C17.905 41.6598 17.4504 41.7646 16.9429 41.747C16.5538 41.7335 16.2141 41.6391 15.9238 41.4639C15.6336 41.2844 15.3646 41.0443 15.1168 40.7435C14.8691 40.4385 14.6208 40.0911 14.3718 39.7014Z" fill="black"/>
<path d="M25.0653 22.2834C24.9151 22.1284 24.7583 22.0152 24.5948 21.9438C24.4314 21.8664 24.2434 21.8366 24.0306 21.8542C23.8209 21.8688 23.57 21.9322 23.2779 22.0443C22.9889 22.1535 22.6437 22.3142 22.2424 22.5264C21.8199 22.7472 21.4191 22.9264 21.0399 23.0641C20.6577 23.1988 20.2973 23.2799 19.9587 23.3075C19.6201 23.3351 19.3034 23.2972 19.0088 23.1938C18.7141 23.0904 18.4416 22.9096 18.1913 22.6513C17.941 22.393 17.763 22.1029 17.6573 21.781C17.5517 21.4591 17.5195 21.1219 17.561 20.7695C17.6025 20.411 17.7174 20.0522 17.9056 19.693C18.0938 19.3338 18.3581 18.9894 18.6984 18.6595C19.1968 18.1765 19.712 17.8629 20.244 17.7187C20.776 17.5684 21.282 17.5584 21.7617 17.6886C22.2386 17.8158 22.6448 18.0526 22.9806 18.3991L22.1054 19.2472C21.8639 18.998 21.5972 18.8292 21.3053 18.7409C21.0104 18.6494 20.7021 18.6536 20.3803 18.7533C20.0556 18.8499 19.7276 19.0587 19.3964 19.3797C19.0834 19.6831 18.8707 19.9805 18.7584 20.272C18.6461 20.5635 18.6178 20.8384 18.6736 21.0967C18.7325 21.352 18.862 21.5829 19.0623 21.7896C19.1977 21.9294 19.3503 22.029 19.5199 22.0886C19.6897 22.1421 19.884 22.1571 20.1028 22.1336C20.3247 22.1072 20.5726 22.0408 20.8466 21.9343C21.1237 21.825 21.4358 21.6757 21.7829 21.4867C22.2628 21.2279 22.7028 21.0313 23.1029 20.8969C23.5031 20.7625 23.8708 20.692 24.2061 20.6853C24.5415 20.6726 24.8518 20.7283 25.1372 20.8525C25.4226 20.9707 25.6905 21.159 25.9408 21.4173C26.2029 21.6878 26.3853 21.9854 26.4879 22.3102C26.5905 22.6351 26.6152 22.9736 26.5617 23.3259C26.5083 23.6782 26.38 24.0353 26.1768 24.3972C25.9737 24.7532 25.6974 25.1005 25.3479 25.4391C25.041 25.7366 24.6974 25.9871 24.3171 26.1906C23.9399 26.3911 23.5473 26.5241 23.1392 26.5895C22.7342 26.652 22.3381 26.6293 21.9507 26.5215C21.5634 26.4077 21.2093 26.1852 20.8883 25.8539L21.7635 25.0058C21.9844 25.2337 22.2184 25.387 22.4656 25.4657C22.7098 25.5414 22.9594 25.5587 23.2144 25.5179C23.4725 25.474 23.7238 25.3837 23.9683 25.2469C24.213 25.1041 24.4417 24.9296 24.6544 24.7235C24.9613 24.426 25.1799 24.1317 25.3102 23.8405C25.4405 23.5492 25.4837 23.2716 25.44 23.0075C25.3993 22.7405 25.2744 22.4992 25.0653 22.2834Z" fill="black"/>
<path d="M35.7026 16.7721L36.875 16.4392C36.9734 17.0183 36.9554 17.5667 36.8209 18.0844C36.6864 18.6021 36.4179 19.0588 36.0156 19.4546C35.6122 19.8463 35.0543 20.1434 34.3419 20.3457C33.8208 20.4936 33.3188 20.5306 32.8359 20.4566C32.357 20.3814 31.9141 20.2081 31.507 19.9365C31.0988 19.6609 30.7396 19.2944 30.4294 18.8371C30.122 18.3744 29.8799 17.8317 29.7031 17.2089L29.4516 16.3235C29.2748 15.7006 29.1961 15.1137 29.2156 14.5627C29.238 14.0065 29.3524 13.5032 29.5589 13.0531C29.7695 12.6018 30.0668 12.216 30.451 11.8957C30.8351 11.5755 31.302 11.3373 31.8516 11.1813C32.5233 10.9905 33.127 10.9555 33.6627 11.0761C34.1985 11.1967 34.6581 11.4445 35.0418 11.8194C35.4283 12.1891 35.7353 12.6584 35.9629 13.2273L34.7905 13.5602C34.6156 13.1612 34.4086 12.8351 34.1695 12.5818C33.9293 12.3245 33.6435 12.1549 33.3123 12.073C32.9811 11.9911 32.5855 12.0154 32.1255 12.1461C31.7307 12.2582 31.404 12.4323 31.1455 12.6685C30.8911 12.9035 30.7015 13.1883 30.5765 13.5229C30.4557 13.8564 30.3993 14.2309 30.4073 14.6466C30.4154 15.0622 30.4865 15.5061 30.6206 15.9783L30.8755 16.876C30.9992 17.3115 31.1601 17.7079 31.3583 18.0652C31.5606 18.4212 31.7964 18.7172 32.0658 18.953C32.3351 19.1889 32.638 19.3492 32.9744 19.434C33.3097 19.5148 33.6748 19.4991 34.0696 19.387C34.5703 19.2448 34.9467 19.0521 35.1988 18.809C35.4509 18.5658 35.6101 18.2743 35.6763 17.9343C35.7466 17.5932 35.7553 17.2058 35.7026 16.7721Z" fill="black"/>
<path d="M46.315 12.1748L41.3837 19.6578L40.1674 19.3675L45.7395 11.1956L46.5237 11.3828L46.315 12.1748ZM46.8541 20.9634L45.8273 12.0584L45.9988 11.2575L46.783 11.4447L48.0766 21.2551L46.8541 20.9634ZM47.494 17.5986L47.2611 18.5741L42.2106 17.3688L42.4434 16.3933L47.494 17.5986Z" fill="black"/>
<path d="M61.2142 20.6069L54.7927 27.2539L53.907 26.3983L55.5135 18.0387L50.5607 23.1655L49.6796 22.3143L56.1011 15.6673L56.9822 16.5185L55.3761 24.905L60.3422 19.7645L61.2142 20.6069Z" fill="black"/>
<path d="M63.6841 37.9266L64.6568 39.3182C64.8366 39.5863 65.0169 39.793 65.1977 39.9383C65.3827 40.0879 65.636 40.164 65.9576 40.1666C66.2073 40.1686 66.4345 40.0731 66.6392 39.8801C66.8481 39.6871 66.954 39.4129 66.9568 39.0575C66.9588 38.812 66.9034 38.6042 66.7905 38.434C66.6776 38.2638 66.5263 38.1357 66.3365 38.0495C66.151 37.9634 65.9461 37.9194 65.7218 37.9176C65.5314 37.9161 65.3343 37.961 65.1304 38.0525C64.9265 38.1439 64.7139 38.2713 64.4925 38.4346C64.2712 38.5978 64.0369 38.7843 63.7898 38.9939L58.5115 43.325L58.5229 41.9159L62.8427 38.3641C63.2176 38.0498 63.5605 37.769 63.8715 37.5218C64.1866 37.2747 64.4908 37.0803 64.7839 36.9388C65.077 36.8015 65.3801 36.7341 65.6933 36.7367C66.1757 36.7405 66.5811 36.839 66.9097 37.0321C67.2424 37.2295 67.4941 37.5023 67.6648 37.8507C67.8355 38.1991 67.919 38.6061 67.9153 39.0715C67.9116 39.5243 67.8175 39.9129 67.6329 40.2373C67.4525 40.5659 67.2135 40.8179 66.9159 40.9932C66.6224 41.1686 66.3001 41.2549 65.9489 41.2521C65.6527 41.2497 65.3865 41.1946 65.1504 41.0869C64.9185 40.9793 64.706 40.8294 64.5129 40.6374C64.3197 40.4497 64.1311 40.2302 63.9469 39.979L62.597 38.1336C62.3751 37.8272 62.1632 37.6033 61.9612 37.462C61.7592 37.3207 61.5801 37.2283 61.4239 37.1847C61.2676 37.1454 61.143 37.1253 61.0499 37.1246C60.7494 37.1221 60.4738 37.1855 60.2231 37.3147C59.9724 37.4438 59.7698 37.6411 59.6153 37.9065C59.465 38.1761 59.3882 38.514 59.3849 38.9203C59.3821 39.2757 59.4597 39.6213 59.6178 39.9569C59.7801 40.2967 60.0104 40.6012 60.3087 40.8702C60.6112 41.1392 60.9713 41.3537 61.389 41.5137C61.8109 41.6779 62.2778 41.762 62.7899 41.7662L62.7814 42.8198C62.3624 42.8165 61.9671 42.7731 61.5954 42.6897C61.2236 42.6063 60.8776 42.4786 60.5574 42.3068C60.2414 42.1392 59.9532 41.9253 59.6929 41.665C59.6551 41.6266 59.6109 41.5967 59.5603 41.5751C59.5097 41.5535 59.4655 41.5236 59.4278 41.4852C59.0876 41.165 58.8326 40.7715 58.6628 40.3046C58.4973 39.842 58.4164 39.378 58.4201 38.9125C58.4251 38.2989 58.5415 37.7688 58.7694 37.322C58.9972 36.8795 59.3089 36.5392 59.7044 36.3012C60.0999 36.0632 60.5515 35.9462 61.0593 35.9503C61.4486 35.9534 61.7907 36.0387 62.0856 36.2061C62.3805 36.3778 62.6558 36.6106 62.9116 36.9047C63.1673 37.203 63.4248 37.5436 63.6841 37.9266Z" fill="black"/>
<path d="M53.4733 55.6241C53.6275 55.7752 53.7871 55.8843 53.9524 55.9515C54.1177 56.0247 54.3065 56.0497 54.5187 56.0267C54.728 56.0067 54.9772 55.9368 55.2662 55.8173C55.5524 55.7007 55.8933 55.5312 56.2891 55.3089C56.7057 55.0773 57.1019 54.8878 57.4774 54.7404C57.8561 54.596 58.2143 54.5057 58.552 54.4694C58.8898 54.4331 59.2073 54.4629 59.5045 54.5587C59.8017 54.6545 60.0788 54.8283 60.3356 55.0801C60.5925 55.3319 60.7779 55.6173 60.8918 55.9364C61.0057 56.2555 61.0464 56.5917 61.014 56.9451C60.9817 57.3046 60.876 57.6662 60.6971 58.0301C60.5182 58.3939 60.2628 58.7451 59.931 59.0835C59.4452 59.5791 58.9382 59.9059 58.4101 60.0637C57.8821 60.2276 57.3766 60.2506 56.8937 60.1327C56.4137 60.0177 56.0015 59.7914 55.657 59.4537L56.5102 58.5834C56.758 58.8263 57.0289 58.9882 57.323 59.0691C57.6201 59.1529 57.9282 59.1409 58.2473 59.033C58.5694 58.928 58.892 58.7108 59.2149 58.3815C59.52 58.0702 59.725 57.7674 59.8298 57.4731C59.9346 57.1788 59.9558 56.9033 59.8934 56.6466C59.828 56.3929 59.6926 56.1653 59.4871 55.9638C59.3481 55.8276 59.193 55.7318 59.0219 55.6767C58.8508 55.6275 58.6562 55.6175 58.4381 55.6466C58.2169 55.6787 57.9708 55.7515 57.6996 55.8649C57.4254 55.9813 57.1173 56.1385 56.7751 56.3364C56.302 56.6075 55.8672 56.8153 55.4706 56.9599C55.0741 57.1044 54.7083 57.1844 54.3733 57.1997C54.0383 57.221 53.7266 57.1732 53.4382 57.0564C53.1498 56.9455 52.8772 56.7642 52.6203 56.5124C52.3514 56.2487 52.1615 55.9559 52.0505 55.6338C51.9396 55.3117 51.9063 54.9739 51.9507 54.6203C51.995 54.2668 52.1141 53.9065 52.308 53.5395C52.5019 53.1785 52.7692 52.8242 53.1099 52.4767C53.4091 52.1715 53.7462 51.9123 54.1211 51.6991C54.4931 51.4889 54.8822 51.3459 55.2884 51.27C55.6916 51.1972 56.0883 51.2097 56.4783 51.3075C56.8683 51.4114 57.228 51.6248 57.5574 51.9477L56.7042 52.818C56.4776 52.5958 56.2397 52.4486 55.9906 52.3762C55.7446 52.3068 55.4946 52.2959 55.2407 52.3433C54.9838 52.3937 54.7349 52.4904 54.494 52.6335C54.2531 52.7825 54.0289 52.9628 53.8215 53.1743C53.5223 53.4795 53.3114 53.7794 53.1886 54.0739C53.0659 54.3683 53.0297 54.647 53.0802 54.9098C53.1277 55.1757 53.2588 55.4138 53.4733 55.6241Z" fill="black"/>
<path d="M44.164 63.4606L43.8843 62.5041L48.6854 61.1006L48.965 62.0572L44.164 63.4606ZM49.8971 65.9246L47.304 57.0537L48.4799 56.7099L51.073 65.5809L49.8971 65.9246ZM44.2553 67.5738L41.6622 58.7029L42.832 58.3609L45.4251 67.2319L44.2553 67.5738Z" fill="black"/>
<path d="M29.0231 61.7999L29.1671 61.2339C29.3382 60.5613 29.5756 59.9799 29.8794 59.4895C30.1832 58.9991 30.5405 58.6075 30.9512 58.3147C31.362 58.0218 31.8139 57.8333 32.3069 57.7492C32.7958 57.664 33.3129 57.6907 33.8584 57.8295C34.3874 57.9641 34.8484 58.1862 35.2412 58.4958C35.6299 58.8043 35.9388 59.1863 36.1679 59.642C36.3928 60.0966 36.5256 60.6129 36.5663 61.1909C36.607 61.7689 36.5418 62.3942 36.3706 63.0668L36.2266 63.6327C36.0555 64.3053 35.8165 64.8842 35.5097 65.3694C35.1977 65.8577 34.8343 66.2477 34.4194 66.5395C34.0035 66.8354 33.5511 67.026 33.0622 67.1112C32.5692 67.1954 32.0582 67.1701 31.5292 67.0355C30.9837 66.8968 30.5166 66.6731 30.1279 66.3646C29.7351 66.0551 29.4287 65.6715 29.209 65.2138C28.984 64.7592 28.8553 64.244 28.8228 63.668C28.7852 63.0952 28.8519 62.4724 29.0231 61.7999ZM30.342 61.5329L30.1949 62.1111C30.0592 62.6443 29.9946 63.13 30.001 63.5683C30.0033 64.0055 30.0735 64.3902 30.2117 64.7223C30.3499 65.0544 30.5525 65.3308 30.8195 65.5515C31.0823 65.7712 31.4044 65.9296 31.7859 66.0267C32.155 66.1206 32.5075 66.1338 32.8434 66.0665C33.1752 65.9981 33.4832 65.8516 33.7674 65.6269C34.0475 65.4013 34.2971 65.098 34.5163 64.7171C34.7355 64.3362 34.9129 63.8792 35.0486 63.3461L35.1957 62.7678C35.3324 62.2306 35.396 61.7402 35.3866 61.2968C35.3761 60.8575 35.3002 60.4692 35.1589 60.132C35.0125 59.7978 34.81 59.5213 34.5512 59.3027C34.2883 59.083 33.9724 58.9262 33.6033 58.8322C33.2178 58.7342 32.8571 58.7188 32.5212 58.7862C32.1853 58.8535 31.8793 59.0006 31.6033 59.2273C31.3221 59.457 31.0761 59.7634 30.8651 60.1464C30.6531 60.5335 30.4787 60.9956 30.342 61.5329Z" fill="black"/>
<path d="M24.5752 56.3444L18.5988 59.3842L17.9946 58.7326L20.1827 57.4048L26.4635 54.2731L27.0634 54.9201L24.5752 56.3444ZM21.1366 62.1211L24.7799 56.7518L26.6232 54.4453L27.2188 55.0877L21.9653 63.0148L21.1366 62.1211ZM21.0117 52.6974L15.4093 55.9445L14.5763 55.0461L22.8726 50.4005L23.4682 51.0428L21.0117 52.6974ZM17.9039 58.6348L21.4202 52.9419L23.028 50.5681L23.6279 51.215L19.9842 57.1907L18.4995 59.2771L17.9039 58.6348Z" fill="black"/>
</svg>
