<svg width="52" height="52" viewBox="0 0 52 52" fill="none" xmlns="http://www.w3.org/2000/svg">
<path d="M14.0436 28.3389C14.0436 28.2158 14.0246 28.106 13.9865 28.0093C13.9513 27.9097 13.8854 27.8203 13.7887 27.7412C13.695 27.6592 13.5617 27.5801 13.3888 27.5039C13.2189 27.4248 12.9992 27.3428 12.7297 27.2578C12.4308 27.1641 12.1525 27.0586 11.8947 26.9414C11.6369 26.8242 11.4098 26.688 11.2136 26.5327C11.0202 26.3774 10.8693 26.1987 10.7609 25.9966C10.6525 25.7915 10.5983 25.5542 10.5983 25.2847C10.5983 25.021 10.654 24.7808 10.7653 24.564C10.8796 24.3472 11.0407 24.1611 11.2487 24.0059C11.4567 23.8477 11.7013 23.7261 11.9826 23.6411C12.2668 23.5562 12.5803 23.5137 12.923 23.5137C13.3976 23.5137 13.8078 23.6001 14.1535 23.7729C14.5021 23.9458 14.7717 24.1802 14.9621 24.4761C15.1525 24.772 15.2477 25.1045 15.2477 25.4736H14.0436C14.0436 25.2744 14.0012 25.0986 13.9162 24.9463C13.8342 24.7939 13.7082 24.6738 13.5383 24.5859C13.3713 24.498 13.1603 24.4541 12.9054 24.4541C12.6594 24.4541 12.4543 24.4907 12.2902 24.564C12.1291 24.6372 12.0075 24.7368 11.9255 24.8628C11.8464 24.9888 11.8068 25.1294 11.8068 25.2847C11.8068 25.4019 11.8346 25.5073 11.8903 25.6011C11.946 25.6919 12.0295 25.7783 12.1408 25.8604C12.2521 25.9395 12.3898 26.0142 12.5539 26.0845C12.7209 26.1519 12.9142 26.2192 13.134 26.2866C13.4855 26.3921 13.7931 26.5093 14.0568 26.6382C14.3234 26.7671 14.5446 26.9136 14.7204 27.0776C14.8991 27.2417 15.0324 27.4263 15.1203 27.6313C15.2111 27.8364 15.2565 28.0693 15.2565 28.3301C15.2565 28.6055 15.2023 28.8516 15.0939 29.0684C14.9855 29.2852 14.8303 29.4697 14.6281 29.6221C14.426 29.7744 14.1828 29.8901 13.8986 29.9692C13.6174 30.0483 13.3024 30.0879 12.9538 30.0879C12.6432 30.0879 12.3356 30.0469 12.0309 29.9648C11.7292 29.8799 11.4553 29.7539 11.2092 29.5869C10.9631 29.417 10.7668 29.2031 10.6203 28.9453C10.4738 28.6846 10.4006 28.3799 10.4006 28.0312H11.6135C11.6135 28.2334 11.6457 28.4062 11.7101 28.5498C11.7775 28.6904 11.8713 28.8062 11.9914 28.897C12.1144 28.9849 12.258 29.0493 12.4221 29.0903C12.5861 29.1313 12.7634 29.1519 12.9538 29.1519C13.1999 29.1519 13.402 29.1182 13.5602 29.0508C13.7214 28.9805 13.8415 28.8838 13.9206 28.7607C14.0026 28.6377 14.0436 28.4971 14.0436 28.3389ZM22.0533 26.2427V27.1919H18.6871V26.2427H22.0533ZM19.0167 23.6016V30H17.8082V23.6016H19.0167ZM22.9498 23.6016V30H21.7413V23.6016H22.9498ZM30.9814 26.6382V26.9678C30.9814 27.4512 30.9169 27.8862 30.788 28.2729C30.6591 28.6567 30.476 28.9834 30.2387 29.2529C30.0014 29.5225 29.7187 29.729 29.3906 29.8726C29.0624 30.0161 28.6977 30.0879 28.2963 30.0879C27.9008 30.0879 27.5375 30.0161 27.2065 29.8726C26.8784 29.729 26.5942 29.5225 26.3539 29.2529C26.1137 28.9834 25.9277 28.6567 25.7958 28.2729C25.664 27.8862 25.5981 27.4512 25.5981 26.9678V26.6382C25.5981 26.1519 25.664 25.7168 25.7958 25.333C25.9277 24.9492 26.1122 24.6226 26.3496 24.353C26.5869 24.0806 26.8696 23.8726 27.1977 23.729C27.5287 23.5854 27.892 23.5137 28.2875 23.5137C28.6889 23.5137 29.0537 23.5854 29.3818 23.729C29.7099 23.8726 29.9926 24.0806 30.2299 24.353C30.4702 24.6226 30.6547 24.9492 30.7836 25.333C30.9155 25.7168 30.9814 26.1519 30.9814 26.6382ZM29.7597 26.9678V26.6294C29.7597 26.2808 29.7275 25.9746 29.663 25.7109C29.5986 25.4443 29.5034 25.2202 29.3774 25.0386C29.2514 24.8569 29.0961 24.7207 28.9116 24.6299C28.727 24.5361 28.519 24.4893 28.2875 24.4893C28.0532 24.4893 27.8452 24.5361 27.6635 24.6299C27.4848 24.7207 27.3325 24.8569 27.2065 25.0386C27.0805 25.2202 26.9838 25.4443 26.9164 25.7109C26.852 25.9746 26.8198 26.2808 26.8198 26.6294V26.9678C26.8198 27.3135 26.852 27.6196 26.9164 27.8862C26.9838 28.1528 27.0805 28.3784 27.2065 28.563C27.3354 28.7446 27.4907 28.8823 27.6723 28.9761C27.8539 29.0698 28.062 29.1167 28.2963 29.1167C28.5307 29.1167 28.7387 29.0698 28.9204 28.9761C29.102 28.8823 29.2543 28.7446 29.3774 28.563C29.5034 28.3784 29.5986 28.1528 29.663 27.8862C29.7275 27.6196 29.7597 27.3135 29.7597 26.9678ZM35.1986 28.7739L36.473 23.6016H37.1629L37.2069 24.6914L35.8446 30H35.1151L35.1986 28.7739ZM34.3944 23.6016L35.4403 28.7563V30H34.6448L33.1946 23.6016H34.3944ZM38.5296 28.7344L39.5579 23.6016H40.762L39.3118 30H38.5164L38.5296 28.7344ZM37.4925 23.6016L38.7669 28.7915L38.8416 30H38.1121L36.7542 24.687L36.807 23.6016H37.4925Z" fill="url(#paint0_linear_81_15366)"/>
<path d="M2 17L2 14C2 7.37258 7.37258 2 14 2L17 2" stroke="url(#paint1_linear_81_15366)" stroke-width="2.5" stroke-linecap="round" stroke-linejoin="round"/>
<path d="M50 35V38C50 44.6274 44.6274 50 38 50H35" stroke="url(#paint2_linear_81_15366)" stroke-width="2.5" stroke-linecap="round" stroke-linejoin="round"/>
<path d="M35 2L38 2C44.6274 2 50 7.37258 50 14L50 17" stroke="url(#paint3_linear_81_15366)" stroke-width="2.5" stroke-linecap="round" stroke-linejoin="round"/>
<path d="M17 50L14 50C7.37258 50 2 44.6274 2 38L2 35" stroke="url(#paint4_linear_81_15366)" stroke-width="2.5" stroke-linecap="round" stroke-linejoin="round"/>
<defs>
<linearGradient id="paint0_linear_81_15366" x1="10" y1="26.4301" x2="41" y2="26.4301" gradientUnits="userSpaceOnUse">
<stop stop-color="#0E0E0E"/>
<stop offset="1" stop-color="#2F2F2F"/>
</linearGradient>
<linearGradient id="paint1_linear_81_15366" x1="17" y1="9.58064" x2="2" y2="9.58064" gradientUnits="userSpaceOnUse">
<stop stop-color="#0E0E0E"/>
<stop offset="1" stop-color="#2F2F2F"/>
</linearGradient>
<linearGradient id="paint2_linear_81_15366" x1="35" y1="42.4194" x2="50" y2="42.4194" gradientUnits="userSpaceOnUse">
<stop stop-color="#0E0E0E"/>
<stop offset="1" stop-color="#2F2F2F"/>
</linearGradient>
<linearGradient id="paint3_linear_81_15366" x1="42.4194" y1="17" x2="42.4194" y2="2" gradientUnits="userSpaceOnUse">
<stop stop-color="#0E0E0E"/>
<stop offset="1" stop-color="#2F2F2F"/>
</linearGradient>
<linearGradient id="paint4_linear_81_15366" x1="9.58065" y1="35" x2="9.58065" y2="50" gradientUnits="userSpaceOnUse">
<stop stop-color="#0E0E0E"/>
<stop offset="1" stop-color="#2F2F2F"/>
</linearGradient>
</defs>
</svg>
