<svg width="30" height="29" viewBox="0 0 30 29" fill="none" xmlns="http://www.w3.org/2000/svg">
<mask id="path-1-outside-1_820_1502" maskUnits="userSpaceOnUse" x="2.0332" y="3.51807" width="26" height="23" fill="#FDD32A">
<rect fill="white" x="2.0332" y="3.51807" width="26" height="23"/>
<path d="M15.3662 4.51807C15.254 4.51787 15.1433 4.54283 15.042 4.59111C14.9408 4.6394 14.8517 4.70978 14.7812 4.79707L14.6477 4.89607C12.0602 4.09507 9.10821 4.68307 7.05321 6.66307C6.19264 7.47964 5.55246 8.5005 5.19213 9.63078C4.8318 10.7611 4.76303 11.9641 4.99221 13.1281C4.96674 13.1505 4.94173 13.1736 4.91721 13.1971L3.74871 14.3221C3.52267 14.5365 3.34267 14.7947 3.21965 15.081C3.09664 15.3672 3.0332 15.6755 3.0332 15.9871C3.0332 16.2986 3.09664 16.6069 3.21965 16.8932C3.34267 17.1794 3.52267 17.4376 3.74871 17.6521C4.34571 18.2281 5.17371 18.4441 5.94321 18.3001C6.03771 18.7336 6.25821 19.1461 6.60771 19.4821C7.06821 19.9261 7.66671 20.1556 8.26971 20.1721C8.28621 20.7526 8.52471 21.3286 8.98521 21.7726C9.44571 22.2166 10.0457 22.4476 10.6487 22.4626C10.6637 23.0431 10.9037 23.6206 11.3642 24.0646C11.8051 24.483 12.3826 24.7275 12.9898 24.7528C13.5971 24.7782 14.193 24.5827 14.6672 24.2026L15.3227 24.8326C16.2827 25.7581 17.8397 25.7581 18.7997 24.8326C19.2587 24.3916 19.4972 23.8186 19.5182 23.2396C20.1348 23.2237 20.7232 22.9781 21.1682 22.5511C21.6272 22.1086 21.8657 21.5356 21.8837 20.9566C22.4933 20.9352 23.0738 20.6901 23.5142 20.2681C23.8787 19.9186 24.1037 19.4851 24.1907 19.0321C24.5768 19.0998 24.9734 19.0759 25.3486 18.9623C25.7238 18.8487 26.067 18.6486 26.3507 18.3781C26.577 18.1636 26.7572 17.9053 26.8803 17.6189C27.0035 17.3325 27.067 17.0241 27.067 16.7123C27.067 16.4006 27.0035 16.0921 26.8803 15.8057C26.7572 15.5193 26.577 15.261 26.3507 15.0466L25.2707 14.0071L25.4912 13.1821C25.9372 11.4954 25.7114 9.70151 24.8612 8.17807C23.6072 5.91907 21.1742 4.52407 18.5432 4.52407H16.6982C16.6188 4.52013 16.5392 4.51813 16.4597 4.51807H15.3662ZM19.0457 10.0921L22.6532 13.5676L22.6577 13.5706L25.2692 16.0876C25.354 16.168 25.4216 16.2649 25.4678 16.3723C25.5139 16.4797 25.5377 16.5954 25.5378 16.7123C25.5377 16.8292 25.5139 16.9449 25.4678 17.0523C25.4216 17.1597 25.354 17.2566 25.2692 17.3371C25.094 17.503 24.8618 17.5955 24.6205 17.5955C24.3791 17.5955 24.1469 17.503 23.9717 17.3371L21.9902 15.4291C21.845 15.2897 21.6515 15.2119 21.4502 15.2119C21.2489 15.2119 21.0555 15.2897 20.9102 15.4291L20.8892 15.4471C20.8185 15.5141 20.7622 15.5948 20.7237 15.6843C20.6852 15.7738 20.6653 15.8702 20.6653 15.9676C20.6653 16.065 20.6852 16.1614 20.7237 16.2509C20.7622 16.3404 20.8185 16.4211 20.8892 16.4881L22.4342 17.9761C22.7942 18.3211 22.7942 18.8821 22.4342 19.2286C22.2749 19.3795 22.068 19.4703 21.849 19.4854C21.6301 19.5004 21.4127 19.4388 21.2342 19.3111C21.0853 19.2034 20.9033 19.1514 20.72 19.164C20.5366 19.1766 20.3635 19.2531 20.2307 19.3801C20.1009 19.5042 20.0225 19.6726 20.0111 19.8518C19.9997 20.031 20.0562 20.208 20.1692 20.3476C20.3039 20.5162 20.3703 20.7293 20.3553 20.9446C20.3403 21.1599 20.245 21.3617 20.0882 21.5101C19.9266 21.6633 19.7161 21.7545 19.4938 21.7677C19.2716 21.7809 19.0518 21.7151 18.8732 21.5821C18.725 21.4709 18.5423 21.4156 18.3573 21.4261C18.1723 21.4365 17.997 21.5119 17.8622 21.6391C17.7307 21.763 17.651 21.9321 17.639 22.1124C17.627 22.2927 17.6837 22.4708 17.7977 22.6111C17.9355 22.782 18.0039 22.9986 17.9891 23.2176C17.9744 23.4367 17.8777 23.6421 17.7182 23.7931C17.5407 23.9616 17.3052 24.0555 17.0605 24.0555C16.8157 24.0555 16.5803 23.9616 16.4027 23.7931L15.7532 23.1676L15.9902 22.9396C16.2165 22.7251 16.3967 22.4668 16.5198 22.1804C16.643 21.894 16.7065 21.5856 16.7065 21.2738C16.7065 20.9621 16.643 20.6536 16.5198 20.3672C16.3967 20.0808 16.2165 19.8225 15.9902 19.6081C15.5419 19.1784 14.949 18.9323 14.3282 18.9181C14.31 18.3107 14.0529 17.735 13.6127 17.3161C13.1638 16.8866 12.5703 16.641 11.9492 16.6276C11.931 16.0202 11.6739 15.4445 11.2337 15.0256C10.9455 14.7513 10.5962 14.5496 10.2146 14.4372C9.83296 14.3247 9.43005 14.3048 9.03921 14.3791C8.94033 13.9277 8.70895 13.5161 8.37471 13.1971C8.11848 12.9526 7.81316 12.7654 7.47901 12.648C7.14487 12.5305 6.78957 12.4856 6.43671 12.5161C6.31854 11.6371 6.41056 10.7426 6.70521 9.90612C6.99986 9.06961 7.48875 8.31494 8.13171 7.70407C8.78142 7.08335 9.5604 6.61406 10.4128 6.32983C11.2652 6.04561 12.17 5.95348 13.0622 6.06007L10.8797 7.66507C10.6005 7.86797 10.3652 8.12537 10.1882 8.42171C10.0112 8.71805 9.89612 9.04719 9.84986 9.38926C9.8036 9.73132 9.82714 10.0792 9.91906 10.4119C10.011 10.7446 10.1694 11.0553 10.3847 11.3251C10.8202 11.8711 11.4494 12.2282 12.1414 12.322C12.8335 12.4159 13.535 12.2393 14.1002 11.8291L16.4642 10.0936H19.0442L19.0457 10.0921ZM11.7677 8.87257L15.6557 6.01807H16.4597C16.5333 6.01768 16.6068 6.01968 16.6802 6.02407H18.5432C20.6492 6.02407 22.5707 7.14157 23.5502 8.90707C24.2132 10.1011 24.3872 11.4886 24.0407 12.7981L24.0362 12.8131L19.8962 8.81257C19.7559 8.67181 19.5655 8.59251 19.3667 8.59207H16.2167C16.0575 8.59237 15.9025 8.64333 15.7742 8.73757L13.2122 10.6186C12.9606 10.7988 12.6496 10.876 12.3428 10.8344C12.0361 10.7929 11.7569 10.6357 11.5622 10.3951C11.4715 10.2833 11.4046 10.1542 11.3657 10.0156C11.3268 9.87709 11.3166 9.73203 11.3359 9.5894C11.3551 9.44677 11.4034 9.30959 11.4776 9.18631C11.5519 9.06303 11.6506 8.95626 11.7677 8.87257ZM12.4307 21.7876L12.4457 21.7726L13.6127 20.6476L13.6262 20.6356C13.8024 20.4753 14.0327 20.3877 14.2709 20.3902C14.509 20.3927 14.7374 20.4852 14.9102 20.6491C14.995 20.7295 15.0626 20.8264 15.1088 20.9338C15.1549 21.0412 15.1788 21.1569 15.1788 21.2738C15.1788 21.3907 15.1549 21.5064 15.1088 21.6138C15.0626 21.7212 14.995 21.8181 14.9102 21.8986L13.7417 23.0236C13.5665 23.1895 13.3343 23.282 13.093 23.282C12.8516 23.282 12.6194 23.1895 12.4442 23.0236C12.3605 22.9443 12.2935 22.8491 12.2473 22.7434C12.2011 22.6378 12.1766 22.524 12.1752 22.4087C12.1738 22.2935 12.1955 22.1791 12.2392 22.0724C12.2828 21.9657 12.3489 21.8688 12.4307 21.7876ZM12.5462 19.5946L12.5312 19.6081L11.3642 20.7331L11.3492 20.7466C11.1729 20.9062 10.9428 20.9933 10.705 20.9905C10.4672 20.9877 10.2392 20.8952 10.0667 20.7316C9.98282 20.652 9.91584 20.5563 9.86974 20.4502C9.82364 20.3442 9.79937 20.2299 9.79839 20.1143C9.79741 19.9987 9.81974 19.884 9.86403 19.7772C9.90833 19.6704 9.97369 19.5736 10.0562 19.4926L10.0667 19.4821L11.2337 18.3571L11.2442 18.3466C11.4202 18.1851 11.6509 18.0964 11.8898 18.0983C12.1286 18.1003 12.3579 18.1927 12.5312 18.3571C12.6152 18.4363 12.6823 18.5317 12.7287 18.6374C12.775 18.7432 12.7996 18.8572 12.801 18.9726C12.8024 19.0881 12.7806 19.2026 12.7368 19.3095C12.693 19.4163 12.6282 19.5133 12.5462 19.5946ZM10.1537 17.3161L8.98521 18.4411L8.97471 18.4516C8.7987 18.6131 8.568 18.7018 8.32914 18.6998C8.09028 18.6979 7.86106 18.6054 7.68771 18.4411C7.60288 18.3606 7.53532 18.2637 7.48915 18.1563C7.44298 18.0489 7.41917 17.9332 7.41917 17.8163C7.41917 17.6994 7.44298 17.5837 7.48915 17.4763C7.53532 17.3689 7.60288 17.272 7.68771 17.1916L8.85471 16.0666C9.03002 15.9002 9.26251 15.8074 9.50421 15.8074C9.74591 15.8074 9.97839 15.9002 10.1537 16.0666C10.2378 16.1462 10.305 16.242 10.3512 16.3481C10.3975 16.4543 10.4218 16.5688 10.4228 16.6846C10.4238 16.8004 10.4014 16.9152 10.357 17.0222C10.3125 17.1291 10.247 17.226 10.1642 17.3071L10.1537 17.3161ZM7.29471 15.4876L6.12771 16.6126C5.95257 16.7793 5.72002 16.8723 5.47821 16.8723C5.2364 16.8723 5.00385 16.7793 4.82871 16.6126C4.74364 16.5321 4.67588 16.4351 4.62957 16.3276C4.58326 16.22 4.55938 16.1042 4.55938 15.9871C4.55938 15.87 4.58326 15.7541 4.62957 15.6466C4.67588 15.539 4.74364 15.442 4.82871 15.3616L5.99721 14.2366C6.17245 14.0706 6.40462 13.9781 6.64596 13.9781C6.8873 13.9781 7.11947 14.0706 7.29471 14.2366C7.37978 14.317 7.44754 14.414 7.49385 14.5216C7.54016 14.6291 7.56404 14.745 7.56404 14.8621C7.56404 14.9792 7.54016 15.095 7.49385 15.2026C7.44754 15.3101 7.37978 15.4071 7.29471 15.4876Z"/>
</mask>
<path d="M15.3662 4.51807C15.254 4.51787 15.1433 4.54283 15.042 4.59111C14.9408 4.6394 14.8517 4.70978 14.7812 4.79707L14.6477 4.89607C12.0602 4.09507 9.10821 4.68307 7.05321 6.66307C6.19264 7.47964 5.55246 8.5005 5.19213 9.63078C4.8318 10.7611 4.76303 11.9641 4.99221 13.1281C4.96674 13.1505 4.94173 13.1736 4.91721 13.1971L3.74871 14.3221C3.52267 14.5365 3.34267 14.7947 3.21965 15.081C3.09664 15.3672 3.0332 15.6755 3.0332 15.9871C3.0332 16.2986 3.09664 16.6069 3.21965 16.8932C3.34267 17.1794 3.52267 17.4376 3.74871 17.6521C4.34571 18.2281 5.17371 18.4441 5.94321 18.3001C6.03771 18.7336 6.25821 19.1461 6.60771 19.4821C7.06821 19.9261 7.66671 20.1556 8.26971 20.1721C8.28621 20.7526 8.52471 21.3286 8.98521 21.7726C9.44571 22.2166 10.0457 22.4476 10.6487 22.4626C10.6637 23.0431 10.9037 23.6206 11.3642 24.0646C11.8051 24.483 12.3826 24.7275 12.9898 24.7528C13.5971 24.7782 14.193 24.5827 14.6672 24.2026L15.3227 24.8326C16.2827 25.7581 17.8397 25.7581 18.7997 24.8326C19.2587 24.3916 19.4972 23.8186 19.5182 23.2396C20.1348 23.2237 20.7232 22.9781 21.1682 22.5511C21.6272 22.1086 21.8657 21.5356 21.8837 20.9566C22.4933 20.9352 23.0738 20.6901 23.5142 20.2681C23.8787 19.9186 24.1037 19.4851 24.1907 19.0321C24.5768 19.0998 24.9734 19.0759 25.3486 18.9623C25.7238 18.8487 26.067 18.6486 26.3507 18.3781C26.577 18.1636 26.7572 17.9053 26.8803 17.6189C27.0035 17.3325 27.067 17.0241 27.067 16.7123C27.067 16.4006 27.0035 16.0921 26.8803 15.8057C26.7572 15.5193 26.577 15.261 26.3507 15.0466L25.2707 14.0071L25.4912 13.1821C25.9372 11.4954 25.7114 9.70151 24.8612 8.17807C23.6072 5.91907 21.1742 4.52407 18.5432 4.52407H16.6982C16.6188 4.52013 16.5392 4.51813 16.4597 4.51807H15.3662ZM19.0457 10.0921L22.6532 13.5676L22.6577 13.5706L25.2692 16.0876C25.354 16.168 25.4216 16.2649 25.4678 16.3723C25.5139 16.4797 25.5377 16.5954 25.5378 16.7123C25.5377 16.8292 25.5139 16.9449 25.4678 17.0523C25.4216 17.1597 25.354 17.2566 25.2692 17.3371C25.094 17.503 24.8618 17.5955 24.6205 17.5955C24.3791 17.5955 24.1469 17.503 23.9717 17.3371L21.9902 15.4291C21.845 15.2897 21.6515 15.2119 21.4502 15.2119C21.2489 15.2119 21.0555 15.2897 20.9102 15.4291L20.8892 15.4471C20.8185 15.5141 20.7622 15.5948 20.7237 15.6843C20.6852 15.7738 20.6653 15.8702 20.6653 15.9676C20.6653 16.065 20.6852 16.1614 20.7237 16.2509C20.7622 16.3404 20.8185 16.4211 20.8892 16.4881L22.4342 17.9761C22.7942 18.3211 22.7942 18.8821 22.4342 19.2286C22.2749 19.3795 22.068 19.4703 21.849 19.4854C21.6301 19.5004 21.4127 19.4388 21.2342 19.3111C21.0853 19.2034 20.9033 19.1514 20.72 19.164C20.5366 19.1766 20.3635 19.2531 20.2307 19.3801C20.1009 19.5042 20.0225 19.6726 20.0111 19.8518C19.9997 20.031 20.0562 20.208 20.1692 20.3476C20.3039 20.5162 20.3703 20.7293 20.3553 20.9446C20.3403 21.1599 20.245 21.3617 20.0882 21.5101C19.9266 21.6633 19.7161 21.7545 19.4938 21.7677C19.2716 21.7809 19.0518 21.7151 18.8732 21.5821C18.725 21.4709 18.5423 21.4156 18.3573 21.4261C18.1723 21.4365 17.997 21.5119 17.8622 21.6391C17.7307 21.763 17.651 21.9321 17.639 22.1124C17.627 22.2927 17.6837 22.4708 17.7977 22.6111C17.9355 22.782 18.0039 22.9986 17.9891 23.2176C17.9744 23.4367 17.8777 23.6421 17.7182 23.7931C17.5407 23.9616 17.3052 24.0555 17.0605 24.0555C16.8157 24.0555 16.5803 23.9616 16.4027 23.7931L15.7532 23.1676L15.9902 22.9396C16.2165 22.7251 16.3967 22.4668 16.5198 22.1804C16.643 21.894 16.7065 21.5856 16.7065 21.2738C16.7065 20.9621 16.643 20.6536 16.5198 20.3672C16.3967 20.0808 16.2165 19.8225 15.9902 19.6081C15.5419 19.1784 14.949 18.9323 14.3282 18.9181C14.31 18.3107 14.0529 17.735 13.6127 17.3161C13.1638 16.8866 12.5703 16.641 11.9492 16.6276C11.931 16.0202 11.6739 15.4445 11.2337 15.0256C10.9455 14.7513 10.5962 14.5496 10.2146 14.4372C9.83296 14.3247 9.43005 14.3048 9.03921 14.3791C8.94033 13.9277 8.70895 13.5161 8.37471 13.1971C8.11848 12.9526 7.81316 12.7654 7.47901 12.648C7.14487 12.5305 6.78957 12.4856 6.43671 12.5161C6.31854 11.6371 6.41056 10.7426 6.70521 9.90612C6.99986 9.06961 7.48875 8.31494 8.13171 7.70407C8.78142 7.08335 9.5604 6.61406 10.4128 6.32983C11.2652 6.04561 12.17 5.95348 13.0622 6.06007L10.8797 7.66507C10.6005 7.86797 10.3652 8.12537 10.1882 8.42171C10.0112 8.71805 9.89612 9.04719 9.84986 9.38926C9.8036 9.73132 9.82714 10.0792 9.91906 10.4119C10.011 10.7446 10.1694 11.0553 10.3847 11.3251C10.8202 11.8711 11.4494 12.2282 12.1414 12.322C12.8335 12.4159 13.535 12.2393 14.1002 11.8291L16.4642 10.0936H19.0442L19.0457 10.0921ZM11.7677 8.87257L15.6557 6.01807H16.4597C16.5333 6.01768 16.6068 6.01968 16.6802 6.02407H18.5432C20.6492 6.02407 22.5707 7.14157 23.5502 8.90707C24.2132 10.1011 24.3872 11.4886 24.0407 12.7981L24.0362 12.8131L19.8962 8.81257C19.7559 8.67181 19.5655 8.59251 19.3667 8.59207H16.2167C16.0575 8.59237 15.9025 8.64333 15.7742 8.73757L13.2122 10.6186C12.9606 10.7988 12.6496 10.876 12.3428 10.8344C12.0361 10.7929 11.7569 10.6357 11.5622 10.3951C11.4715 10.2833 11.4046 10.1542 11.3657 10.0156C11.3268 9.87709 11.3166 9.73203 11.3359 9.5894C11.3551 9.44677 11.4034 9.30959 11.4776 9.18631C11.5519 9.06303 11.6506 8.95626 11.7677 8.87257ZM12.4307 21.7876L12.4457 21.7726L13.6127 20.6476L13.6262 20.6356C13.8024 20.4753 14.0327 20.3877 14.2709 20.3902C14.509 20.3927 14.7374 20.4852 14.9102 20.6491C14.995 20.7295 15.0626 20.8264 15.1088 20.9338C15.1549 21.0412 15.1788 21.1569 15.1788 21.2738C15.1788 21.3907 15.1549 21.5064 15.1088 21.6138C15.0626 21.7212 14.995 21.8181 14.9102 21.8986L13.7417 23.0236C13.5665 23.1895 13.3343 23.282 13.093 23.282C12.8516 23.282 12.6194 23.1895 12.4442 23.0236C12.3605 22.9443 12.2935 22.8491 12.2473 22.7434C12.2011 22.6378 12.1766 22.524 12.1752 22.4087C12.1738 22.2935 12.1955 22.1791 12.2392 22.0724C12.2828 21.9657 12.3489 21.8688 12.4307 21.7876ZM12.5462 19.5946L12.5312 19.6081L11.3642 20.7331L11.3492 20.7466C11.1729 20.9062 10.9428 20.9933 10.705 20.9905C10.4672 20.9877 10.2392 20.8952 10.0667 20.7316C9.98282 20.652 9.91584 20.5563 9.86974 20.4502C9.82364 20.3442 9.79937 20.2299 9.79839 20.1143C9.79741 19.9987 9.81974 19.884 9.86403 19.7772C9.90833 19.6704 9.97369 19.5736 10.0562 19.4926L10.0667 19.4821L11.2337 18.3571L11.2442 18.3466C11.4202 18.1851 11.6509 18.0964 11.8898 18.0983C12.1286 18.1003 12.3579 18.1927 12.5312 18.3571C12.6152 18.4363 12.6823 18.5317 12.7287 18.6374C12.775 18.7432 12.7996 18.8572 12.801 18.9726C12.8024 19.0881 12.7806 19.2026 12.7368 19.3095C12.693 19.4163 12.6282 19.5133 12.5462 19.5946ZM10.1537 17.3161L8.98521 18.4411L8.97471 18.4516C8.7987 18.6131 8.568 18.7018 8.32914 18.6998C8.09028 18.6979 7.86106 18.6054 7.68771 18.4411C7.60288 18.3606 7.53532 18.2637 7.48915 18.1563C7.44298 18.0489 7.41917 17.9332 7.41917 17.8163C7.41917 17.6994 7.44298 17.5837 7.48915 17.4763C7.53532 17.3689 7.60288 17.272 7.68771 17.1916L8.85471 16.0666C9.03002 15.9002 9.26251 15.8074 9.50421 15.8074C9.74591 15.8074 9.97839 15.9002 10.1537 16.0666C10.2378 16.1462 10.305 16.242 10.3512 16.3481C10.3975 16.4543 10.4218 16.5688 10.4228 16.6846C10.4238 16.8004 10.4014 16.9152 10.357 17.0222C10.3125 17.1291 10.247 17.226 10.1642 17.3071L10.1537 17.3161ZM7.29471 15.4876L6.12771 16.6126C5.95257 16.7793 5.72002 16.8723 5.47821 16.8723C5.2364 16.8723 5.00385 16.7793 4.82871 16.6126C4.74364 16.5321 4.67588 16.4351 4.62957 16.3276C4.58326 16.22 4.55938 16.1042 4.55938 15.9871C4.55938 15.87 4.58326 15.7541 4.62957 15.6466C4.67588 15.539 4.74364 15.442 4.82871 15.3616L5.99721 14.2366C6.17245 14.0706 6.40462 13.9781 6.64596 13.9781C6.8873 13.9781 7.11947 14.0706 7.29471 14.2366C7.37978 14.317 7.44754 14.414 7.49385 14.5216C7.54016 14.6291 7.56404 14.745 7.56404 14.8621C7.56404 14.9792 7.54016 15.095 7.49385 15.2026C7.44754 15.3101 7.37978 15.4071 7.29471 15.4876Z" fill="#FDD32A"/>
<path d="M15.3662 4.51807C15.254 4.51787 15.1433 4.54283 15.042 4.59111C14.9408 4.6394 14.8517 4.70978 14.7812 4.79707L14.6477 4.89607C12.0602 4.09507 9.10821 4.68307 7.05321 6.66307C6.19264 7.47964 5.55246 8.5005 5.19213 9.63078C4.8318 10.7611 4.76303 11.9641 4.99221 13.1281C4.96674 13.1505 4.94173 13.1736 4.91721 13.1971L3.74871 14.3221C3.52267 14.5365 3.34267 14.7947 3.21965 15.081C3.09664 15.3672 3.0332 15.6755 3.0332 15.9871C3.0332 16.2986 3.09664 16.6069 3.21965 16.8932C3.34267 17.1794 3.52267 17.4376 3.74871 17.6521C4.34571 18.2281 5.17371 18.4441 5.94321 18.3001C6.03771 18.7336 6.25821 19.1461 6.60771 19.4821C7.06821 19.9261 7.66671 20.1556 8.26971 20.1721C8.28621 20.7526 8.52471 21.3286 8.98521 21.7726C9.44571 22.2166 10.0457 22.4476 10.6487 22.4626C10.6637 23.0431 10.9037 23.6206 11.3642 24.0646C11.8051 24.483 12.3826 24.7275 12.9898 24.7528C13.5971 24.7782 14.193 24.5827 14.6672 24.2026L15.3227 24.8326C16.2827 25.7581 17.8397 25.7581 18.7997 24.8326C19.2587 24.3916 19.4972 23.8186 19.5182 23.2396C20.1348 23.2237 20.7232 22.9781 21.1682 22.5511C21.6272 22.1086 21.8657 21.5356 21.8837 20.9566C22.4933 20.9352 23.0738 20.6901 23.5142 20.2681C23.8787 19.9186 24.1037 19.4851 24.1907 19.0321C24.5768 19.0998 24.9734 19.0759 25.3486 18.9623C25.7238 18.8487 26.067 18.6486 26.3507 18.3781C26.577 18.1636 26.7572 17.9053 26.8803 17.6189C27.0035 17.3325 27.067 17.0241 27.067 16.7123C27.067 16.4006 27.0035 16.0921 26.8803 15.8057C26.7572 15.5193 26.577 15.261 26.3507 15.0466L25.2707 14.0071L25.4912 13.1821C25.9372 11.4954 25.7114 9.70151 24.8612 8.17807C23.6072 5.91907 21.1742 4.52407 18.5432 4.52407H16.6982C16.6188 4.52013 16.5392 4.51813 16.4597 4.51807H15.3662ZM19.0457 10.0921L22.6532 13.5676L22.6577 13.5706L25.2692 16.0876C25.354 16.168 25.4216 16.2649 25.4678 16.3723C25.5139 16.4797 25.5377 16.5954 25.5378 16.7123C25.5377 16.8292 25.5139 16.9449 25.4678 17.0523C25.4216 17.1597 25.354 17.2566 25.2692 17.3371C25.094 17.503 24.8618 17.5955 24.6205 17.5955C24.3791 17.5955 24.1469 17.503 23.9717 17.3371L21.9902 15.4291C21.845 15.2897 21.6515 15.2119 21.4502 15.2119C21.2489 15.2119 21.0555 15.2897 20.9102 15.4291L20.8892 15.4471C20.8185 15.5141 20.7622 15.5948 20.7237 15.6843C20.6852 15.7738 20.6653 15.8702 20.6653 15.9676C20.6653 16.065 20.6852 16.1614 20.7237 16.2509C20.7622 16.3404 20.8185 16.4211 20.8892 16.4881L22.4342 17.9761C22.7942 18.3211 22.7942 18.8821 22.4342 19.2286C22.2749 19.3795 22.068 19.4703 21.849 19.4854C21.6301 19.5004 21.4127 19.4388 21.2342 19.3111C21.0853 19.2034 20.9033 19.1514 20.72 19.164C20.5366 19.1766 20.3635 19.2531 20.2307 19.3801C20.1009 19.5042 20.0225 19.6726 20.0111 19.8518C19.9997 20.031 20.0562 20.208 20.1692 20.3476C20.3039 20.5162 20.3703 20.7293 20.3553 20.9446C20.3403 21.1599 20.245 21.3617 20.0882 21.5101C19.9266 21.6633 19.7161 21.7545 19.4938 21.7677C19.2716 21.7809 19.0518 21.7151 18.8732 21.5821C18.725 21.4709 18.5423 21.4156 18.3573 21.4261C18.1723 21.4365 17.997 21.5119 17.8622 21.6391C17.7307 21.763 17.651 21.9321 17.639 22.1124C17.627 22.2927 17.6837 22.4708 17.7977 22.6111C17.9355 22.782 18.0039 22.9986 17.9891 23.2176C17.9744 23.4367 17.8777 23.6421 17.7182 23.7931C17.5407 23.9616 17.3052 24.0555 17.0605 24.0555C16.8157 24.0555 16.5803 23.9616 16.4027 23.7931L15.7532 23.1676L15.9902 22.9396C16.2165 22.7251 16.3967 22.4668 16.5198 22.1804C16.643 21.894 16.7065 21.5856 16.7065 21.2738C16.7065 20.9621 16.643 20.6536 16.5198 20.3672C16.3967 20.0808 16.2165 19.8225 15.9902 19.6081C15.5419 19.1784 14.949 18.9323 14.3282 18.9181C14.31 18.3107 14.0529 17.735 13.6127 17.3161C13.1638 16.8866 12.5703 16.641 11.9492 16.6276C11.931 16.0202 11.6739 15.4445 11.2337 15.0256C10.9455 14.7513 10.5962 14.5496 10.2146 14.4372C9.83296 14.3247 9.43005 14.3048 9.03921 14.3791C8.94033 13.9277 8.70895 13.5161 8.37471 13.1971C8.11848 12.9526 7.81316 12.7654 7.47901 12.648C7.14487 12.5305 6.78957 12.4856 6.43671 12.5161C6.31854 11.6371 6.41056 10.7426 6.70521 9.90612C6.99986 9.06961 7.48875 8.31494 8.13171 7.70407C8.78142 7.08335 9.5604 6.61406 10.4128 6.32983C11.2652 6.04561 12.17 5.95348 13.0622 6.06007L10.8797 7.66507C10.6005 7.86797 10.3652 8.12537 10.1882 8.42171C10.0112 8.71805 9.89612 9.04719 9.84986 9.38926C9.8036 9.73132 9.82714 10.0792 9.91906 10.4119C10.011 10.7446 10.1694 11.0553 10.3847 11.3251C10.8202 11.8711 11.4494 12.2282 12.1414 12.322C12.8335 12.4159 13.535 12.2393 14.1002 11.8291L16.4642 10.0936H19.0442L19.0457 10.0921ZM11.7677 8.87257L15.6557 6.01807H16.4597C16.5333 6.01768 16.6068 6.01968 16.6802 6.02407H18.5432C20.6492 6.02407 22.5707 7.14157 23.5502 8.90707C24.2132 10.1011 24.3872 11.4886 24.0407 12.7981L24.0362 12.8131L19.8962 8.81257C19.7559 8.67181 19.5655 8.59251 19.3667 8.59207H16.2167C16.0575 8.59237 15.9025 8.64333 15.7742 8.73757L13.2122 10.6186C12.9606 10.7988 12.6496 10.876 12.3428 10.8344C12.0361 10.7929 11.7569 10.6357 11.5622 10.3951C11.4715 10.2833 11.4046 10.1542 11.3657 10.0156C11.3268 9.87709 11.3166 9.73203 11.3359 9.5894C11.3551 9.44677 11.4034 9.30959 11.4776 9.18631C11.5519 9.06303 11.6506 8.95626 11.7677 8.87257ZM12.4307 21.7876L12.4457 21.7726L13.6127 20.6476L13.6262 20.6356C13.8024 20.4753 14.0327 20.3877 14.2709 20.3902C14.509 20.3927 14.7374 20.4852 14.9102 20.6491C14.995 20.7295 15.0626 20.8264 15.1088 20.9338C15.1549 21.0412 15.1788 21.1569 15.1788 21.2738C15.1788 21.3907 15.1549 21.5064 15.1088 21.6138C15.0626 21.7212 14.995 21.8181 14.9102 21.8986L13.7417 23.0236C13.5665 23.1895 13.3343 23.282 13.093 23.282C12.8516 23.282 12.6194 23.1895 12.4442 23.0236C12.3605 22.9443 12.2935 22.8491 12.2473 22.7434C12.2011 22.6378 12.1766 22.524 12.1752 22.4087C12.1738 22.2935 12.1955 22.1791 12.2392 22.0724C12.2828 21.9657 12.3489 21.8688 12.4307 21.7876ZM12.5462 19.5946L12.5312 19.6081L11.3642 20.7331L11.3492 20.7466C11.1729 20.9062 10.9428 20.9933 10.705 20.9905C10.4672 20.9877 10.2392 20.8952 10.0667 20.7316C9.98282 20.652 9.91584 20.5563 9.86974 20.4502C9.82364 20.3442 9.79937 20.2299 9.79839 20.1143C9.79741 19.9987 9.81974 19.884 9.86403 19.7772C9.90833 19.6704 9.97369 19.5736 10.0562 19.4926L10.0667 19.4821L11.2337 18.3571L11.2442 18.3466C11.4202 18.1851 11.6509 18.0964 11.8898 18.0983C12.1286 18.1003 12.3579 18.1927 12.5312 18.3571C12.6152 18.4363 12.6823 18.5317 12.7287 18.6374C12.775 18.7432 12.7996 18.8572 12.801 18.9726C12.8024 19.0881 12.7806 19.2026 12.7368 19.3095C12.693 19.4163 12.6282 19.5133 12.5462 19.5946ZM10.1537 17.3161L8.98521 18.4411L8.97471 18.4516C8.7987 18.6131 8.568 18.7018 8.32914 18.6998C8.09028 18.6979 7.86106 18.6054 7.68771 18.4411C7.60288 18.3606 7.53532 18.2637 7.48915 18.1563C7.44298 18.0489 7.41917 17.9332 7.41917 17.8163C7.41917 17.6994 7.44298 17.5837 7.48915 17.4763C7.53532 17.3689 7.60288 17.272 7.68771 17.1916L8.85471 16.0666C9.03002 15.9002 9.26251 15.8074 9.50421 15.8074C9.74591 15.8074 9.97839 15.9002 10.1537 16.0666C10.2378 16.1462 10.305 16.242 10.3512 16.3481C10.3975 16.4543 10.4218 16.5688 10.4228 16.6846C10.4238 16.8004 10.4014 16.9152 10.357 17.0222C10.3125 17.1291 10.247 17.226 10.1642 17.3071L10.1537 17.3161ZM7.29471 15.4876L6.12771 16.6126C5.95257 16.7793 5.72002 16.8723 5.47821 16.8723C5.2364 16.8723 5.00385 16.7793 4.82871 16.6126C4.74364 16.5321 4.67588 16.4351 4.62957 16.3276C4.58326 16.22 4.55938 16.1042 4.55938 15.9871C4.55938 15.87 4.58326 15.7541 4.62957 15.6466C4.67588 15.539 4.74364 15.442 4.82871 15.3616L5.99721 14.2366C6.17245 14.0706 6.40462 13.9781 6.64596 13.9781C6.8873 13.9781 7.11947 14.0706 7.29471 14.2366C7.37978 14.317 7.44754 14.414 7.49385 14.5216C7.54016 14.6291 7.56404 14.745 7.56404 14.8621C7.56404 14.9792 7.54016 15.095 7.49385 15.2026C7.44754 15.3101 7.37978 15.4071 7.29471 15.4876Z" stroke="#FDD32A" stroke-width="0.5" mask="url(#path-1-outside-1_820_1502)"/>
</svg>
